<?xml version="1.0" encoding="utf-8"?>
<!-- Generator: Adobe Illustrator 24.2.0, SVG Export Plug-In . SVG Version: 6.00 Build 0)  -->
<svg version="1.1" id="Layer_1" xmlns="http://www.w3.org/2000/svg" xmlns:xlink="http://www.w3.org/1999/xlink" x="0px" y="0px"
	 width="275px" height="150px" viewBox="0 0 275 150" style="enable-background:new 0 0 275 150;" xml:space="preserve">
<style type="text/css">
	.st0{fill:#EDF2F4;}
	.st1{fill:#F8A72C;}
	.st2{fill:#5A6771;}
	.st3{fill:none;}
	.st4{fill:#FFFFFF;}
	.st5{fill:none;stroke:#5A6771;stroke-width:2;stroke-linecap:round;stroke-linejoin:round;stroke-miterlimit:10;}
	.st6{fill:#F8A72C;stroke:#5A6771;stroke-width:1.75;stroke-miterlimit:10;}
	.st7{fill:none;stroke:#5A6771;stroke-width:1.75;stroke-miterlimit:9.9999;}
	.st8{fill:none;stroke:#5A6771;stroke-width:1.75;stroke-miterlimit:10;}
	.st9{fill:none;stroke:#B3B3B3;stroke-miterlimit:10;}
</style>
<g>
	<circle class="st0" cx="67.1" cy="68.8" r="42.7"/>
	<polygon class="st1" points="42.2,94.6 42.2,101.7 54.7,101.7 29.7,130.2 4.8,101.7 17.3,101.7 17.3,66.1 	"/>
	<g>
		<path class="st2" d="M54.7,100.7H43c-0.6,0-1,0.5-1,1c0,0.6,0.5,1,1,1h7.7h1.7l-1.1,1.2l-21,23.8l-0.6,0.6l-0.6-0.6L8.2,104
			l-1.1-1.2h1.7h7.7c0.6,0,1-0.5,1-1V78.5c0-0.6-0.5-1-1-1c-0.6,0-1,0.5-1,1V100v0.7h-0.7H4.9c-0.4,0-0.8,0.2-0.9,0.6
			c-0.2,0.4-0.1,0.8,0.2,1.1l24.9,28.3c0.2,0.2,0.5,0.3,0.8,0.3s0.6-0.1,0.8-0.3l24.9-28.3c0.3-0.3,0.3-0.7,0.2-1.1
			C55.4,101,55.1,100.7,54.7,100.7z"/>
	</g>
	<g>
		<path class="st2" d="M67.1,65.2h-9.9h-0.8v-0.8V19.8c0-0.6-0.5-1-1-1c-0.6,0-1,0.5-1,1v46.5c0,0.6,0.5,1,1,1h7.7h1.7l-1.1,1.2
			l-21,23.8L42.2,93l-0.6-0.6l-21-23.8l-1.1-1.2h1.7h7.7c0.6,0,1-0.5,1-1V19.8c0-0.6-0.5-1-1-1c-0.6,0-1,0.5-1,1v44.7v0.7h-0.7h-9.9
			c-0.4,0-0.8,0.2-0.9,0.6c-0.2,0.4-0.1,0.8,0.2,1.1l24.9,28.3c0.2,0.2,0.5,0.3,0.8,0.3s0.6-0.1,0.8-0.3L68,66.9
			c0.3-0.3,0.3-0.7,0.2-1.1C67.9,65.5,67.5,65.2,67.1,65.2z"/>
	</g>
	<g>
		<circle class="st3" cx="97.4" cy="112.4" r="3.6"/>
		<path class="st3" d="M76,94.6c0,2,1.6,3.6,3.6,3.6s3.6-1.6,3.6-3.6S81.6,91,79.6,91S76,92.6,76,94.6z"/>
		<path class="st2" d="M73.2,94.6c0,3.5,2.9,6.4,6.4,6.4s6.4-2.9,6.4-6.4s-2.9-6.4-6.4-6.4S73.2,91.1,73.2,94.6z M79.6,90.3
			c2.4,0,4.3,1.9,4.3,4.3s-1.9,4.3-4.3,4.3s-4.3-1.9-4.3-4.3S77.2,90.3,79.6,90.3z"/>
		<path class="st2" d="M101,88.2c-0.3,0-0.6,0.1-0.8,0.4l-24.9,28.5c-0.4,0.4-0.3,1.1,0.1,1.5c0.2,0.2,0.5,0.3,0.7,0.3
			c0.3,0,0.6-0.1,0.8-0.4L101.8,90c0.4-0.4,0.3-1.1-0.1-1.5C101.5,88.3,101.2,88.2,101,88.2z"/>
		<path class="st2" d="M97.4,106c-3.5,0-6.4,2.9-6.4,6.4s2.9,6.4,6.4,6.4s6.4-2.9,6.4-6.4S100.9,106,97.4,106z M97.4,116.7
			c-2.4,0-4.3-1.9-4.3-4.3s1.9-4.3,4.3-4.3s4.3,1.9,4.3,4.3S99.8,116.7,97.4,116.7z"/>
	</g>
	<g>
		<circle class="st3" cx="88.5" cy="103.5" r="24.9"/>
		<path class="st2" d="M88.5,75.8c-15.3,0-27.7,12.4-27.7,27.7s12.4,27.7,27.7,27.7s27.7-12.4,27.7-27.7S103.8,75.8,88.5,75.8z
			 M88.5,129.2c-14.2,0-25.7-11.5-25.7-25.7s11.5-25.7,25.7-25.7s25.7,11.5,25.7,25.7S102.7,129.2,88.5,129.2z"/>
	</g>
</g>
<g>
	<circle class="st0" cx="235.7" cy="64" r="36.3"/>
	<path class="st4" d="M232.7,96.5V40.1h-42.4c-3.1,0-5.6,2.5-5.6,5.6v76.9h48.1v-18L232.7,96.5L232.7,96.5z"/>
	<rect x="202.3" y="24.7" class="st4" width="47" height="47"/>
	<g>
		<g>
			<line class="st5" x1="202.5" y1="24.6" x2="202.5" y2="40.4"/>
			<path class="st5" d="M232.5,104.3v18.2"/>
			<path class="st5" d="M251.5,24.6v42.6c0,2.6-2.1,4.7-4.7,4.7c-2.6,0-4.7-2.1-4.7-4.7V45.1c0-2.6-2.1-4.7-4.7-4.7
				c-2.6,0-4.7,2.1-4.7,4.7v50.6"/>
			<path class="st5" d="M185.2,122.5V45.1c0-2.6,2.1-4.7,4.7-4.7h47.4"/>
			<line class="st5" x1="233.3" y1="71.9" x2="246.7" y2="71.9"/>
			<circle class="st2" cx="227.8" cy="122.5" r="1.6"/>
			<circle class="st2" cx="223.1" cy="122.5" r="1.6"/>
			<circle class="st2" cx="218.3" cy="122.5" r="1.6"/>
			<circle class="st2" cx="213.6" cy="122.5" r="1.6"/>
			<circle class="st2" cx="208.8" cy="122.5" r="1.6"/>
			<circle class="st2" cx="204.1" cy="122.5" r="1.6"/>
			<circle class="st2" cx="245.9" cy="24.6" r="1.6"/>
			<circle class="st2" cx="241.2" cy="24.6" r="1.6"/>
			<circle class="st2" cx="236.5" cy="24.6" r="1.6"/>
			<circle class="st2" cx="231.7" cy="24.6" r="1.6"/>
			<circle class="st2" cx="227" cy="24.6" r="1.6"/>
			<circle class="st2" cx="222.3" cy="24.6" r="1.6"/>
			<g>
				<circle class="st2" cx="216.7" cy="24.6" r="1.6"/>
				<circle class="st2" cx="212" cy="24.6" r="1.6"/>
				<circle class="st2" cx="207.3" cy="24.6" r="1.6"/>
			</g>
			<circle class="st2" cx="199.4" cy="122.5" r="1.6"/>
			<circle class="st2" cx="194.6" cy="122.5" r="1.6"/>
			<circle class="st2" cx="189.9" cy="122.5" r="1.6"/>
		</g>
	</g>
	<g>
		<path class="st2" d="M215.8,62.9l-2.6,2.5c-1-0.9-2.4-1.3-3.6-1.4v5.1c3.1,0.5,4.1,0.9,5.1,1.8c1.1,1,1.6,2.6,1.6,4.4
			c0,3.6-2.6,5.7-6.3,6.2v3.3h-3v-3.2c-2.8-0.1-5-0.8-6.9-2.7l2.6-2.6c1.2,1.3,2.9,1.7,4.7,1.8v-5.3c-2.5-0.2-4-0.9-5-1.9
			s-1.5-2.3-1.5-4.1c0-3.4,2.2-5.8,6-6.2V58h3v2.6C212.5,60.7,214.3,61.4,215.8,62.9z M205,66.7c0,0.6,0.2,1.1,0.6,1.5
			c0.5,0.4,1.1,0.7,2,0.8v-4.9C205.8,64.3,205,65.4,205,66.7z M212.4,75.4c0-0.7-0.2-1.3-0.6-1.7c-0.6-0.5-1.2-0.6-2.1-0.7v5
			C211.4,77.7,212.4,76.8,212.4,75.4z"/>
	</g>
</g>
<g>
	<g>
		<path class="st6" d="M245,85.5c-11.3-8.8-27.7-6.8-36.5,4.5s-6.8,27.7,4.5,36.5s27.7,6.8,36.5-4.5
			C258.3,110.6,256.3,94.3,245,85.5z M213.6,94c5.9-7.6,16.4-9.6,24.6-5.2l-23.6,30.3C208.3,112.3,207.7,101.6,213.6,94z M244.4,118
			c-5.9,7.6-16.4,9.6-24.6,5.2l23.6-30.3C249.7,99.7,250.3,110.4,244.4,118z"/>
	</g>
	<g>
		<ellipse class="st7" cx="229" cy="106" rx="26" ry="26"/>
		<g>
			<path class="st8" d="M238.2,88.9c-8.2-4.4-18.7-2.5-24.6,5.2c-5.9,7.6-5.3,18.2,1,25.1L238.2,88.9z"/>
			<path class="st8" d="M243.4,92.8l-23.6,30.3c8.2,4.4,18.7,2.5,24.6-5.2C250.3,110.4,249.7,99.7,243.4,92.8z"/>
		</g>
	</g>
</g>
<line class="st9" x1="176.9" y1="31.2" x2="122.1" y2="118.8"/>
</svg>
