<?xml version="1.0" encoding="utf-8"?>
<!-- Generator: Adobe Illustrator 24.2.0, SVG Export Plug-In . SVG Version: 6.00 Build 0)  -->
<svg version="1.1" id="Layer_1" xmlns="http://www.w3.org/2000/svg" xmlns:xlink="http://www.w3.org/1999/xlink" x="0px" y="0px"
	 width="275px" height="150px" viewBox="0 0 275 150" style="enable-background:new 0 0 275 150;" xml:space="preserve">
<style type="text/css">
	.st0{fill:#EDF2F4;}
	.st1{fill:none;stroke:#B3B3B3;stroke-linecap:round;stroke-linejoin:round;stroke-miterlimit:10;}
	.st2{fill:#F8A72C;stroke:#5A6771;stroke-width:2.3715;stroke-linecap:round;stroke-linejoin:round;stroke-miterlimit:10;}
	.st3{fill:#FFFFFF;}
	.st4{fill:#F8A72C;}
	.st5{fill:#5A6771;}
</style>
<g>
	<g>
		<circle class="st0" cx="214.7" cy="73.6" r="36.9"/>
	</g>
</g>
<line class="st1" x1="164.9" y1="31.2" x2="110.1" y2="118.8"/>
<polygon class="st2" points="273,94.9 192.4,117 273,117 "/>
<g>
	<g>
		<circle class="st0" cx="69.4" cy="69.1" r="36.9"/>
	</g>
</g>
<g>
	<polygon class="st0" points="48,115.7 7.2,115.7 7.2,75.9 27.5,52.6 48,78 	"/>
	<rect x="19.5" y="93.6" class="st3" width="13.7" height="22.3"/>
	<polygon class="st3" points="66.8,52.8 28.4,52.8 47.1,77.4 88.8,77.4 	"/>
	<rect x="48" y="78" class="st3" width="40.8" height="37.7"/>
	<circle class="st4" cx="79" cy="39.7" r="10.3"/>
	<polygon class="st4" points="75.2,46 34.3,46 54.2,70.7 98.6,70.7 	"/>
	<g>
		<path class="st5" d="M68.8,41.1c0.8,0,1.5-0.7,1.5-1.5c0-4.8,3.9-8.8,8.8-8.8c4.8,0,8.8,3.9,8.8,8.8c0,2.3-0.9,4.5-2.5,6.1
			c-0.6,0.6-0.6,1.6,0,2.2c0.3,0.3,0.7,0.4,1.1,0.4c0.4,0,0.8-0.2,1.1-0.5c2.2-2.2,3.4-5.2,3.4-8.3c0-6.5-5.3-11.8-11.8-11.8
			c-6.5,0-11.8,5.3-11.8,11.8C67.2,40.4,67.9,41.1,68.8,41.1z"/>
		<path class="st5" d="M79,24.9c0.8,0,1.5-0.7,1.5-1.5v-4.1c0-0.8-0.7-1.5-1.5-1.5c-0.8,0-1.5,0.7-1.5,1.5v4.1
			C77.5,24.2,78.2,24.9,79,24.9z"/>
		<path class="st5" d="M58.5,41.3h4.1c0.8,0,1.5-0.7,1.5-1.5s-0.7-1.5-1.5-1.5h-4.1c-0.8,0-1.5,0.7-1.5,1.5S57.7,41.3,58.5,41.3z"/>
		<path class="st5" d="M99.6,38.3h-4.1c-0.8,0-1.5,0.7-1.5,1.5s0.7,1.5,1.5,1.5h4.1c0.8,0,1.5-0.7,1.5-1.5S100.4,38.3,99.6,38.3z"/>
		<path class="st5" d="M66.3,29.3c0.3,0.3,0.7,0.5,1.1,0.5c0.4,0,0.8-0.2,1.1-0.5c0.6-0.6,0.6-1.6,0-2.2l-2.9-2.9
			c-0.6-0.6-1.6-0.6-2.2,0c-0.6,0.6-0.6,1.6,0,2.2L66.3,29.3z"/>
		<path class="st5" d="M89.6,50.3c-0.6,0.6-0.6,1.6,0,2.2l2.9,2.9c0.3,0.3,0.7,0.5,1.1,0.5c0.4,0,0.8-0.2,1.1-0.5
			c0.6-0.6,0.6-1.6,0-2.2l-2.9-2.9C91.2,49.7,90.2,49.7,89.6,50.3z"/>
		<path class="st5" d="M90.7,29.7c0.4,0,0.8-0.2,1.1-0.5l2.9-2.9c0.6-0.6,0.6-1.6,0-2.2c-0.6-0.6-1.6-0.6-2.2,0l-2.9,2.9
			c-0.6,0.6-0.6,1.6,0,2.2C89.9,29.6,90.3,29.7,90.7,29.7z"/>
		<path class="st5" d="M88.8,76.5H48.7L30.7,54h1.9c0.8,0,1.5-0.7,1.5-1.5c0-0.8-0.7-1.5-1.5-1.5h-5.1c0,0,0,0,0,0c0,0-0.1,0-0.1,0
			c0,0,0,0-0.1,0c0,0-0.1,0-0.1,0c0,0,0,0-0.1,0c0,0-0.1,0-0.1,0c0,0,0,0-0.1,0c0,0-0.1,0-0.1,0c0,0,0,0-0.1,0c0,0-0.1,0-0.1,0
			c0,0,0,0-0.1,0c0,0-0.1,0-0.1,0.1c0,0,0,0-0.1,0c0,0,0,0,0,0c0,0,0,0,0,0c0,0,0,0-0.1,0c0,0,0,0-0.1,0.1c0,0,0,0,0,0L1.2,80
			c-0.6,0.6-0.5,1.6,0.1,2.2c0.3,0.3,0.7,0.4,1,0.4c0.4,0,0.8-0.2,1.2-0.5l2.1-2.4v36.1c0,0.8,0.7,1.5,1.5,1.5h81.7
			c0.8,0,1.5-0.7,1.5-1.5V78.1C90.3,77.2,89.7,76.5,88.8,76.5z M8.6,76.2l18.8-21.3l19,23.8v35.6H34.7V93.6c0-0.8-0.7-1.5-1.5-1.5
			H19.4c-0.8,0-1.5,0.7-1.5,1.5v20.6H8.6V76.2z M31.6,114.2H21V95.2h10.7V114.2z M87.3,114.2H49.5V79.6h37.8V114.2z"/>
		<path class="st5" d="M76.3,45c-0.3-0.3-0.7-0.5-1.1-0.5H34.3c-0.6,0-1.1,0.3-1.4,0.9c-0.3,0.5-0.2,1.2,0.2,1.6L53,71.6
			c0.3,0.4,0.7,0.6,1.2,0.6h44.3c0.6,0,1.2-0.4,1.4-0.9c0.2-0.6,0.1-1.2-0.3-1.7L76.3,45z M71.2,69.1l-4.8-5.3h9.4l4.8,5.3H71.2z
			 M63.6,60.8l-4.8-5.2h9.4l4.8,5.2H63.6z M44,55.6h10.6l4.8,5.2H48.2L44,55.6z M56,52.5l-4.5-5h9.4l4.5,5H56z M47.3,47.6l4.5,5
			H41.5l-4-5H47.3z M50.7,63.9h11.5l4.8,5.3H55L50.7,63.9z M84.9,69.1L80,63.9h4.2c0.8,0,1.5-0.7,1.5-1.5c0-0.8-0.7-1.5-1.5-1.5h-7
			l-4.8-5.2h4.2c0.8,0,1.5-0.7,1.5-1.5s-0.7-1.5-1.5-1.5h-7l-4.5-5h9.4L95,69.1H84.9z"/>
		<path class="st5" d="M64.7,98.5H70l-4,6.5c-0.4,0.7-0.2,1.7,0.5,2.1c0.3,0.2,0.5,0.2,0.8,0.2c0.5,0,1-0.3,1.3-0.7l5.5-8.9
			c0.3-0.5,0.3-1.1,0-1.6c-0.3-0.5-0.8-0.8-1.3-0.8h-5.2l4.5-6.7c0.5-0.7,0.3-1.7-0.4-2.1c-0.7-0.5-1.7-0.3-2.1,0.4l-6.1,9
			c-0.3,0.5-0.3,1.1-0.1,1.6C63.6,98.2,64.1,98.5,64.7,98.5z"/>
	</g>
</g>
<g>
	<circle class="st5" cx="204.6" cy="106" r="1.1"/>
	<path class="st5" d="M182.5,63.5c3.6-0.8,6-4.4,5.2-8.1s-4.4-6-8.1-5.2c-3.6,0.8-6,4.4-5.2,8.1C175.3,62,178.9,64.3,182.5,63.5z
		 M180.1,52.5c2.4-0.5,4.8,1,5.4,3.4s-1,4.8-3.4,5.4c-2.4,0.5-4.8-1-5.4-3.4C176.1,55.4,177.7,53,180.1,52.5z"/>
	<path class="st5" d="M215.4,102.5l-5.1,1.1c1-0.6,1.7-1.6,2-2.7c0.3-1.2,0.1-2.4-0.5-3.4L204,84.3c-1.5-2.5-4.4-3.7-7.2-3.1
		l-9.3,2.1l-0.7-9.9c-0.2-3.4-2.7-6.2-6.1-6.7c-0.6-0.1-1.1-0.1-1.7-0.1c-1.9,0.1-3.7,0.9-5,2.5c-1,1.1-4.2,8.8-4.2,8.8l-2.5-5.4
		c-0.8-1.7-2.6-2.6-4.4-2.2l-5.2,1.1c-0.6,0.1-1,0.7-0.9,1.3c0.1,0.6,0.7,1,1.3,0.9l5.2-1.1c0.8-0.2,1.5,0.2,1.9,0.9l3.4,7.2
		l-0.8,1.7c-0.8,1.9-0.3,4.1,1.4,5.4l3.9,3c-3.9,3.4-5.8,8.8-4.6,14.1c1.7,7.9,9.6,12.9,17.5,11.2c7.9-1.7,12.9-9.6,11.2-17.5
		c-0.5-2.4-1.6-4.5-3.1-6.3l3.4-0.7c0.2,0,0.4,0,0.4,0.2l5.3,9c-2.9,0.8-4.7,3.7-4,6.6c0.7,3,3.7,4.9,6.7,4.3c2.6-0.6,4.4-3,4.4-5.6
		l5.7-1.2c0.6-0.1,1-0.7,0.9-1.3S216,102.4,215.4,102.5z M185.5,113.7c-6.7,1.5-13.3-2.8-14.8-9.4c-1-4.7,0.8-9.4,4.3-12.2l2.9,2.2
		c1.1,0.8,2.4,1.1,3.7,0.8c1-0.2,2-0.8,2.6-1.7c0.9-1.2,1.1-2.6,0.7-3.9c4.8,0.8,8.9,4.5,10,9.5
		C196.4,105.6,192.2,112.2,185.5,113.7z M205.3,109.4c-1.8,0.4-3.7-0.8-4.1-2.6c-0.4-1.8,0.8-3.7,2.6-4.1c1.8-0.4,3.7,0.8,4.1,2.6
		C208.3,107.1,207.2,109,205.3,109.4z M209.1,101.7c-0.2,0.1-0.3,0.2-0.5,0.2c0,0-0.1,0-0.1,0c-0.7-0.7-1.7-1.2-2.7-1.4l-5.9-10.1
		c-0.6-1-1.7-1.5-2.9-1.3l-4.8,1.1c-2.5-2-5.6-3.2-8.9-3.3l-5.8-4.4l3.5-8c0.2-0.6,0-1.2-0.6-1.5c-0.6-0.3-1.2,0-1.5,0.6l-3.9,9
		c-0.2,0.4,0,0.8,0.3,1.1l6.7,5.1c1,0.8,1.2,2.2,0.4,3.2c-0.7,1-2.2,1.2-3.2,0.4l-8.7-6.6c-0.8-0.6-1.1-1.7-0.7-2.7
		c0,0,5.1-11.8,5.9-12.7c0.7-0.8,1.7-1.4,2.7-1.6c0.2-0.1,0.5-0.1,0.8-0.1c0.4,0,0.8,0,1.2,0.1c2.3,0.4,4.1,2.3,4.2,4.6l0.9,12.6
		l0.4-0.1l1.9-0.4l9.7-2.1c1.9-0.4,3.8,0.4,4.8,2.1l7.8,13.2c0.3,0.5,0.4,1.1,0.2,1.7C210,100.9,209.6,101.4,209.1,101.7z"/>
	<circle class="st5" cx="182.8" cy="101.6" r="2.3"/>
</g>
</svg>
