<?xml version="1.0" encoding="utf-8"?>
<!-- Generator: Adobe Illustrator 24.2.0, SVG Export Plug-In . SVG Version: 6.00 Build 0)  -->
<svg version="1.1" id="Layer_1" xmlns="http://www.w3.org/2000/svg" xmlns:xlink="http://www.w3.org/1999/xlink" x="0px" y="0px"
	 width="275px" height="150px" viewBox="0 0 275 150" style="enable-background:new 0 0 275 150;" xml:space="preserve">
<style type="text/css">
	.st0{fill:#EDF2F4;}
	.st1{fill:#FFFFFF;stroke:#5A6771;stroke-width:3;stroke-miterlimit:10;}
	.st2{fill:none;stroke:#5A6771;stroke-width:3;stroke-miterlimit:10;}
	.st3{fill:#F8A72C;stroke:#5A6771;stroke-width:3;stroke-miterlimit:10;}
	.st4{fill:#5A6771;}
	.st5{fill:none;stroke:#5A6771;stroke-width:2;stroke-linecap:round;stroke-linejoin:round;stroke-miterlimit:10;}
</style>
<g>
	<circle class="st0" cx="161.1" cy="86.9" r="41"/>
	<path class="st1" d="M125,132.4c3.2,3.2,8.4,3.2,11.6,0l48.9-48.9c1.6-1.6,2.2-3.7,2.2-5.8V45.1l-15.3-15.5h-32.6
		c-2.2,0-4.3,0.9-5.8,2.4L85,80.8c-3.2,3.2-3.2,8.4,0,11.6L125,132.4z"/>
	<path class="st2" d="M118.5,125.9l6.5,6.5c3.2,3.2,8.4,3.2,11.6,0l48.9-48.9c1.6-1.6,2.2-3.7,2.2-5.8V45.1l-3.6-3.7"/>
	<path class="st2" d="M117.9,48L85,80.8c-3.2,3.2-3.2,8.4,0,11.6l27.3,27.3"/>
	<path class="st2" d="M175.4,32.7l-3-3.2h-32.6c-2.2,0-4.3,0.9-5.8,2.4l-9.9,9.9"/>
	<path class="st1" d="M167.5,57.5l-7.9-7.9c-1.6-1.6-1.6-4.3,0-5.9l2.2-2.2c1.6-1.6,4.3-1.6,5.9,0l7.9,7.9c1.6,1.6,1.6,4.3,0,5.9
		l-2.2,2.2C171.8,59.2,169.2,59.2,167.5,57.5z"/>
	<polygon class="st3" points="152.1,106.3 141.6,106.7 133.8,113.8 125.5,107.3 115.1,107.7 112.8,97.5 104.6,91.1 109.5,81.8 
		107.2,71.5 117,67.6 121.9,58.3 131.8,61.5 141.6,57.5 147.1,66.4 157.1,69.6 155.7,80 161.3,88.9 153.5,95.9 	"/>
	<g>
		<path class="st1" d="M121.5,100.6"/>
	</g>
	<path class="st2" d="M171.3,45.9c2.3-6,8.1-10.3,14.9-10.3c8.8,0,15.9,7.1,15.9,15.9c0,6.1-3.5,11.4-8.5,14.1
		c-2.2,1.2-4.7,1.8-7.4,1.8"/>
</g>
<g>
	<path class="st4" d="M118,80.6v-3.9c0-3.6,2.7-5.4,5.8-5.4s5.8,1.8,5.8,5.4v3.9c0,3.6-2.7,5.4-5.8,5.4S118,84.2,118,80.6z
		 M125.8,80.4v-3.5c0-1.5-0.8-2.3-2-2.3c-1.2,0-2,0.7-2,2.3v3.5c0,1.5,0.8,2.3,2,2.3C125,82.7,125.8,82,125.8,80.4z M141.5,71.5
		l-13.4,28.3h-4l13.4-28.3H141.5z M136,94.6v-3.9c0-3.6,2.7-5.4,5.8-5.4c3.1,0,5.8,1.8,5.8,5.4v3.9c0,3.6-2.7,5.4-5.8,5.4
		C138.7,100,136,98.2,136,94.6z M143.8,94.4v-3.5c0-1.5-0.8-2.3-2-2.3c-1.2,0-2,0.8-2,2.3v3.5c0,1.5,0.8,2.3,2,2.3
		C143,96.6,143.8,95.9,143.8,94.4z"/>
</g>
<g>
	<line class="st5" x1="89" y1="31" x2="89" y2="65"/>
</g>
<polyline class="st5" points="97.5,56.5 89,65 80.5,56.5 "/>
<g>
	<line class="st5" x1="71.6" y1="59" x2="71.6" y2="82.3"/>
</g>
<polyline class="st5" points="77,76.9 71.6,82.3 66.1,76.9 "/>
<g>
	<line class="st5" x1="175.5" y1="104.5" x2="175.5" y2="130.5"/>
</g>
<polyline class="st5" points="180.3,125.7 175.5,130.5 170.7,125.7 "/>
</svg>
