<?xml version="1.0" encoding="utf-8"?>
<!-- Generator: Adobe Illustrator 23.0.2, SVG Export Plug-In . SVG Version: 6.00 Build 0)  -->
<svg version="1.1" id="Layer_3" xmlns="http://www.w3.org/2000/svg" xmlns:xlink="http://www.w3.org/1999/xlink" x="0px" y="0px"
	 width="200px" height="200px" viewBox="0 0 200 200" style="enable-background:new 0 0 200 200;" xml:space="preserve">
<style type="text/css">
	.st0{opacity:0.35;fill:#A1DBF4;}
	.st1{fill:#016AAB;stroke:#016AAB;stroke-width:4;stroke-linecap:round;stroke-linejoin:round;stroke-miterlimit:10;}
	.st2{fill:#FFFFFF;}
	.st3{fill:#F58025;}
	.st4{fill:#4D4D4D;stroke:#FFCC32;stroke-width:3;stroke-miterlimit:10;}
	.st5{fill:#E6E6E6;}
	.st6{fill:#B3B3B3;}
	.st7{opacity:0.6;}
	.st8{fill:none;stroke:#FFCC32;stroke-width:4.0465;stroke-linecap:round;stroke-linejoin:round;stroke-dasharray:7.0813,11.1278;}
</style>
<circle class="st0" cx="91.84" cy="109.29" r="87.5"/>
<g>
	<rect x="40.85" y="35.46" class="st1" width="102.65" height="143.5"/>
	<rect x="49.66" y="42.7" class="st2" width="83.85" height="21.26"/>
	<g>
		<path class="st3" d="M80.35,57.48h-4.14l-0.58,1.95h-3.73l4.44-11.81h3.98l4.44,11.81h-3.82L80.35,57.48z M79.6,54.92l-1.3-4.25
			L77,54.92H79.6z"/>
		<path class="st3" d="M83.96,47.62h11.09v2.92h-3.72v8.89h-3.65v-8.89h-3.72V47.62z"/>
		<path class="st3" d="M96.67,47.62h4.8l1.85,7.19l1.84-7.19h4.8v11.81h-2.99v-9.01l-2.3,9.01h-2.71l-2.3-9.01v9.01h-2.99V47.62z"/>
	</g>
	<rect x="49.66" y="69.86" class="st2" width="83.85" height="87.39"/>
	<rect x="53.2" y="74.59" class="st4" width="75.58" height="57.87"/>
	<rect x="53.2" y="136" class="st5" width="41.33" height="16.53"/>
	<rect x="101.62" y="136" class="st5" width="25.98" height="16.53"/>
	<rect x="106.35" y="144.28" class="st6" width="16.53" height="1.17"/>
</g>
<g class="st7">
	<path class="st8" d="M188.05,129.15C212.5,72.66,156,2.64,98.38,10.26"/>
</g>
</svg>
