<?xml version="1.0" encoding="utf-8"?>
<!-- Generator: Adobe Illustrator 24.2.0, SVG Export Plug-In . SVG Version: 6.00 Build 0)  -->
<svg version="1.1" id="Layer_1" xmlns="http://www.w3.org/2000/svg" xmlns:xlink="http://www.w3.org/1999/xlink" x="0px" y="0px"
	 width="150px" height="150px" viewBox="0 0 150 150" style="enable-background:new 0 0 150 150;" xml:space="preserve">
<style type="text/css">
	.st0{fill:none;stroke:#5A6771;stroke-width:1.262;stroke-miterlimit:10;}
	.st1{fill:#EDF2F4;}
	.st2{fill:#FFFFFF;}
	.st3{fill:#FFFFFF;stroke:#5A6771;stroke-width:1.402;stroke-linecap:round;stroke-linejoin:round;stroke-miterlimit:10;}
	.st4{fill:#929497;}
	.st5{fill:#F8A72C;}
	.st6{fill:#FFFFFF;stroke:#5A6771;stroke-width:1.8108;stroke-miterlimit:10;}
	.st7{fill:none;stroke:#5A6771;stroke-width:1.8108;stroke-linecap:round;stroke-miterlimit:10;}
	.st8{fill:#FFFFFF;stroke:#5A6771;stroke-width:1.8108;stroke-linejoin:round;stroke-miterlimit:10;}
	.st9{fill:#FFFFFF;stroke:#5A6771;stroke-width:1.8108;stroke-linecap:round;stroke-linejoin:round;stroke-miterlimit:10;}
	.st10{fill:#F8A72C;stroke:#5A6771;stroke-width:1.598;stroke-miterlimit:10;}
	
		.st11{display:none;fill:#FFFFFF;stroke:#F8A72C;stroke-width:1.8108;stroke-linecap:round;stroke-linejoin:round;stroke-miterlimit:10;}
	.st12{fill:none;stroke:#F8A72C;stroke-width:1.598;stroke-miterlimit:10;}
	.st13{fill:#F8A72C;stroke:#5A6771;stroke-width:1.2696;}
	.st14{fill:#333C48;}
</style>
<circle class="st0" cx="141.9" cy="55.3" r="3"/>
<g>
	<ellipse transform="matrix(0.7071 -0.7071 0.7071 0.7071 -32.719 78.34)" class="st1" cx="78.2" cy="78.7" rx="62.3" ry="62.3"/>
	<g>
		<g>
			<g>
				<path class="st2" d="M103.1,87.9l2.1,3.6l2.1-3.6l2.1,3.6l2.1-3.6l2.1,3.6l2.1-3.6l2.1,3.6l2.1-3.6l2.1,3.6l2.1-3.6l2.1,3.6
					l2.1-3.6l2.1,3.6l2.1-3.6l2.7,4.6v4.7v1.4v31.6l-22.5-0.3c-0.2,3.9-2.7,6.9-5.8,6.9c-3.1,0-5.7-3.2-5.8-7.1l-0.4,0V98.6v-1.4
					v-4.7L103.1,87.9z"/>
				<g>
					<g>
						<path class="st3" d="M134.9,125.9V98.6v-1.4v-4.7l-2.7-4.6l-2.1,3.6l-2.1-3.6l-2.1,3.6l-2.1-3.6l-2.1,3.6l-2.1-3.6l-2.1,3.6
							l-2.1-3.6l-2.1,3.6l-2.1-3.6l-2.1,3.6l-2.1-3.6l-2.1,3.6l-2.1-3.6l-2.7,4.6l0,0v4.7v1.4v30.7c0,0.1,0,0.2,0,0.3c0,0,0,0,0,0
							c0,0.1,0,0.2,0,0.3c0,0,0,0.1,0,0.1v0c0,0.1,0,0.2,0,0.3c0,0,0,0.1,0,0.1c0,0,0,0,0,0c0,0.1,0,0.1,0,0.2c0,0.1,0,0.1,0,0.2v0
							c0,0,0,0.1,0,0.1c0,0.1,0,0.2,0,0.2v0c0,0,0,0.1,0,0.1c0,0.1,0,0.1,0,0.2c0,0,0,0,0,0c0,0,0,0.1,0,0.1c0,0.1,0,0.1,0,0.2
							c0,0,0,0,0,0c0,0,0,0.1,0,0.1c0,0.1,0,0.1,0,0.1c0,0,0,0,0,0.1c0,0,0,0.1,0,0.1c0,0,0,0.1,0,0.1c0,0,0,0,0,0.1
							c0,0,0,0.1,0,0.1c0,0,0,0.1,0,0.1c0,0,0,0,0,0.1c0,0.1,0,0.1,0.1,0.1c0,0,0,0.1,0,0.1c0,0,0,0.1,0,0.1c0,0,0,0.1,0.1,0.1
							c0,0,0,0.1,0,0.1c0,0,0,0.1,0,0.1c0,0.1,0,0.1,0.1,0.2c0,0,0,0,0,0.1c0,0,0,0.1,0,0.1c0,0.1,0.1,0.1,0.1,0.2c0,0,0,0,0,0.1
							c0,0,0,0,0,0.1c0,0.1,0.1,0.1,0.1,0.2c0,0,0,0.1,0,0.1c0,0,0,0,0,0c0,0.1,0.1,0.1,0.1,0.2c0,0,0,0.1,0,0.1c0,0,0,0,0,0
							c0.1,0.1,0.1,0.2,0.2,0.3c0,0,0,0,0,0c0,0,0,0,0,0c0.1,0.1,0.2,0.2,0.2,0.3c0,0,0,0,0,0c0,0,0,0,0,0c0,0,0.1,0.1,0.1,0.1
							c0,0,0.1,0.1,0.1,0.1c0,0,0.1,0.1,0.1,0.1c0,0,0,0,0.1,0.1c0,0,0.1,0,0.1,0.1c0,0,0,0,0.1,0c0.1,0.1,0.1,0.1,0.2,0.2
							c0,0,0,0,0,0c0.1,0,0.1,0.1,0.2,0.1c0,0,0,0,0.1,0c0.1,0,0.1,0.1,0.2,0.1c0,0,0,0,0,0c0.1,0,0.1,0.1,0.2,0.1c0,0,0,0,0.1,0
							c0.1,0,0.1,0.1,0.2,0.1c0,0,0,0,0.1,0c0.1,0,0.2,0.1,0.2,0.1c0,0,0,0,0,0c0.1,0,0.1,0,0.2,0.1c0,0,0,0,0.1,0
							c0.1,0,0.1,0,0.2,0c0,0,0,0,0,0c0.1,0,0.2,0,0.2,0c0,0,0,0,0.1,0c0.1,0,0.1,0,0.2,0c0,0,0,0,0.1,0c0.1,0,0.2,0,0.3,0h29"/>
					</g>
					<path class="st4" d="M142.1,129.1c0,0.2,0,0.4,0,0.5c0,0,0,0,0,0v0c0,0.1,0,0.3,0,0.4c0,0,0,0.1,0,0.1c0,0.1,0,0.2,0,0.3
						c0,0,0,0,0,0c0,0,0,0.1,0,0.1c0,0.1,0,0.3-0.1,0.4c0,0,0,0.1,0,0.1c0,0.2-0.1,0.3-0.1,0.4c0,0,0,0,0,0c0,0.2-0.1,0.3-0.1,0.5
						c0,0,0,0.1,0,0.1c0,0.1-0.1,0.2-0.1,0.3c0,0,0,0.1,0,0.1c0,0,0,0,0,0c0,0.1-0.1,0.2-0.1,0.3c0,0,0,0,0,0
						c-0.1,0.1-0.1,0.2-0.2,0.4c0,0,0,0,0,0c0,0.1-0.1,0.1-0.1,0.2c0,0,0,0,0,0.1c0,0.1-0.1,0.2-0.2,0.3c0,0,0,0,0,0
						c-0.1,0.1-0.2,0.3-0.2,0.4c0,0,0,0,0,0c0,0,0,0,0,0.1c-0.1,0.1-0.1,0.1-0.2,0.2c0,0,0,0,0,0.1c0,0,0,0,0,0
						c0,0.1-0.1,0.1-0.1,0.2c0,0,0,0.1-0.1,0.1c0,0,0,0,0,0c0,0.1-0.1,0.1-0.1,0.1c0,0,0,0.1-0.1,0.1c0,0,0,0,0,0
						c0,0-0.1,0.1-0.1,0.1c0,0-0.1,0.1-0.1,0.1c0,0,0,0,0,0c0,0-0.1,0.1-0.1,0.1c0,0-0.1,0.1-0.1,0.1c0,0,0,0,0,0
						c0,0-0.1,0.1-0.1,0.1c0,0-0.1,0.1-0.1,0.1c0,0,0,0,0,0c0,0-0.1,0.1-0.1,0.1c0,0-0.1,0.1-0.1,0.1c0,0,0,0,0,0c0,0-0.1,0-0.1,0.1
						c0,0-0.1,0-0.1,0.1c0,0,0,0-0.1,0c0,0-0.1,0-0.1,0.1c0,0-0.1,0-0.1,0c0,0,0,0-0.1,0c0,0-0.1,0-0.1,0.1c0,0,0,0-0.1,0
						c0,0-0.1,0-0.1,0c0,0-0.1,0-0.1,0.1c0,0,0,0-0.1,0c0,0-0.1,0-0.1,0c0,0-0.1,0-0.1,0c0,0,0,0-0.1,0c0,0-0.1,0-0.1,0
						c0,0-0.1,0-0.1,0c0,0,0,0-0.1,0c0,0-0.1,0-0.1,0c-0.1,0-0.1,0-0.2,0c0,0,0,0-0.1,0c0,0,0,0-0.1,0c-0.1,0-0.1,0-0.2,0
						c0,0,0,0-0.1,0c0,0,0,0-0.1,0c-0.1,0-0.1,0-0.2,0c0,0,0,0-0.1,0c0,0-0.1,0-0.1,0h-30.5c0.1,0,0.1,0,0.2,0c0.1,0,0.1,0,0.2,0
						c0,0,0.1,0,0.1,0c0.1,0,0.1,0,0.2,0c0,0,0.1,0,0.1,0c0.1,0,0.1,0,0.2,0c0,0,0.1,0,0.1,0c0,0,0.1,0,0.1,0c0,0,0.1,0,0.1,0
						c0,0,0.1,0,0.1,0c0,0,0.1,0,0.1-0.1c0,0,0.1,0,0.1-0.1c0,0,0.1,0,0.1-0.1c0,0,0.1,0,0.1-0.1c0,0,0.1-0.1,0.1-0.1
						c0,0,0.1,0,0.1-0.1c0,0,0.1-0.1,0.1-0.1c0,0,0.1,0,0.1-0.1c0,0,0.1-0.1,0.1-0.1c0,0,0.1-0.1,0.1-0.1c0,0,0.1-0.1,0.1-0.1
						c0,0,0.1-0.1,0.1-0.1c0,0,0.1-0.1,0.1-0.1c0,0,0.1-0.1,0.1-0.1c0,0,0.1-0.1,0.1-0.1c0,0,0.1-0.1,0.1-0.1c0,0,0.1-0.1,0.1-0.1
						c0,0,0.1-0.1,0.1-0.1c0,0,0.1-0.1,0.1-0.1c0-0.1,0.1-0.1,0.1-0.2c0,0,0.1-0.1,0.1-0.1c0.1-0.1,0.1-0.1,0.2-0.2
						c0,0,0-0.1,0.1-0.1c0.1-0.1,0.2-0.2,0.2-0.4c0.1-0.1,0.1-0.2,0.2-0.3c0,0,0,0,0-0.1c0-0.1,0.1-0.2,0.1-0.2
						c0.1-0.1,0.1-0.2,0.2-0.4c0,0,0,0,0,0c0.1-0.1,0.1-0.2,0.1-0.3c0,0,0-0.1,0-0.1c0-0.1,0.1-0.2,0.1-0.3c0,0,0-0.1,0-0.1
						c0-0.2,0.1-0.3,0.1-0.5c0,0,0,0,0,0c0-0.1,0.1-0.3,0.1-0.5c0,0,0-0.1,0-0.1c0-0.1,0-0.3,0.1-0.4c0,0,0-0.1,0-0.1
						c0-0.1,0-0.2,0-0.3c0,0,0-0.1,0-0.1c0-0.1,0-0.3,0-0.4c0,0,0,0,0,0c0-0.2,0-0.4,0-0.5H142.1L142.1,129.1z"/>
					<path class="st3" d="M142.1,129.1c0,0.2,0,0.4,0,0.5c0,0,0,0,0,0v0c0,0.1,0,0.3,0,0.4c0,0,0,0.1,0,0.1c0,0.1,0,0.2,0,0.3
						c0,0,0,0,0,0c0,0,0,0.1,0,0.1c0,0.1,0,0.3-0.1,0.4c0,0,0,0.1,0,0.1c0,0.2-0.1,0.3-0.1,0.4c0,0,0,0,0,0c0,0.2-0.1,0.3-0.1,0.5
						c0,0,0,0.1,0,0.1c0,0.1-0.1,0.2-0.1,0.3c0,0,0,0.1,0,0.1c0,0,0,0,0,0c0,0.1-0.1,0.2-0.1,0.3c0,0,0,0,0,0
						c-0.1,0.1-0.1,0.2-0.2,0.4c0,0,0,0,0,0c0,0.1-0.1,0.1-0.1,0.2c0,0,0,0,0,0.1c0,0.1-0.1,0.2-0.2,0.3c0,0,0,0,0,0
						c-0.1,0.1-0.2,0.3-0.2,0.4c0,0,0,0,0,0c0,0,0,0,0,0.1c-0.1,0.1-0.1,0.1-0.2,0.2c0,0,0,0,0,0.1c0,0,0,0,0,0
						c0,0.1-0.1,0.1-0.1,0.2c0,0,0,0.1-0.1,0.1c0,0,0,0,0,0c0,0.1-0.1,0.1-0.1,0.1c0,0,0,0.1-0.1,0.1c0,0,0,0,0,0
						c0,0-0.1,0.1-0.1,0.1c0,0-0.1,0.1-0.1,0.1c0,0,0,0,0,0c0,0-0.1,0.1-0.1,0.1c0,0-0.1,0.1-0.1,0.1c0,0,0,0,0,0
						c0,0-0.1,0.1-0.1,0.1c0,0-0.1,0.1-0.1,0.1c0,0,0,0,0,0c0,0-0.1,0.1-0.1,0.1c0,0-0.1,0.1-0.1,0.1c0,0,0,0,0,0c0,0-0.1,0-0.1,0.1
						c0,0-0.1,0-0.1,0.1c0,0,0,0-0.1,0c0,0-0.1,0-0.1,0.1c0,0-0.1,0-0.1,0c0,0,0,0-0.1,0c0,0-0.1,0-0.1,0.1c0,0,0,0-0.1,0
						c0,0-0.1,0-0.1,0c0,0-0.1,0-0.1,0.1c0,0,0,0-0.1,0c0,0-0.1,0-0.1,0c0,0-0.1,0-0.1,0c0,0,0,0-0.1,0c0,0-0.1,0-0.1,0
						c0,0-0.1,0-0.1,0c0,0,0,0-0.1,0c0,0-0.1,0-0.1,0c-0.1,0-0.1,0-0.2,0c0,0,0,0-0.1,0c0,0,0,0-0.1,0c-0.1,0-0.1,0-0.2,0
						c0,0,0,0-0.1,0c0,0,0,0-0.1,0c-0.1,0-0.1,0-0.2,0c0,0,0,0-0.1,0c0,0-0.1,0-0.1,0h-30.5c0.1,0,0.1,0,0.2,0c0.1,0,0.1,0,0.2,0
						c0,0,0.1,0,0.1,0c0.1,0,0.1,0,0.2,0c0,0,0.1,0,0.1,0c0.1,0,0.1,0,0.2,0c0,0,0.1,0,0.1,0c0,0,0.1,0,0.1,0c0,0,0.1,0,0.1,0
						c0,0,0.1,0,0.1,0c0,0,0.1,0,0.1-0.1c0,0,0.1,0,0.1-0.1c0,0,0.1,0,0.1-0.1c0,0,0.1,0,0.1-0.1c0,0,0.1-0.1,0.1-0.1
						c0,0,0.1,0,0.1-0.1c0,0,0.1-0.1,0.1-0.1c0,0,0.1,0,0.1-0.1c0,0,0.1-0.1,0.1-0.1c0,0,0.1-0.1,0.1-0.1c0,0,0.1-0.1,0.1-0.1
						c0,0,0.1-0.1,0.1-0.1c0,0,0.1-0.1,0.1-0.1c0,0,0.1-0.1,0.1-0.1c0,0,0.1-0.1,0.1-0.1c0,0,0.1-0.1,0.1-0.1c0,0,0.1-0.1,0.1-0.1
						c0,0,0.1-0.1,0.1-0.1c0,0,0.1-0.1,0.1-0.1c0-0.1,0.1-0.1,0.1-0.2c0,0,0.1-0.1,0.1-0.1c0.1-0.1,0.1-0.1,0.2-0.2
						c0,0,0-0.1,0.1-0.1c0.1-0.1,0.2-0.2,0.2-0.4c0.1-0.1,0.1-0.2,0.2-0.3c0,0,0,0,0-0.1c0-0.1,0.1-0.2,0.1-0.2
						c0.1-0.1,0.1-0.2,0.2-0.4c0,0,0,0,0,0c0.1-0.1,0.1-0.2,0.1-0.3c0,0,0-0.1,0-0.1c0-0.1,0.1-0.2,0.1-0.3c0,0,0-0.1,0-0.1
						c0-0.2,0.1-0.3,0.1-0.5c0,0,0,0,0,0c0-0.1,0.1-0.3,0.1-0.5c0,0,0-0.1,0-0.1c0-0.1,0-0.3,0.1-0.4c0,0,0-0.1,0-0.1
						c0-0.1,0-0.2,0-0.3c0,0,0-0.1,0-0.1c0-0.1,0-0.3,0-0.4c0,0,0,0,0,0c0-0.2,0-0.4,0-0.5H142.1L142.1,129.1z"/>
				</g>
				<g>
					<g>
						<line class="st3" x1="102.6" y1="96" x2="132.4" y2="96"/>
						<line class="st3" x1="103.5" y1="123.2" x2="106.5" y2="123.2"/>
						<line class="st3" x1="108.5" y1="123.2" x2="111.4" y2="123.2"/>
						<line class="st3" x1="113.4" y1="123.2" x2="116.4" y2="123.2"/>
						<line class="st3" x1="118.4" y1="123.2" x2="121.3" y2="123.2"/>
						<line class="st3" x1="123.3" y1="123.2" x2="126.3" y2="123.2"/>
						<line class="st3" x1="128.3" y1="123.2" x2="131.3" y2="123.2"/>
					</g>
					<line class="st3" x1="116.6" y1="104.1" x2="126.8" y2="104.1"/>
					<line class="st3" x1="116.6" y1="107.6" x2="128" y2="107.6"/>
					<line class="st3" x1="116.6" y1="111" x2="130.2" y2="111"/>
					<line class="st3" x1="116.6" y1="114.5" x2="130.2" y2="114.5"/>
				</g>
			</g>
			<g>
				<path class="st5" d="M114.1,105.1l-1.5,1.5c-0.6-0.5-1.4-0.8-2.1-0.8v3c1.8,0.3,2.4,0.5,3,1c0.6,0.6,1,1.5,1,2.6
					c0,2.1-1.5,3.4-3.7,3.6v1.9H109V116c-1.6-0.1-2.9-0.5-4-1.6l1.5-1.5c0.7,0.7,1.7,1,2.7,1v-3.1c-1.4-0.1-2.4-0.5-2.9-1.1
					c-0.6-0.6-0.9-1.4-0.9-2.4c0-2,1.3-3.4,3.5-3.6v-1.5h1.7v1.5C112.1,103.7,113.2,104.2,114.1,105.1z M107.7,107.2
					c0,0.3,0.1,0.6,0.4,0.9c0.3,0.2,0.6,0.4,1.1,0.5v-2.8C108.2,105.9,107.7,106.5,107.7,107.2z M112.1,112.3c0-0.4-0.1-0.8-0.4-1
					c-0.3-0.3-0.7-0.4-1.2-0.4v2.9C111.5,113.7,112.1,113.2,112.1,112.3z"/>
			</g>
		</g>
		<g>
			<path class="st6" d="M123,69.3c0,2-1.7,3.7-3.7,3.7h-5.5c-2,0-3.7-1.7-3.7-3.7v-6.1c0-2,1.7-3.7,3.7-3.7h5.5c2,0,3.7,1.7,3.7,3.7
				V69.3z"/>
			<line class="st7" x1="123.9" y1="66" x2="141.5" y2="66"/>
			<polygon class="st8" points="95.2,63.1 97.7,56.8 113.5,56.8 113.5,75.1 97.7,75.1 95.2,70.2 95.2,70 92.7,70 92.7,63.1 			"/>
			<path class="st9" d="M23.5,95.6l8.1,8.1c0,0,10.2-0.7,14.4-1.6c8.3-1.6,7.9-7.6,11.9-12.3c1.7-2,4.6-2.3,7.1-2.3
				c6.6,0,13.1,0,19.7,0c22.9,0,18.4-30.7,18.4-30.7H31.7c0,0-2.9,0.3-2.9,3.3c0,3,1.8,1.4,0.2,6C27.4,70.6,23.1,76.3,23.5,95.6z
				 M37.1,90.5l4.1-24.9c0.6-3.8,6.3-2.5,6.3-2.5s5,0.2,5,8.2c0,5.3,0,5.4,0,6.2c0,13.7-3.4,18.1-9.2,18.1
				C35.9,95.6,37.1,90.5,37.1,90.5z"/>
			<rect x="76.9" y="57.7" class="st10" width="8" height="28.8"/>
			<path class="st11" d="M84.2,56.8h19c0,0,4.5,30.7-18.4,30.7c-0.2,0-0.4,0-0.6,0V56.8z"/>
			<polygon class="st6" points="123,69.1 129.7,67.7 129.7,64.5 123,63.1 			"/>
			<line class="st12" x1="67.7" y1="67.1" x2="56.4" y2="67.1"/>
			<line class="st12" x1="67.7" y1="78.7" x2="56.4" y2="78.7"/>
			<line class="st12" x1="67.7" y1="70" x2="56.4" y2="70"/>
			<line class="st12" x1="67.7" y1="75.7" x2="56.4" y2="75.7"/>
			<line class="st12" x1="68.6" y1="72.9" x2="56.4" y2="72.9"/>
			<path class="st5" d="M73.8,62.1c0-0.6-0.6-1.2-1.2-1.2c-0.6,0-1.2,0.6-1.2,1.2s0.6,1.2,1.2,1.2S73.8,62.8,73.8,62.1z"/>
			<path class="st5" d="M73.8,83.1c0-0.6-0.6-1.2-1.2-1.2c-0.6,0-1.2,0.6-1.2,1.2c0,0.6,0.6,1.2,1.2,1.2
				C73.3,84.3,73.8,83.8,73.8,83.1z"/>
			<path class="st13" d="M41.1,66.4c0,0,1.4,4.3,3.3,6.2c1.9,1.9,1.1,4.3-4.9,3.2L41.1,66.4z"/>
			<polygon class="st9" points="16.8,106.5 21.1,110.8 31.5,103.6 23.5,95.6 			"/>
			<path class="st7" d="M18.9,108.5c-1.6,2.8-4.8,4.3-7.7,2.7c-3.7-2-2.8-5.7-2-9c1-4.4,6.4-16.4,0.2-19.2"/>
			<path class="st12" d="M99.6,60.9c0,0,2,18.7-11,22.7"/>
			<path class="st12" d="M31.5,69.1c0,0-3.9,7.6-4.6,22.7"/>
		</g>
	</g>
</g>
<g>
	<g>
		<g>
			<path class="st14" d="M64.7,126h-2.3v-2.3h2.1L64.7,126z M58.5,124.5l-0.8-0.9l0.9-0.8l-0.9,0.8l-0.9-0.8l1.5-1.6l1,0.9l0.8,0.9
				L58.5,124.5z M68.3,124.5l-1.4-1.8l0.9-0.8l0.8-0.9l1.6,1.6l-0.9,1L68.3,124.5z M71.7,119.1l-2.3-0.1v-2.3h2.3V119.1z
				 M55.4,119.1V118c0-0.6,0.5-1.1,1.1-1.1s1.1,0.5,1.1,1.1v1.1H55.4z M58.5,114.6l-1.6-1.6l0.9-1l0.9-0.8l1.4,1.8l-0.9,0.8
				L58.5,114.6z M68.6,114.5l-1-0.9l-0.8-0.9l1.6-1.5l0.8,0.9l-0.9,0.8l0.9-0.8l0.9,0.8L68.6,114.5z M64.6,112h-2.3v-2.3h2.3V112z"
				/>
		</g>
	</g>
</g>
</svg>
