<svg height="50" viewBox="0 0 50 50" width="50" xmlns="http://www.w3.org/2000/svg"><circle cx="25" cy="25" fill="#004c97" r="25"/><path d="m16.151 26.862c0-7.486 5.175-13.869 14.076-13.869h.689v4.485h-.689c-4.52 0-7.521 2.449-8.487 5.692 1.173-.896 2.795-1.483 4.554-1.483 4.312 0 7.556 3.277 7.556 7.59 0 4.589-3.691 8.073-8.591 8.073-5.312 0-9.107-4.071-9.107-10.488zm12.8 2.519c0-1.897-1.656-3.312-3.761-3.312-2.036 0-3.83 1.38-3.83 3.001 0 1.69 1.415 3.691 3.795 3.691 2.104 0 3.796-1.414 3.796-3.381z" fill="#fff"/></svg>