<svg height="120" viewBox="0 0 120 120" width="120">
    <path d="m6.012 60a53.988 53.988 0 1 0 53.988-53.986 53.988 53.988 0 0 0 -53.988 53.986z" fill="#c0d3dd"/>
    <path d="m60 113.99a53.893 53.893 0 0 0 43.271-21.714 142.584 142.584 0 0 0 -93.408-52.309 53.764 53.764 0 0 0 -3.851 20.033 53.988 53.988 0 0 0 53.988 53.99z" fill="#7a8c9e"/>
    <path d="m6.012 60a53.988 53.988 0 1 0 53.988-53.986 53.988 53.988 0 0 0 -53.988 53.986z" fill="none" stroke="#3f4b51" strokeMiterlimit="10" strokeWdth="2.5"/>
    <path d="m68.719 31.969v-5.285a3.862 3.862 0 0 0 -3.9-3.9h-9.641a3.862 3.862 0 0 0 -3.9 3.9v5.285" fill="#fff"/>
    <path d="m54.837 31.18v-3.951a3.05 3.05 0 0 1 3.209-3.242v-.47h-2.718a4.047 4.047 0 0 0 -4.047 4.047v3.616z" fill="#c0d3dd"/>
    <path d="m68.719 31.969v-5.285a3.862 3.862 0 0 0 -3.9-3.9h-9.641a3.862 3.862 0 0 0 -3.9 3.9v5.285" fill="none" stroke="#3f4b51" strokeMiterlimit="10" strokeWdth="2.5"/>
    <path d="m41.174 98.685h37.652a8.711 8.711 0 0 0 8.719-8.72v-49.277a8.711 8.711 0 0 0 -8.719-8.719h-37.652a8.711 8.711 0 0 0 -8.719 8.719v49.343a8.7 8.7 0 0 0 8.719 8.654z" fill="#fff"/>
    <path d="m39.253 83.838v-44.559c0-2.528 1.394-6.168 6.106-6.168v-.894h-5.172a7.7 7.7 0 0 0 -7.7 7.7v43.921z" fill="#c0d3dd"/>
    <path d="m32.488 82.369v6.8c0 4.822 3.5 8.719 7.861 8.719h39.3c4.36 0 7.861-3.9 7.861-8.719v-6.8z" fill="#f58025"/>
    <path d="m40.646 98.685h38.708a8.189 8.189 0 0 0 8.191-8.191v-50.4a8.189 8.189 0 0 0 -8.191-8.194h-38.708a8.189 8.189 0 0 0 -8.191 8.191v50.469a8.176 8.176 0 0 0 8.191 8.125z" fill="none" stroke="#3f4b51" strokeMiterlimit="10" strokeWdth="2.5"/>
    <path d="m68.691 65c-1.388-1.189-2.51-1.783-6.936-2.51v-9.516a9.377 9.377 0 0 1 4.624 1.718 1.124 1.124 0 0 0 1.521-.132l1.387-1.387a1.179 1.179 0 0 0 -.066-1.718 12.279 12.279 0 0 0 -7.4-2.642v-2.774a1.184 1.184 0 0 0 -1.189-1.189h-1.255a1.183 1.183 0 0 0 -1.189 1.189v2.774c-5.615.528-8.984 4.095-8.984 9.116a7.912 7.912 0 0 0 2.312 6.011c1.387 1.255 3.105 2.113 6.672 2.576v9.842a10.1 10.1 0 0 1 -6.077-2.246 1.14 1.14 0 0 0 -1.586.066l-1.519 1.522a1.181 1.181 0 0 0 .066 1.718c2.51 2.18 5.417 3.1 9.116 3.3v3.567a1.184 1.184 0 0 0 1.189 1.189h1.255a1.185 1.185 0 0 0 1.189-1.189v-3.7c5.681-.528 9.512-3.831 9.512-9.049-.133-2.774-.925-5.02-2.642-6.536zm-13.74-4.3a3.656 3.656 0 0 1 -1.189-2.9c0-2.444 1.519-4.293 4.36-4.756v9.05a6.083 6.083 0 0 1 -3.171-1.394zm6.738 15.523v-9.245a5.878 5.878 0 0 1 3.567 1.322 4.14 4.14 0 0 1 1.255 3.237c0 2.641-1.784 4.293-4.822 4.689z" fill="#3f4b51"/>
    <g fill="none" stroke="#3f4b51" strokeLinecap="round" strokeMiterlimit="10" strokeWdth="2.5">
        <path d="m94.725 26.167-4.329 4.329"/>
        <path d="m86.812 25.163-.692 1.42"/>
        <path d="m81.045 20.408-.559 4.546"/>
        <path d="m95.938 40.406 3.999-.491"/>
        <path d="m94.308 34.772 1.421-.692"/>
    </g>
</svg>