<svg height="50" viewBox="0 0 50 50" width="50" xmlns="http://www.w3.org/2000/svg"><path d="m47.5 22.175-22.599-16.751-22.401 16.949 2.081 2.775 2.379-1.784v18.634h-1.685v2.577h39.351v-2.577h-1.685v-18.733l2.379 1.784 2.181-2.874zm-8.227-1.685h-10.011l5.055-3.667zm-12.985-9.714 5.947 4.46-5.947 4.361zm-6.74 22.698h-7.335v-6.641h7.335zm-8.722-12.985 4.758-3.568 5.055 3.568zm12.885-.991-6.046-4.262 6.046-4.559v8.822zm8.029 22.203h-7.137v-18.733h7.137zm2.478 0v-18.733h6.244v18.733z" fill="#5a6771"/></svg>