<?xml version="1.0" encoding="UTF-8"?>
<svg id="Layer_1" data-name="Layer 1" xmlns="http://www.w3.org/2000/svg" width="120" height="120" viewBox="0 0 120 120">
  <defs>
    <style>
      .cls-1 {
        stroke-linecap: round;
        stroke-linejoin: round;
      }

      .cls-1, .cls-2, .cls-3 {
        fill: none;
        stroke-width: 2.5px;
      }

      .cls-1, .cls-3 {
        stroke: #3f4b51;
      }

      .cls-4 {
        fill: #f48022;
      }

      .cls-5 {
        fill: #fff;
      }

      .cls-6 {
        fill: #c0d3dd;
      }

      .cls-7 {
        fill: #7a8c9e;
      }

      .cls-2 {
        stroke: #3f4b52;
        stroke-miterlimit: 9.999;
      }

      .cls-3 {
        stroke-miterlimit: 10;
      }
    </style>
  </defs>
  <g>
    <path class="cls-6" d="m6.012,59.926c0,29.817,24.169,53.989,53.986,53.99s53.989-24.169,53.99-53.986c0-29.817-24.169-53.989-53.986-53.99-29.817,0-53.989,24.169-53.99,53.986q0,19.878,0,0Z"/>
    <path class="cls-7" d="m10.014,80.461c11.27,27.607,42.785,40.851,70.392,29.581,13.435-5.484,24.097-16.146,29.581-29.581H10.014Z"/>
    <circle class="cls-3" cx="59.541" cy="59.469" r="53.529"/>
  </g>
  <g>
    <path class="cls-7" d="m80.856,96.248l-41.081.283c-2.732-.101-4.869-2.392-4.779-5.125l-.555-80.949c-.132-2.732,1.972-5.056,4.703-5.197l41.083-.282c2.732.101,4.869,2.392,4.778,5.125l.555,80.949c.131,2.732-1.972,5.055-4.704,5.195h0Z"/>
    <path class="cls-5" d="m34.483,17.286l50.258-.345.49,71.284-50.258.345s-.49-71.284-.49-71.284Z"/>
    <path class="cls-1" d="m80.856,96.248l-41.081.283c-2.732-.101-4.869-2.392-4.779-5.125l-.555-80.949c-.132-2.732,1.972-5.056,4.703-5.197l41.083-.282c2.732.101,4.869,2.392,4.778,5.125l.555,80.949c.131,2.732-1.972,5.055-4.704,5.195h0Z"/>
    <path class="cls-1" d="m52.186,11.812l15.091-.103"/>
    <path class="cls-4" d="m42.604,51.721c.065,9.582,7.886,17.297,17.468,17.232,9.582-.065,17.297-7.886,17.232-17.468s-7.886-17.297-17.468-17.232h0c-9.582.066-17.296,7.886-17.231,17.468Z"/>
    <path class="cls-2" d="m42.604,51.721c.065,9.582,7.886,17.297,17.468,17.232,9.582-.065,17.297-7.886,17.232-17.468s-7.886-17.297-17.468-17.232h0c-9.582.066-17.296,7.886-17.231,17.468Z"/>
    <path class="cls-5" d="m66.465,44.188l-2.228,2.233c-.88-.751-1.992-1.175-3.149-1.202l.03,4.431c2.73.39,3.6.741,4.446,1.524,1.001,1.02,1.528,2.412,1.453,3.839.022,3.108-2.258,5.037-5.468,5.439l.012,2.854-2.599.019-.019-2.754c-2.242.086-4.418-.767-6.005-2.354l2.276-2.308c1.112,1.019,2.582,1.558,4.089,1.501l-.032-4.613c-1.602.013-3.154-.556-4.368-1.601-.915-.942-1.396-2.221-1.33-3.532-.067-2.962,2.278-5.418,5.24-5.49l-.016-2.294,2.597-.017.035,2.263c1.88.022,3.681.76,5.037,2.062h-.001Zm-9.457,3.327c-.012.49.187.961.545,1.296.489.397,1.085.641,1.712.701l-.029-4.261c-1.236.021-2.228,1.028-2.23,2.264h.002Zm6.527,7.601c.029-.557-.175-1.1-.565-1.499-.517-.411-1.16-.631-1.821-.623l.03,4.358c1.527-.217,2.363-.988,2.354-2.235h.002Z"/>
  </g>
</svg>