<svg height="50" viewBox="0 0 50 50" width="50" xmlns="http://www.w3.org/2000/svg"><g fill="#5b6770"><path d="m18.74 16.431c0-1.865-1.421-3.242-3.241-3.242-1.865 0-3.286 1.377-3.286 3.242s1.421 3.33 3.286 3.33c1.821 0 3.241-1.465 3.241-3.33z"/><path d="m34.546 30.239c-1.865 0-3.241 1.421-3.241 3.286s1.376 3.286 3.241 3.286 3.286-1.421 3.286-3.286-1.421-3.286-3.286-3.286z"/><path d="m25.045 0c-.015 0-.03 0-.045 0-13.807 0-25 11.193-25 25s11.193 25 25 25 25-11.193 25-25c-.014-13.784-11.171-24.961-24.955-25zm-17.006 16.431c0-4.13 3.197-7.282 7.46-7.282 4.218 0 7.415 3.152 7.415 7.282 0 4.173-3.197 7.326-7.415 7.326-4.263 0-7.46-3.153-7.46-7.326zm8.57 23.887h-5.328l22.2-30.636h5.328zm17.937.533c-4.218 0-7.415-3.152-7.415-7.326s3.197-7.282 7.415-7.282 7.415 3.108 7.415 7.282-3.197 7.326-7.415 7.326z"/></g></svg>