<svg height="50" viewBox="0 0 50 50" width="50" xmlns="http://www.w3.org/2000/svg"><circle cx="25" cy="25" fill="#004c97" r="25"/><path d="m16.81 29.828h4.864c0 1.69 1.588 2.933 3.554 2.933 1.863 0 3.52-1.173 3.52-3.036 0-1.759-1.519-3.174-3.761-3.174h-2.967v-3.829h2.967c1.897 0 3.312-1.139 3.312-2.76 0-1.691-1.483-2.657-3.07-2.657-1.69 0-3.104 1.069-3.104 2.554h-4.899c0-4.037 3.45-7.142 8.004-7.142 4.416 0 7.97 2.897 7.97 6.658 0 2.208-1.242 4.105-3.105 5.175 2.14 1.139 3.52 3.347 3.52 5.762 0 3.968-3.727 7.038-8.384 7.038-4.761 0-8.418-3.243-8.418-7.521z" fill="#fff"/></svg>