<svg height="50" viewBox="0 0 50 50" width="50" xmlns="http://www.w3.org/2000/svg"><path d="m28.689 10.563h-20.294v2.264h20.295v-2.264zm-4.062-4.528h-16.232v2.264h16.233v-2.264zm4.062 13.596h-20.294v2.264h20.295v-2.264zm-7.7-2.264v-2.264h-4.893v2.264zm-7.157-2.263h-5.437v2.264h5.437zm9.42 2.263h5.437v-2.264h-5.437zm-5.851 6.798h-9.006v2.149h9.006zm2.605-.007c-.611 0-1.106.495-1.106 1.106s.495 1.106 1.106 1.106 1.106-.495 1.106-1.106c0-.61-.495-1.106-1.106-1.106zm2.928.324c-.432.432-.432 1.133 0 1.565s1.133.432 1.565 0 .432-1.133 0-1.565-1.133-.432-1.565 0zm11.943-.619v-16.914l-6.936-6.937h-25.423v41.487h19.659c1.859 4.955 6.626 8.489 12.231 8.489 7.221 0 13.074-5.854 13.074-13.074 0-7.062-5.602-12.801-12.604-13.051zm-13.005 9.35h-13.477v2.264h13.02c-.052.472-.083.951-.083 1.437 0 .715.073 1.412.183 2.096h-16.508v-36.508h21.851v5.808h5.532v15.701c-1.368.213-2.665.633-3.858 1.236-.01-.602-.498-1.088-1.103-1.088-.611 0-1.106.495-1.106 1.106 0 .417.24.766.58.955-.992.698-1.885 1.526-2.648 2.466h-15.86v2.264h14.387c-.37.719-.677 1.474-.91 2.263zm12.535 14.255c-4.183 0-7.787-2.44-9.495-5.968-.195-.402-.368-.816-.511-1.245-.135-.406-.253-.819-.339-1.245-.137-.678-.21-1.378-.21-2.096 0-.489.045-.966.109-1.437.107-.786.301-1.543.571-2.264.302-.805.691-1.566 1.17-2.264.587-.854 1.297-1.616 2.103-2.264 1.308-1.051 2.87-1.796 4.582-2.128.473-.092.959-.143 1.452-.169.189-.01.375-.029.567-.029.159 0 .313.017.47.024 5.609.248 10.084 4.86 10.084 10.53 0 5.83-4.724 10.555-10.553 10.555zm.852-11.946v-3.187c.77.055 1.649.293 2.253.879l1.612-1.594c-.99-.952-2.107-1.41-3.609-1.501v-1.63h-1.868v1.648c-.461.053-.874.166-1.259.308-1.604.591-2.533 1.898-2.533 3.612 0 1.08.312 1.941.934 2.545.369.369.904.671 1.598.885.42.13.891.23 1.452.276.03.002.052.009.082.011v3.316c-.969-.032-1.872-.266-2.599-.835-.111-.087-.23-.16-.331-.265l-1.649 1.649c1.172 1.209 2.546 1.667 4.305 1.721v1.979h1.868v-2.051c2.308-.275 3.956-1.649 3.956-3.884 0-1.153-.329-2.106-1.026-2.765-.603-.568-1.226-.824-3.186-1.117zm-1.337-.111c-.031-.004-.052-.017-.082-.022-.486-.081-.869-.25-1.145-.491-.149-.139-.246-.3-.307-.474-.051-.146-.078-.301-.078-.46 0-.157.037-.301.078-.444.161-.571.637-1.008 1.452-1.144.03-.005.051-.019.082-.023zm1.337 5.642v-3.132c.568.073.952.128 1.301.458.274.257.403.641.403 1.081 0 .897-.605 1.446-1.704 1.593z" fill="#5a6771"/></svg>