<svg height="50" viewBox="0 0 50 50" width="50" xmlns="http://www.w3.org/2000/svg"><path d="m22.9 44.8c-1.662-.302-3.209-.948-4.643-1.806l1.943-2.294-11-2 3.8 10.5 2.125-2.509c4.118 2.552 8.697 3.599 13.375 3.209 2.4-.2 4.9-.9 7.3-1.9l-2.6-5c-3.2 1.8-6.7 2.5-10.3 1.8zm5.2-39.6c1.688.307 3.255.971 4.707 1.848l-1.907 2.252 11 2-3.8-10.5-2.157 2.546c-4.044-2.58-8.741-3.638-13.443-3.246-2.4.2-4.9.9-7.3 1.9l2.6 5c3.2-1.8 6.7-2.5 10.3-1.8zm-18.031 14.221c-1.215 0-2.257 1.042-2.257 2.257s1.042 2.257 2.257 2.257 2.257-1.042 2.257-2.257-1.042-2.257-2.257-2.257zm13.153 2.178c0 .289.092.595.319.888.195.24.451.461.773.652v-2.442c-.731-.078-1.092.298-1.092.902zm-23.222-10.338v28.472c16.667-11.111 33.333 7.292 50 2.951v-28.471c-16.666 4.34-33.333-14.063-50-2.952zm46.528 23.264c-2.604.868-4.688 2.604-5.382 5.208-10.764-1.389-21.528-8.333-32.465-6.771-.521-2.604-2.604-4.34-5.208-3.819v-10.938c2.604-1.736 4.688-4.167 5.382-6.944 10.764-1.389 21.528 5.556 32.292 6.944.694 2.778 2.778 5.035 5.382 5.556v10.764zm-6.597-7.986c-1.215 0-2.257 1.042-2.257 2.257 0 1.389 1.042 2.257 2.257 2.257s2.257-1.042 2.257-2.257-1.042-2.257-2.257-2.257zm-14.931-10.975c-4.931-1.585-8.981 1.761-8.981 6.692 0 5.107 4.05 9.862 8.981 11.447s8.982-1.057 8.982-6.164c0-4.931-4.05-10.214-8.982-11.975zm.881 14.711v1.46c0 .118-.116.201-.228.162l-1.206-.421c-.069-.024-.115-.089-.115-.162v-1.528c-1.405-.541-2.513-1.288-3.461-2.546-.06-.079-.038-.193.045-.247l1.081-.698c.075-.048.173-.029.228.041.569.728 1.303 1.199 2.09 1.537v-2.76c-1.128-.522-1.886-1.142-2.352-1.773-.517-.685-.776-1.49-.776-2.387 0-1.763 1.17-2.609 3.146-2.136v-1.12c0-.121.12-.205.233-.165l1.199.425c.07.025.116.091.116.165v1.229c1.188.494 2.088 1.162 2.88 2.16.062.078.041.194-.043.247l-1.053.667c-.073.046-.166.029-.221-.038-.438-.528-1.019-.896-1.563-1.155v2.635c1.451.744 1.954 1.137 2.431 1.754.578.751.851 1.638.851 2.596 0 1.853-1.367 2.508-3.282 2.057zm-.021-4.489v2.316c.684.085 1.057-.183 1.057-.798 0-.337-.098-.666-.309-.937-.212-.276-.443-.425-.748-.581z" fill="#5b6770"/></svg>