<?xml version="1.0" encoding="UTF-8"?>
<svg id="Layer_1" data-name="Layer 1" xmlns="http://www.w3.org/2000/svg" width="250" height="250" viewBox="0 0 250 250">
  <defs>
    <style>
      .cls-1 {
        fill: #00a289;
      }

      .cls-2 {
        fill: #fff;
      }

      .cls-3 {
        fill: #b5d0e7;
      }

      .cls-4 {
        fill: #92bbde;
      }

      .cls-5 {
        fill: #dae6f3;
      }

      .cls-6 {
        fill: #6fa2d2;
      }

      .cls-7 {
        fill: #478dc9;
      }

      .cls-8 {
        fill: #58595b;
      }

      .cls-9 {
        fill: #4d4d4d;
      }
    </style>
  </defs>
  <g id="Artwork">
    <g>
      <path class="cls-6" d="M67.222,101.111L9.444,77.222C3.403,91.875,0,108.056,0,125H62.5c0-8.472,1.667-16.528,4.722-23.889Z"/>
      <path class="cls-3" d="M101.111,67.222L77.222,9.444c-15.278,6.319-29.028,15.625-40.556,27.083l44.167,44.167c5.694-5.625,12.639-10.278,20.278-13.472Z"/>
      <path class="cls-4" d="M80.833,80.833L36.597,36.597c-11.528,11.528-20.764,25.278-27.083,40.556l57.778,23.889c3.125-7.569,7.778-14.514,13.542-20.208Z"/>
      <path class="cls-7" d="M187.5,125h0c0,8.472-1.667,16.528-4.722,23.889-3.194,7.639-7.778,14.514-13.542,20.278-5.764,5.764-12.639,10.417-20.278,13.542-7.361,3.056-15.417,4.722-23.889,4.722s-16.528-1.667-23.889-4.722c-7.639-3.194-14.514-7.778-20.278-13.542-5.764-5.764-10.417-12.639-13.542-20.278-3.194-7.361-4.861-15.417-4.861-23.889H0c0,16.944,3.403,33.125,9.514,47.847,6.319,15.278,15.625,29.028,27.083,40.556,11.528,11.528,25.278,20.764,40.556,27.083,14.722,6.111,30.903,9.514,47.847,9.514s33.125-3.403,47.847-9.514c15.278-6.319,29.028-15.625,40.556-27.083,11.528-11.528,20.764-25.278,27.083-40.556,6.111-14.722,9.514-30.903,9.514-47.847h-62.5Z"/>
      <path class="cls-4" d="M182.778,101.111l57.778-23.889c-6.319-15.278-15.625-29.028-27.083-40.556l-44.167,44.167c5.625,5.694,10.278,12.639,13.472,20.278Z"/>
      <path class="cls-6" d="M187.5,125h62.5c0-16.944-3.403-33.125-9.514-47.847l-57.778,23.889c3.125,7.431,4.792,15.486,4.792,23.958Z"/>
      <path class="cls-3" d="M169.167,80.833l44.167-44.167c-11.528-11.528-25.278-20.764-40.556-27.083l-23.889,57.778c7.639,3.056,14.514,7.708,20.278,13.472Z"/>
      <path class="cls-5" d="M125,0c-16.944,0-33.125,3.403-47.847,9.514l23.889,57.778c7.361-3.056,15.417-4.722,23.889-4.722s16.528,1.667,23.889,4.722l23.889-57.778C158.125,3.403,141.944,0,125,0Z"/>
    </g>
    <path class="cls-2" d="M225.417,83.403c-5.486-13.264-13.542-25.278-23.542-35.278-10-10-21.944-18.056-35.278-23.542h0c-12.847-5.347-26.875-8.264-41.597-8.264s-28.75,2.917-41.597,8.264h0c-13.264,5.486-25.278,13.542-35.278,23.542-10,10-18.056,21.944-23.542,35.278-5.347,12.847-8.264,26.875-8.264,41.597h0c0,14.722,2.917,28.75,8.264,41.597,5.486,13.264,13.542,25.278,23.542,35.278s21.944,18.056,35.278,23.542c12.847,5.347,26.875,8.264,41.597,8.264s28.75-2.917,41.597-8.264c13.264-5.486,25.278-13.542,35.278-23.542s18.056-21.944,23.542-35.278c5.347-12.847,8.264-26.875,8.264-41.597h0c0-14.722-2.917-28.819-8.264-41.597Z"/>
    <g>
      <path class="cls-8" d="M95.833,56.181h-2.708l.069,.278v3.542h-2.083v-10.347h4.722c1.389,0,2.222,.347,2.778,.972,.486,.486,.764,1.042,.764,2.361,0,1.181-.347,1.875-.833,2.361-.556,.486-1.319,.833-2.708,.833Zm0-4.792h-2.708l.069,.278v2.639l-.069,.278h2.708c.972,0,1.528-.486,1.528-1.528,0-1.111-.556-1.667-1.528-1.667Z"/>
      <path class="cls-8" d="M109.514,49.653v10.278h-2.361l-3.403-5.764-.694-1.458h-.139l.069,1.458v5.764h-2.014v-10.278h2.431l3.403,5.764,.694,1.458h.139l-.069-1.458v-5.764h1.944Z"/>
      <path class="cls-8" d="M116.25,58.403c1.042,0,1.597-.486,2.083-.972l.417-.347,1.667,.833c0,.139,0,.208-.139,.278l-.139,.139c-1.319,1.319-2.153,1.875-4.028,1.875-1.528,0-2.569-.486-3.333-1.181-.972-.903-1.389-2.153-1.389-4.236,0-1.944,.417-3.125,1.25-4.028,.764-.764,1.875-1.319,3.472-1.319,2.014,0,3.125,1.042,3.819,1.667l.347,.347c.069,.069,.139,.139,.139,.278l-1.667,.833-.486-.486c-.417-.417-.972-.903-2.014-.903-.903,0-1.528,.347-2.014,.764-.486,.486-.764,1.042-.764,2.708,0,1.736,.278,2.361,.833,2.847,.417,.625,1.042,.903,1.944,.903Z"/>
      <path class="cls-8" d="M129.792,60h-4.722v-10.347h4.375c1.528,0,2.361,.347,2.917,.972,.417,.417,.694,.972,.694,1.667,0,1.181-.694,1.875-1.389,2.083v.069c.764,.069,1.806,.833,1.806,2.5,0,.903-.278,1.597-.833,2.083-.556,.625-1.458,.972-2.847,.972Zm-.347-8.611h-2.361l.069,.278v2.014l-.069,.278h2.361c.972,0,1.458-.486,1.458-1.25,0-.833-.486-1.319-1.458-1.319Zm.417,4.167h-2.778l.069,.278v2.222l-.069,.278h2.778c.972,0,1.458-.556,1.458-1.389s-.486-1.389-1.458-1.389Z"/>
      <path class="cls-8" d="M137.014,55.417l1.389-.208c.556-.069,.764-.347,.764-.625,0-.556-.347-.972-1.319-.972-.764,0-1.319,.417-1.667,.764l-.278,.278-1.319-.694c0-.208,0-.278,.139-.347l.208-.208c.764-.764,1.667-1.181,2.917-1.181,1.181,0,2.083,.278,2.639,.903,.347,.417,.625,1.042,.625,1.806v3.333c0,.208,.139,.278,.278,.278h.486v1.389c-.139,.139-.486,.278-.833,.278h-.069c-.694,0-1.458-.278-1.597-1.111l-.278,.278c-.486,.486-1.042,.764-2.222,.764-1.111,0-2.431-.694-2.431-2.292-.069-1.528,1.111-2.153,2.569-2.431Zm2.153,.764l-.347,.139-1.736,.417c-.417,.069-.764,.417-.764,.972,0,.625,.417,1.111,1.25,1.111,.903,0,1.667-.625,1.667-1.528v-1.111h-.069Z"/>
      <path class="cls-8" d="M144.861,53.333l.556-.556c.417-.417,.972-.625,1.736-.625,.833,0,1.458,.278,1.875,.694,.486,.486,.694,1.181,.694,2.361v4.792h-1.944v-5.069c0-.556-.278-1.181-1.319-1.181-.833,0-1.458,.417-1.458,1.181v5.069h-1.944v-7.639h1.806v.972Z"/>
      <path class="cls-8" d="M158.819,60h-2.292l-2.292-3.333-.764,.694v2.639h-1.944v-10.764h1.944v6.111l2.847-2.986h2.222c0,.139,0,.208-.069,.278l-2.917,2.639,3.125,4.375c.069,.139,.139,.208,.139,.347Z"/>
      <path class="cls-8" d="M59.722,67.153h6.389l-.208,1.042h-5.208v.278l-.556,3.125-.069,.278h4.514l-.208,1.042h-4.514v.278l-.764,4.444h-1.25l1.875-10.486Z"/>
      <path class="cls-8" d="M72.153,72.5c0,.417,0,.833-.139,1.389-.347,1.806-.764,2.569-1.389,3.056-.486,.417-1.181,.625-1.944,.625-1.111,0-1.944-.347-2.5-1.042-.278-.417-.486-.903-.486-1.736,0-.417,.069-.903,.139-1.458,.278-1.597,.694-2.361,1.389-2.917,.486-.417,1.181-.625,2.014-.625,1.181,0,2.014,.347,2.5,1.042,.208,.486,.417,.972,.417,1.667Zm-2.361,3.681c.486-.347,.833-.972,1.042-2.431,.069-.556,.139-.972,.139-1.25,0-.486-.069-.764-.278-1.042-.278-.417-.903-.625-1.528-.625-.556,0-.903,.139-1.181,.347-.486,.347-.694,.833-.972,2.222-.069,.556-.139,.972-.139,1.319,0,.556,.139,.903,.347,1.181,.278,.347,.694,.625,1.458,.625,.486,.069,.833-.069,1.111-.347Z"/>
      <path class="cls-8" d="M79.028,77.5h-1.111l.208-1.042-.486,.417c-.694,.556-1.25,.694-1.944,.694-.833,0-1.319-.278-1.667-.694-.278-.278-.417-.694-.417-1.25,0-.208,0-.486,.069-.833l.833-4.861h1.181l-.903,5.069v.347c0,.625,.278,1.181,1.389,1.181,1.181,0,2.014-.694,2.153-1.528l.903-5.069h1.181l-1.389,7.569Z"/>
      <path class="cls-8" d="M82.778,70h1.111l-.208,1.042,.486-.417c.694-.556,1.25-.694,1.944-.694,.833,0,1.319,.278,1.667,.694,.278,.278,.417,.694,.417,1.25,0,.208,0,.486-.069,.833l-.833,4.861h-1.181l.903-5.069v-.347c0-.625-.278-1.181-1.389-1.181-1.181,0-2.014,.694-2.153,1.528l-.903,5.069h-1.181l1.389-7.569Z"/>
      <path class="cls-8" d="M91.111,70.556c.556-.486,1.25-.694,2.083-.694,.694,0,1.25,.139,1.667,.694l.278,.347,.764-4.167h1.181l-1.875,10.764h-1.111l.139-1.042-.486,.417c-.625,.486-1.111,.694-1.806,.694-.764,0-1.319-.278-1.736-.694-.278-.347-.486-.694-.486-1.597,0-.417,.069-.833,.139-1.458,.347-2.153,.764-2.778,1.25-3.264Zm1.319,6.042c1.181,0,1.875-.833,2.014-1.528l.486-2.708v-.347c0-.556-.417-1.181-1.667-1.181-.625,0-1.111,.139-1.458,.417s-.625,.972-.903,2.5c-.069,.486-.139,.833-.139,1.181,0,.625,.139,.972,.347,1.181,.347,.278,.764,.486,1.319,.486Z"/>
      <path class="cls-8" d="M101.528,76.944c-.417,.347-.903,.625-1.806,.625-1.528,0-2.292-.833-2.292-1.944,0-1.667,1.389-2.431,2.569-2.431l1.111-.069c.903-.069,1.458-.139,1.458-1.042,0-.694-.417-1.25-1.597-1.25-.694,0-1.181,.278-1.528,.625l-.486,.486-.764-.417c0-.208,0-.278,.139-.347l.208-.208c.833-.833,1.597-1.111,2.569-1.111,1.736,0,2.708,.833,2.708,2.153,0,.208,0,.417-.069,.625l-.625,3.611c0,.208,.069,.278,.208,.278h.556l-.139,.833c-.139,.139-.417,.208-.694,.208h-.139c-.625,0-.972-.347-.972-.903l-.417,.278Zm.556-1.667l.278-1.458-.556,.139-1.597,.069c-1.111,.069-1.597,.556-1.597,1.389,0,.625,.347,1.111,1.458,1.111,1.042,.139,1.875-.556,2.014-1.25Z"/>
      <path class="cls-8" d="M107.361,77.569c-.972,0-1.667-.556-1.667-1.736,0-.139,0-.278,.069-.417l.764-4.375,.069-.278h-1.111l.139-.903h1.111v-.278l.278-1.806h1.181l-.278,1.806-.069,.278h1.667l-.139,.903h-1.667v.278l-.764,4.306v.347c0,.486,.208,.833,.833,.833h.625l-.139,.833c-.139,.139-.347,.208-.556,.208,0,0-.347,0-.347,0Z"/>
      <path class="cls-8" d="M111.25,70h1.181l-1.319,7.5h-1.181l1.319-7.5Zm.486-3.264h1.319l-.208,1.319h-1.319l.208-1.319Z"/>
      <path class="cls-8" d="M120.069,72.5c0,.417,0,.833-.139,1.389-.347,1.806-.764,2.569-1.389,3.056-.486,.417-1.181,.625-1.944,.625-1.111,0-1.944-.347-2.5-1.042-.278-.417-.486-.903-.486-1.736,0-.417,.069-.903,.139-1.458,.278-1.597,.694-2.361,1.389-2.917,.486-.417,1.181-.625,2.014-.625,1.181,0,2.014,.347,2.5,1.042,.278,.486,.417,.972,.417,1.667Zm-2.292,3.681c.486-.347,.833-.972,1.042-2.431,.069-.556,.139-.972,.139-1.25,0-.486-.069-.764-.278-1.042-.278-.417-.903-.625-1.528-.625-.556,0-.903,.139-1.181,.347-.486,.347-.694,.833-.972,2.222-.069,.556-.139,.972-.139,1.319,0,.556,.139,.903,.347,1.181,.278,.347,.694,.625,1.458,.625,.417,.069,.833-.069,1.111-.347Z"/>
      <path class="cls-8" d="M122.639,70h1.111l-.208,1.042,.486-.417c.694-.556,1.25-.694,1.944-.694,.833,0,1.319,.278,1.667,.694,.278,.278,.417,.694,.417,1.25,0,.208,0,.486-.069,.833l-.833,4.861h-1.181l.903-5.069v-.347c0-.625-.278-1.181-1.389-1.181-1.181,0-2.014,.694-2.153,1.528l-.903,5.069h-1.181l1.389-7.569Z"/>
      <path class="cls-8" d="M137.222,76.597c1.181,0,2.153-.694,2.708-1.25l.208-.278,.903,.486c0,.139,0,.208-.139,.278l-.278,.278c-.764,.764-2.083,1.528-3.542,1.528-1.597,0-2.708-.486-3.472-1.319-.347-.417-.694-.972-.694-2.292,0-.694,.069-1.389,.278-2.361,.278-1.528,.694-2.708,1.667-3.542,.764-.625,1.806-1.042,3.194-1.042,1.458,0,2.639,.625,3.472,1.458l.347,.347c.069,.069,.139,.139,.139,.278l-.972,.486-.347-.347c-.833-.833-1.667-1.25-2.847-1.25-.903,0-1.597,.278-2.083,.694-.694,.625-1.042,1.528-1.389,3.333-.139,.694-.208,1.25-.208,1.736,0,1.111,.347,1.528,.625,1.875,.625,.556,1.389,.903,2.431,.903Z"/>
      <path class="cls-8" d="M144.167,66.736h1.181l-.764,4.167,.417-.347c.694-.556,1.25-.694,1.875-.694,.833,0,1.389,.278,1.736,.694,.278,.278,.417,.694,.417,1.25,0,.208,0,.486-.069,.833l-.833,4.861h-1.181l.903-5.069v-.347c0-.625-.278-1.181-1.389-1.181-1.181,0-2.014,.694-2.153,1.528l-.903,5.069h-1.181l1.944-10.764Z"/>
      <path class="cls-8" d="M151.875,70.625c.486-.486,1.181-.694,2.153-.694s1.736,.347,2.153,.903c.347,.417,.486,.833,.486,1.528,0,.278,0,.556-.069,.972l-.139,.694h-4.792v.278l-.069,.278v.556c0,.417,.139,.833,.347,1.111,.278,.278,.694,.486,1.319,.486,.764,0,1.458-.347,1.736-.625l.486-.486,.694,.347c0,.208,0,.278-.139,.347l-.208,.208c-.764,.764-1.389,1.181-2.639,1.181-1.042,0-1.806-.347-2.222-.833-.278-.347-.556-.694-.556-1.736,0-.347,.069-.833,.139-1.389,.347-1.667,.694-2.569,1.319-3.125Zm.208,2.431h3.403v-.278c.069-.347,.069-.486,.069-.556,0-.347-.139-.694-.347-.972-.278-.278-.694-.486-1.319-.486s-1.111,.139-1.319,.417c-.347,.347-.486,.764-.625,1.319l-.069,.278-.069,.278h.278Z"/>
      <path class="cls-8" d="M160.833,76.597c.625,0,1.111-.139,1.806-.833l.278-.278,.694,.347c0,.208,0,.278-.139,.347l-.278,.278c-.764,.764-1.528,1.111-2.708,1.111-.903,0-1.597-.278-2.083-.833-.278-.347-.486-.764-.486-1.597,0-.556,.069-1.181,.208-1.944,.208-1.389,.625-2.153,1.181-2.639,.556-.486,1.25-.694,2.014-.694,1.111,0,1.667,.347,2.431,1.111l.278,.278c.069,.069,.139,.208,.139,.347l-.764,.417-.347-.347c-.556-.556-.903-.833-1.736-.833-.486,0-.833,.139-1.111,.347-.486,.417-.694,1.111-.903,2.014-.139,.764-.208,1.319-.208,1.736,0,.556,.139,.903,.347,1.181,.278,.347,.694,.486,1.389,.486Z"/>
      <path class="cls-8" d="M170.972,77.153c.069,.069,.069,.208,.069,.278h-1.25l-1.806-3.819-1.25,.972-.486,2.917h-1.181l1.875-10.764h1.181l-1.181,6.597,3.819-3.333h1.389c0,.069,0,.208-.139,.278l-3.264,2.639,2.222,4.236Z"/>
      <path class="cls-8" d="M173.681,70h1.181l-1.319,7.5h-1.181l1.319-7.5Zm.486-3.264h1.319l-.208,1.319h-1.319l.208-1.319Z"/>
      <path class="cls-8" d="M177.361,70h1.111l-.208,1.042,.486-.417c.694-.556,1.25-.694,1.944-.694,.833,0,1.319,.278,1.667,.694,.278,.278,.417,.694,.417,1.25,0,.208,0,.486-.069,.833l-.833,4.861h-1.181l.903-5.069v-.347c0-.625-.278-1.181-1.389-1.181-1.181,0-2.014,.694-2.153,1.528l-.903,5.069h-1.181l1.389-7.569Z"/>
      <path class="cls-8" d="M189.653,77.708c-.347,1.806-1.458,3.125-3.472,3.125-1.25,0-1.944-.486-2.361-.833l-.139-.139c-.069-.069-.139-.208-.139-.347l.764-.417,.139,.139c.347,.347,.833,.694,1.806,.694,1.181,0,2.014-.486,2.292-2.222l.208-1.042-.417,.347c-.625,.556-1.111,.694-1.806,.694-.764,0-1.319-.278-1.806-.694-.278-.347-.486-.694-.486-1.597,0-.417,.069-.833,.139-1.458,.347-2.153,.764-2.778,1.319-3.264s1.25-.694,2.083-.694,1.25,.208,1.667,.694l.347,.417,.208-1.042h1.111l-1.458,7.639Zm-2.708-1.111c1.181,0,1.875-.833,2.014-1.528l.486-2.708v-.347c0-.556-.417-1.181-1.667-1.181-.625,0-1.111,.139-1.458,.417s-.625,.972-.903,2.5c-.069,.486-.139,.833-.139,1.25,0,.486,.139,.833,.347,1.111,.347,.278,.833,.486,1.319,.486Z"/>
    </g>
    <g>
      <g>
        <path class="cls-8" d="M60.972,133.542h-16.458c-.347,0-.417-.069-.417-.625v-28.472c0-.347,.139-.417,.556-.417h15.208c5.347,0,8.542,2.847,8.542,7.778,0,3.194-1.806,5.556-5.208,6.528,3.75,.417,6.042,3.819,6.042,7.222,.069,4.722-3.056,7.986-8.264,7.986Zm-3.194-23.403h-5.833v5.556h5.833c1.806,0,2.778-1.042,2.778-2.778,0-1.875-.972-2.778-2.778-2.778Zm.417,10.903h-6.25v6.389h6.25c1.806,0,2.986-1.111,2.986-3.194,.069-1.875-1.25-3.194-2.986-3.194Z"/>
        <path class="cls-8" d="M90.903,133.542h-6.181c-.278,0-.417-.208-.417-.417v-2.708c-.764,2.292-3.472,3.472-6.111,3.472-5.833,0-10.278-4.167-10.278-11.319,0-6.597,4.583-11.25,10.139-11.25,2.986,0,5.208,1.736,5.903,3.472v-2.639c0-.417,.069-.556,.347-.556h6.667c.208,0,.278,.208,.278,.417v20.972c0,.417-.069,.556-.347,.556Zm-11.319-15.486c-2.708,0-4.444,1.944-4.444,4.653,0,2.639,2.014,4.514,4.444,4.514,2.361,0,4.375-1.806,4.375-4.583,0-2.847-2.014-4.583-4.375-4.583Z"/>
        <path class="cls-8" d="M113.056,133.542h-6.597c-.278,0-.417,0-.417-.486v-12.986c0-1.944-1.25-2.847-2.708-2.847-1.736,0-2.639,.903-3.194,2.083v13.75c0,.417-.069,.486-.278,.486h-6.736c-.278,0-.347,0-.347-.625v-20.833q0-.556,.278-.556h6.389c.278,0,.486,.278,.486,.694v2.847c.903-2.569,3.472-4.167,6.806-4.167,4.514,0,6.736,2.5,6.736,7.153v14.792c.069,.625-.069,.694-.417,.694Z"/>
        <path class="cls-8" d="M137.014,133.542h-7.917c-.278,0-.417-.139-.764-.625l-3.681-6.458-2.361,2.986v3.611c0,.417-.069,.486-.347,.486h-6.667c-.278,0-.347,0-.347-.625v-28.958q0-.556,.278-.556h6.667c.278,0,.417,.069,.417,.556v16.389s4.028-5.625,5.972-8.472c.069-.208,.139-.347,.556-.347h7.5c.556,0,.278,.556,.139,.764-2.153,2.639-6.944,8.542-6.944,8.542,0,0,5.278,8.125,7.917,12.153,.208,.417,.069,.556-.417,.556Z"/>
      </g>
      <path class="cls-7" d="M205.278,133.542h-6.597c-.278,0-.417,0-.417-.486v-12.986c0-1.944-1.25-2.847-2.708-2.847-1.736,0-2.639,.903-3.194,2.083v13.75c0,.417-.069,.486-.278,.486h-6.736c-.278,0-.347,0-.347-.625v-20.833q0-.556,.278-.556h6.389c.278,0,.486,.278,.486,.694v2.847c.903-2.569,3.472-4.167,6.806-4.167,4.514,0,6.736,2.5,6.736,7.153v14.792c0,.625-.069,.694-.417,.694Z"/>
      <g>
        <path class="cls-6" d="M149.375,116.25l-11.458-4.792c-1.25,2.917-1.875,6.111-1.875,9.514h12.431c-.069-1.667,.278-3.264,.903-4.722Z"/>
        <path class="cls-3" d="M156.042,109.514l-4.792-11.458c-3.056,1.25-5.764,3.125-8.056,5.417l8.819,8.819c1.181-1.25,2.569-2.153,4.028-2.778Z"/>
        <path class="cls-4" d="M152.014,112.222l-8.819-8.819c-2.292,2.292-4.167,5-5.417,8.056l11.458,4.792c.764-1.528,1.667-2.917,2.778-4.028Z"/>
        <path class="cls-7" d="M173.264,120.972h0c0,1.667-.347,3.264-.972,4.792s-1.528,2.917-2.708,4.028c-1.111,1.111-2.5,2.083-4.028,2.708-1.458,.625-3.056,.972-4.792,.972-1.667,0-3.264-.347-4.792-.972s-2.917-1.528-4.028-2.708c-1.111-1.111-2.083-2.5-2.708-4.028-.625-1.458-.972-3.056-.972-4.792h-12.431c0,3.403,.694,6.597,1.875,9.514,1.25,3.056,3.125,5.764,5.417,8.056s5,4.167,8.056,5.417c2.917,1.25,6.111,1.875,9.514,1.875s6.597-.694,9.514-1.875c3.056-1.25,5.764-3.125,8.056-5.417,2.292-2.292,4.167-5,5.417-8.056,1.25-2.917,1.875-6.111,1.875-9.514h-12.292Z"/>
        <path class="cls-4" d="M172.292,116.25l11.458-4.792c-1.25-3.056-3.125-5.764-5.417-8.056l-8.819,8.819c1.25,1.111,2.153,2.5,2.778,4.028Z"/>
        <path class="cls-6" d="M173.264,120.972h12.431c0-3.403-.694-6.597-1.875-9.514l-11.458,4.792c.556,1.458,.903,3.056,.903,4.722Z"/>
        <path class="cls-3" d="M169.653,112.222l8.819-8.819c-2.292-2.292-5-4.167-8.056-5.417l-4.792,11.458c1.458,.694,2.847,1.597,4.028,2.778Z"/>
        <path class="cls-5" d="M160.833,96.111c-3.403,0-6.597,.694-9.514,1.875l4.792,11.458c1.458-.625,3.056-.972,4.792-.972,1.667,0,3.264,.347,4.792,.972l4.792-11.458c-3.056-1.181-6.25-1.875-9.653-1.875Z"/>
      </g>
    </g>
    <g>
      <g>
        <path class="cls-8" d="M96.111,221.181c-2.014,0-3.958-.417-5.833-1.25-3.472-1.528-6.111-4.375-7.431-7.917-1.319-3.542-1.25-7.431,.347-10.903,1.528-3.472,4.375-6.111,7.917-7.431l2.5,6.528c-1.806,.694-3.264,2.014-4.028,3.819-.764,1.736-.833,3.75-.139,5.556s2.014,3.264,3.819,4.028c1.736,.764,3.75,.833,5.556,.139s3.264-2.014,4.028-3.819c.764-1.736,.833-3.75,.139-5.556-.694-1.875-2.083-3.333-3.889-4.097l2.778-6.389c3.542,1.528,6.319,4.375,7.708,8.056,1.319,3.542,1.25,7.431-.347,10.903-1.528,3.472-4.375,6.111-7.917,7.431-1.806,.625-3.542,.903-5.208,.903Z"/>
        <path class="cls-1" d="M98.958,200.347c-1.736-.764-3.681-.764-5.417-.139l-2.5-6.528c3.472-1.319,7.222-1.25,10.694,.208l-2.778,6.458Z"/>
      </g>
      <g>
        <path class="cls-1" d="M116.319,199.097c.417,0,.694-.208,.903-.417l.139-.139,.694,.347q0,.069-.069,.139l-.069,.069c-.556,.556-.903,.764-1.667,.764-.625,0-1.042-.208-1.389-.486-.417-.417-.556-.903-.556-1.736s.139-1.319,.556-1.667c.278-.347,.764-.556,1.458-.556,.833,0,1.319,.417,1.597,.694l.139,.139q.069,.069,.069,.139l-.694,.347-.208-.208c-.208-.139-.417-.417-.833-.417-.347,0-.625,.139-.833,.347s-.278,.417-.278,1.111,.139,.972,.347,1.181c.069,.208,.347,.347,.694,.347Z"/>
        <path class="cls-1" d="M119.653,195.278v.694h-.833v-.694h.833Zm-.069,1.319v3.194h-.833v-3.194h.833Z"/>
        <path class="cls-1" d="M121.667,199.861c-.625,0-.972-.417-.972-.903v-1.736h-.486v-.625h.486v-.764h.833v.764h.694v.625h-.694v1.597c0,.208,.139,.347,.278,.347h.278v.556c0,.069-.208,.139-.417,.139h0Z"/>
        <path class="cls-1" d="M123.75,195.278v.694h-.833v-.694h.833Zm0,1.319v3.194h-.833v-3.194h.833Z"/>
        <path class="cls-1" d="M124.931,196.944c.278-.278,.625-.417,1.111-.417,.417,0,.764,.139,1.042,.417s.417,.625,.417,1.181v.278h-2.153v.139c0,.417,.278,.694,.694,.694,.347,0,.556-.208,.694-.347l.069-.069,.556,.278c0,.069,0,.139-.069,.139l-.139,.139c-.208,.208-.556,.486-1.181,.486-.556,0-.903-.139-1.111-.347-.278-.278-.417-.625-.417-1.319,.139-.625,.278-.972,.486-1.25Zm1.736,.903v-.139c0-.208-.139-.625-.625-.625-.556,0-.694,.347-.694,.625v.139h1.319Z"/>
        <path class="cls-1" d="M128.194,199.306l-.069-.069q-.069-.069-.069-.139l.556-.278,.069,.069c.208,.208,.556,.417,.972,.417s.556-.139,.556-.347-.208-.347-.486-.347l-.556-.069c-.486-.069-.972-.347-.972-.903s.417-1.042,1.319-1.042c.556,0,.972,.208,1.181,.486l.069,.069q.069,.069,.069,.139l-.556,.278-.069-.069c-.208-.208-.417-.347-.764-.347s-.556,.139-.556,.347,.208,.278,.556,.347l.556,.069c.417,.069,.903,.347,.903,.903s-.417,1.042-1.389,1.042c-.625,0-1.042-.278-1.319-.556Z"/>
        <path class="cls-1" d="M134.653,195.833h-.417c-.139,0-.208,.069-.208,.208v.556h.625v.625h-.625v2.569h-.833v-2.569h-.486v-.625h.486v-.486c0-.486,.347-.903,.972-.903h0c.208,0,.347,.069,.417,.069v.556h.069Z"/>
        <path class="cls-1" d="M137.708,196.944c.208,.278,.347,.556,.347,1.25,0,.764-.139,1.042-.417,1.319-.278,.208-.625,.347-1.111,.347s-.833-.139-1.111-.347c-.278-.208-.417-.556-.417-1.319,0-.694,.139-1.042,.347-1.25,.278-.278,.625-.417,1.111-.417,.625,0,.972,.139,1.25,.417Zm-.694,2.083c.139-.139,.208-.278,.208-.903,0-.556-.069-.694-.208-.833-.069-.139-.278-.139-.486-.139-.278,0-.417,.069-.486,.139-.139,.139-.208,.278-.208,.833s.069,.764,.208,.903c.069,.069,.278,.139,.486,.139,.278,0,.417,0,.486-.139Z"/>
        <path class="cls-1" d="M139.722,197.778v2.014h-.833v-3.194h.694v.486l.069-.069c.069-.139,.347-.486,.694-.486h.069c.069,0,.139,0,.208,.069v.764h-.486c-.208,0-.417,.139-.417,.417Z"/>
        <path class="cls-1" d="M114.514,206.25v-4.306h3.056v.694h-2.292v1.042h1.944v.694h-1.944v1.806h-.764v.069Z"/>
        <path class="cls-1" d="M119.236,201.944v4.306h-.833v-4.306h.833Z"/>
        <path class="cls-1" d="M124.028,201.944v4.306h-.972l-1.458-2.431-.278-.625h-.069v3.056h-.833v-4.306h1.042l1.389,2.431,.278,.625h.069v-3.056h.833Z"/>
        <path class="cls-1" d="M127.639,205.347h-1.806v.139l-.278,.764h-.833l1.597-4.306h.972l1.597,4.306h-.903l-.278-.764-.069-.139Zm-1.319-.694h1.111l-.069-.139-.417-1.111-.139-.486h-.069l-.139,.486-.417,1.111-.069,.139h.208Z"/>
        <path class="cls-1" d="M133.194,201.944v4.306h-.972l-1.458-2.431-.278-.625h-.069v3.056h-.833v-4.306h1.042l1.389,2.431,.278,.625h.069v-3.056h.833Z"/>
        <path class="cls-1" d="M136.181,205.556c.417,0,.694-.208,.903-.417l.139-.139,.694,.347q0,.069-.069,.139l-.069,.069c-.556,.556-.903,.764-1.667,.764-.625,0-1.042-.208-1.389-.486-.417-.417-.556-.903-.556-1.736s.139-1.319,.556-1.667c.278-.347,.764-.556,1.458-.556,.833,0,1.319,.417,1.597,.694l.139,.139q.069,.069,.069,.139l-.694,.347-.208-.208c-.208-.139-.417-.417-.833-.417-.347,0-.625,.139-.833,.347s-.278,.417-.278,1.111,.139,.972,.347,1.181c.069,.208,.347,.347,.694,.347Z"/>
        <path class="cls-1" d="M139.583,201.944v4.306h-.833v-4.306h.833Z"/>
        <path class="cls-1" d="M143.194,205.347h-1.806v.139l-.278,.764h-.903l1.597-4.306h.972l1.597,4.306h-.903l-.278-.764v-.139Zm-1.319-.694h1.111l-.069-.139-.417-1.111-.139-.486h0l-.139,.486-.417,1.111-.069,.139h.139Z"/>
        <path class="cls-1" d="M146.042,205.486h1.944v.694h-2.778v-4.306h.833v3.611Z"/>
        <path class="cls-1" d="M117.778,212.639h-3.264v-4.306h3.194v.694h-2.431v1.042h2.153v.694h-2.153v1.042h2.5v.833Z"/>
        <path class="cls-1" d="M122.431,209.653h0l-.208,.556-.764,1.944h-.625l-.764-1.944-.139-.556h-.069v3.056h-.833v-4.306h1.111l1.042,2.569h0l1.042-2.569h1.111v4.306h-.833v-2.5l-.069-.556Z"/>
        <path class="cls-1" d="M126.667,211.111h-1.111v1.528h-.833v-4.306h1.944c.556,0,.903,.139,1.181,.417,.208,.208,.347,.417,.347,.972,0,.486-.139,.764-.347,.972-.278,.278-.556,.417-1.181,.417Zm0-2.014h-1.111v1.25h1.111c.417,0,.625-.208,.625-.625,0-.417-.208-.625-.625-.625Z"/>
        <path class="cls-1" d="M132.5,208.889c.347,.347,.556,.764,.556,1.597s-.208,1.319-.556,1.736c-.347,.347-.833,.556-1.458,.556-.694,0-1.111-.208-1.458-.556-.417-.417-.556-.903-.556-1.736s.139-1.25,.556-1.597c.347-.347,.833-.625,1.528-.625,.556,0,1.111,.278,1.389,.625Zm-.694,2.778c.208-.208,.347-.556,.347-1.181,0-.694-.069-.903-.347-1.111-.208-.208-.486-.347-.833-.347-.417,0-.694,.139-.833,.347-.208,.208-.347,.417-.347,1.111s.139,.972,.347,1.181c.208,.208,.486,.278,.833,.278,.417,.069,.694-.069,.833-.278Z"/>
        <path class="cls-1" d="M135.208,211.528h0l.139-.486,.625-2.639h1.042l.625,2.639,.069,.486h.069l.069-.486,.625-2.639h.903l-1.181,4.306h-.972l-.625-2.639-.069-.486h-.069l-.069,.486-.625,2.639h-1.042l-1.181-4.306h.903l.625,2.639,.139,.486Z"/>
        <path class="cls-1" d="M143.75,212.639h-3.264v-4.306h3.194v.694h-2.431v1.042h2.153v.694h-2.153v1.042h2.5v.833Z"/>
        <path class="cls-1" d="M147.569,210.833l1.042,1.667c0,.069,.069,.069,.069,.139h-.972l-.972-1.667h-.833v1.667h-.833v-4.306h1.944c.556,0,.972,.139,1.181,.417,.208,.208,.278,.417,.278,.833,0,.625-.278,1.111-.903,1.25Zm-.625-1.736h-1.181v1.111h1.181c.417,0,.625-.208,.625-.556s-.208-.556-.625-.556Z"/>
        <path class="cls-1" d="M153.125,209.653h0l-.208,.556-.764,1.944h-.625l-.764-1.944-.139-.556h-.069v3.056h-.833v-4.306h1.111l1.042,2.569h0l1.042-2.569h1.111v4.306h-.833v-2.5l-.069-.556Z"/>
        <path class="cls-1" d="M158.681,212.639h-3.264v-4.306h3.194v.694h-2.431v1.042h2.153v.694h-2.153v1.042h2.5v.833Z"/>
        <path class="cls-1" d="M163.472,208.403v4.306h-.972l-1.458-2.431-.278-.625h-.069v3.056h-.833v-4.306h1.042l1.389,2.431,.278,.625h.069v-3.056h.833Z"/>
        <path class="cls-1" d="M165.833,209.097h-1.389v-.694h3.542v.694h-1.389v3.542h-.903v-3.472l.139-.069Z"/>
        <path class="cls-8" d="M114.444,219.097v-4.028h2.917v.694h-2.083v.972h1.806v.694h-1.806v1.667h-.833Z"/>
        <path class="cls-8" d="M119.931,218.681l-.208,.208c-.139,.139-.347,.278-.694,.278s-.556-.069-.764-.278-.278-.486-.278-.903v-1.875h.764v2.014c0,.208,.139,.486,.556,.486,.347,0,.556-.139,.556-.486v-2.014h.764v2.986h-.694v-.417h0Z"/>
        <path class="cls-8" d="M122.292,216.458l.208-.208c.139-.139,.347-.278,.694-.278s.556,.069,.764,.278,.278,.486,.278,.903v1.875h-.764v-2.014c0-.208-.139-.486-.556-.486-.347,0-.556,.139-.556,.486v2.014h-.833v-2.986h.694v.417h.069Z"/>
        <path class="cls-8" d="M126.944,214.861h.764v4.236h-.694v-.347l-.069,.069c-.208,.208-.347,.347-.764,.347-.347,0-.625-.069-.833-.278s-.347-.556-.347-1.25,.139-1.042,.347-1.25,.486-.347,.833-.347,.556,.139,.694,.278l.139,.139v-1.597h-.069Zm-1.042,3.542c.069,.069,.208,.139,.417,.139,.417,0,.625-.208,.625-.556v-.764c0-.347-.208-.556-.625-.556-.208,0-.347,.069-.417,.139-.139,.139-.139,.347-.139,.764-.069,.486,0,.694,.139,.833Z"/>
      </g>
    </g>
    <g>
      <g>
        <path class="cls-7" d="M69.722,166.736c-.833,.486-2.222,.764-3.472,.764-2.917,0-4.097-1.806-4.097-4.375,0-3.542,2.014-6.111,5.764-6.111,1.181,0,2.361,.278,2.986,.764l-.347,2.431-1.181-.069-.069-1.319c0-.139,0-.208-.139-.278-.278-.139-.833-.278-1.458-.278-2.292,0-3.889,1.667-3.889,4.722,0,2.083,.903,3.194,2.708,3.194,.625,0,1.319-.069,1.736-.278,.139-.069,.139-.139,.208-.278l.417-1.319h1.111l-.278,2.431Z"/>
        <path class="cls-7" d="M76.597,166.875c-.833,.417-1.736,.625-2.708,.625-2.083,0-2.847-1.25-2.847-2.917,0-2.708,1.736-4.583,4.028-4.583,1.458,0,2.083,.694,2.083,1.736,0,2.014-2.639,2.569-4.444,2.778,0,1.111,.347,1.736,1.597,1.736,.625,0,1.25-.139,2.014-.486l.278,1.111Zm-.903-5c0-.417-.278-.694-.833-.694-1.042,0-1.875,.972-2.083,2.222,.694-.069,2.917-.417,2.917-1.528Z"/>
        <path class="cls-7" d="M77.361,167.361l.139-.833,.694-.069c.208,0,.208-.069,.278-.278l.625-4.653c0-.139,0-.278-.139-.278l-.694-.208,.139-.833h2.361l-.208,1.319c.486-.694,1.389-1.458,2.292-1.458,.278,0,.694,.069,.972,.139l-.278,2.292-1.25-.069-.069-.833q0-.139-.139-.139c-.347,0-.972,.486-1.597,1.181l-.486,3.611c0,.208,0,.278,.208,.278l1.25,.139-.139,.833h-3.958v-.139Z"/>
        <path class="cls-7" d="M88.472,167.014c-.556,.278-1.389,.486-2.083,.486-1.25,0-1.806-.486-1.806-1.528v-.486l.556-4.097c0-.069,0-.139-.069-.139h-1.042l.139-1.042c1.111-.139,1.597-.625,1.944-2.083h.972l-.278,1.806c0,.069,0,.139,.139,.139h1.944l-.139,1.181h-2.083l-.486,3.819c0,.208-.069,.347-.069,.486,0,.486,.208,.694,.833,.694,.417,0,.833-.139,1.25-.278l.278,1.042Z"/>
        <path class="cls-7" d="M89.861,167.361l-.069-.069,.347-1.736,.556-4.097c0-.139,0-.278-.139-.278l-.694-.208,.139-.833h2.5l-.833,6.042c0,.208,0,.278,.208,.278l.764,.139-.139,.833h-2.639v-.069Zm.903-9.444c0-.694,.417-1.181,1.181-1.181,.556,0,.903,.347,.903,.833,0,.694-.417,1.25-1.181,1.25-.556-.069-.903-.417-.903-.903Z"/>
        <path class="cls-7" d="M98.542,167.361l-.069-.069,.347-1.736,.556-4.097c0-.139,0-.208-.208-.208h-2.778l-1.25,9.028h-1.597l1.25-8.889c0-.069,0-.139-.069-.139h-.972l.139-1.181h1.042l.139-1.111c.278-1.736,1.319-2.361,2.917-2.361,1.25,0,2.292,.486,2.847,.833l-.625,1.042c-.486-.278-1.319-.625-2.083-.625-.903,0-1.389,.417-1.458,1.25l-.139,.833c0,.069,0,.139,.069,.139h4.444l-.833,6.042c0,.208,0,.278,.208,.278l.764,.139-.139,.833h-2.5Z"/>
        <path class="cls-7" d="M107.778,166.875c-.833,.417-1.736,.625-2.708,.625-2.083,0-2.847-1.25-2.847-2.917,0-2.708,1.736-4.583,4.028-4.583,1.458,0,2.083,.694,2.083,1.736,0,2.014-2.639,2.569-4.444,2.778,0,1.111,.347,1.736,1.597,1.736,.625,0,1.25-.139,2.014-.486l.278,1.111Zm-.903-5c0-.417-.278-.694-.833-.694-1.042,0-1.875,.972-2.083,2.222,.694-.069,2.917-.417,2.917-1.528Z"/>
        <path class="cls-7" d="M113.611,167.361l.139-1.181h-.069c-.764,.764-1.528,1.389-2.569,1.389-1.319,0-2.153-.833-2.153-2.708,0-2.014,.833-4.861,3.472-4.861,.833,0,1.528,.347,1.944,.694l.347-2.569c0-.208,0-.278-.139-.278l-.694-.208,.139-.833h2.431l-1.319,9.375c0,.208,0,.278,.208,.278l.694,.069-.139,.833h-2.292Zm.625-5.486c-.347-.347-.972-.625-1.528-.625-1.667,0-2.083,2.153-2.083,3.472,0,1.042,.347,1.458,.972,1.458,.764,0,1.597-.833,2.222-1.458l.417-2.847Z"/>
        <path class="cls-7" d="M119.722,167.361v-1.042l1.875-1.806c1.389-1.319,2.222-2.014,2.222-2.986,0-.694-.347-1.181-1.319-1.181-.903,0-1.389,.278-1.389,1.389l-1.458-.139c0-2.083,1.597-2.431,2.917-2.431,2.083,0,2.847,.903,2.847,2.222,0,1.389-1.111,2.361-2.153,3.403l-1.597,1.528h2.639q.139,0,.208-.139l.208-1.181h1.181v2.431h-6.181v-.069Z"/>
        <path class="cls-7" d="M126.667,163.403c0-2.431,.903-4.236,3.611-4.236s3.403,1.736,3.403,4.028c0,2.431-.833,4.306-3.542,4.306-2.778,0-3.472-1.736-3.472-4.097Zm5.347-.139c0-1.944-.417-2.917-1.736-2.917-1.389,0-1.875,1.042-1.875,3.056,0,1.875,.417,2.917,1.806,2.917,1.319,0,1.806-1.111,1.806-3.056Z"/>
        <path class="cls-7" d="M134.444,167.361v-1.042l1.875-1.806c1.389-1.319,2.222-2.014,2.222-2.986,0-.694-.347-1.181-1.319-1.181-.903,0-1.389,.278-1.389,1.389l-1.458-.139c0-2.083,1.597-2.431,2.917-2.431,2.083,0,2.847,.903,2.847,2.222,0,1.389-1.111,2.361-2.153,3.403l-1.597,1.528h2.639q.139,0,.208-.139l.208-1.181h1.181v2.431h-6.181v-.069Z"/>
        <path class="cls-7" d="M145.417,163.681c1.181,.208,1.806,.903,1.806,2.153,0,1.736-1.25,2.708-3.194,2.708-1.389,0-2.5-.486-3.194-1.25l.903-.972c.556,.556,1.181,.972,2.153,.972,.903,0,1.667-.347,1.667-1.458,0-.972-.625-1.458-1.736-1.458-.347,0-.625,0-1.042,.069v-1.181l.764-.069c1.181-.139,1.736-.694,1.736-1.667,0-.694-.347-1.25-1.319-1.25-.903,0-1.389,.278-1.389,1.389l-1.458-.139c0-2.083,1.597-2.431,2.986-2.431,2.014,0,2.847,.903,2.847,2.292,.069,1.181-.556,1.875-1.528,2.292h0Z"/>
        <path class="cls-7" d="M150.486,164.028v-1.181h7.014v1.181h-7.014Z"/>
        <path class="cls-7" d="M160.556,167.361v-1.042l1.875-1.806c1.389-1.319,2.222-2.014,2.222-2.986,0-.694-.347-1.181-1.319-1.181-.903,0-1.389,.278-1.389,1.389l-1.458-.139c0-2.083,1.597-2.431,2.917-2.431,2.083,0,2.847,.903,2.847,2.222,0,1.389-1.111,2.361-2.153,3.403l-1.597,1.528h2.639q.139,0,.208-.139l.208-1.181h1.181v2.431h-6.181v-.069Z"/>
        <path class="cls-7" d="M167.431,163.403c0-2.431,.903-4.236,3.611-4.236s3.403,1.736,3.403,4.028c0,2.431-.833,4.306-3.542,4.306-2.778,0-3.472-1.736-3.472-4.097Zm5.347-.139c0-1.944-.417-2.917-1.736-2.917-1.389,0-1.875,1.042-1.875,3.056,0,1.875,.417,2.917,1.806,2.917s1.806-1.111,1.806-3.056Z"/>
        <path class="cls-7" d="M175.278,167.361v-1.042l1.875-1.806c1.389-1.319,2.222-2.014,2.222-2.986,0-.694-.347-1.181-1.319-1.181-.903,0-1.389,.278-1.389,1.389l-1.458-.139c0-2.083,1.597-2.431,2.917-2.431,2.083,0,2.847,.903,2.847,2.222,0,1.389-1.111,2.361-2.153,3.403l-1.597,1.528h2.639q.139,0,.208-.139l.208-1.181h1.181v2.431h-6.181v-.069Z"/>
        <path class="cls-7" d="M185.833,168.264v-1.944h-4.097v-1.111l3.056-6.042,1.319,.625-2.708,5.278h2.431v-2.639l1.528-.139v2.778h1.25v1.25h-1.25v1.944h-1.528Z"/>
      </g>
      <g>
        <path class="cls-9" d="M97.5,177.639c-.139-.069-.347-.069-.625-.069-.556,0-.833,.278-.833,.556,0,.417,.486,.556,.972,.625,.625,.139,1.25,.347,1.25,1.181,0,.903-.764,1.181-1.528,1.181-.625,0-1.25-.208-1.389-.278v-.972h.486l.069,.556q0,.069,.069,.139c.069,.069,.347,.139,.764,.139,.486,0,.833-.208,.833-.625,0-.486-.417-.556-.903-.694-.625-.139-1.25-.278-1.25-1.111,0-.903,.764-1.181,1.528-1.181,.556,0,1.042,.139,1.181,.208v.972h-.486l-.069-.486q0-.069-.069-.139Z"/>
        <path class="cls-9" d="M99.167,180.625c.139,0,.139-.069,.139-.139v-2.569c0-.069,0-.139-.069-.139l-.417-.139,.069-.417h1.181v3.333q0,.139,.139,.139l.486,.069v.417h-1.944v-.417l.417-.139Zm.347-4.306c-.347,0-.486-.208-.486-.486s.208-.486,.486-.486,.486,.208,.486,.486-.139,.486-.486,.486Z"/>
        <path class="cls-9" d="M103.889,180.625c.069,0,.139-.069,.139-.139v-1.806c0-.486-.069-.972-.694-.972-.417,0-.833,.208-1.181,.486v2.292q0,.139,.139,.139l.417,.069v.417h-1.736v-.417l.347-.069c.139,0,.139-.069,.139-.139v-2.569c0-.069,0-.139-.069-.139l-.417-.139,.069-.417h.972l.069,.417h0c.417-.278,.833-.556,1.389-.556,.903,0,1.181,.556,1.181,1.389v2.014q0,.139,.139,.139l.417,.069v.417h-1.736v-.417l.417-.069Z"/>
        <path class="cls-9" d="M107.5,181.181c-1.319,0-1.875-.833-1.875-2.014,0-1.458,.833-2.083,2.014-2.083,.556,0,.972,.139,1.181,.208v1.042h-.486l-.069-.486q0-.069-.069-.139c-.139-.069-.278-.069-.486-.069-.694,0-1.25,.417-1.25,1.458s.486,1.458,1.25,1.458c.347,0,.764-.139,.972-.278l.208,.486c-.347,.278-.833,.417-1.389,.417Z"/>
        <path class="cls-9" d="M111.042,181.181c-1.389,0-1.806-.903-1.806-2.014,0-1.389,.764-2.014,1.736-2.014,.903,0,1.597,.486,1.597,1.806v.417h-2.569c0,.764,.347,1.319,1.181,1.319,.417,0,.694-.069,1.111-.278l.208,.486c-.486,.139-.903,.278-1.458,.278Zm-.069-3.542c-.486,0-.972,.278-.972,1.111h1.875c-.069-.903-.486-1.111-.903-1.111Z"/>
        <path class="cls-9" d="M119.722,180.625c.139,0,.139-.069,.139-.139v-3.819l-1.528,3.125h-.764l-1.458-3.125v3.75q0,.139,.139,.139l.694,.069v.417h-2.083v-.417l.486-.069c.139,0,.139-.069,.139-.139v-4.306q0-.139-.139-.139l-.486-.069v-.417h1.458l1.667,3.611,1.736-3.611h1.458v.417l-.486,.069q-.139,0-.139,.139v4.306c0,.069,0,.139,.139,.139l.486,.069v.417h-2.083v-.417h.625Z"/>
        <path class="cls-9" d="M124.306,180.556c-.347,.347-.764,.625-1.389,.625-.972,0-1.111-.625-1.111-1.042,0-.764,.486-1.111,1.389-1.181l1.042-.069v-.417c0-.556-.139-.833-.764-.833-.486,0-.833,0-.833,.556l-.625-.069c0-.972,.903-1.042,1.458-1.042,1.111,0,1.458,.278,1.458,1.389v2.014q0,.139,.139,.139l.417,.069v.417h-1.042l-.139-.556h0Zm-1.736-.486c0,.417,.208,.556,.556,.556,.417,0,.903-.347,1.181-.556v-.694l-.833,.069c-.694,0-.903,.208-.903,.625Z"/>
        <path class="cls-9" d="M126.25,180.625c.139,0,.139-.069,.139-.139v-2.569c0-.069,0-.139-.069-.139l-.417-.139,.069-.417h.972l.069,.556h0c.278-.278,.625-.625,1.181-.625,.208,0,.417,0,.556,.069v1.181h-.556l-.069-.556q0-.069-.069-.069c-.347,0-.764,.347-.903,.486v2.292q0,.139,.139,.139l.694,.069v.417h-2.014v-.417l.278-.139Z"/>
        <path class="cls-9" d="M130.903,181.181c-1.319,0-1.875-.833-1.875-2.014,0-1.458,.833-2.083,2.014-2.083,.556,0,.972,.139,1.181,.208v1.042h-.486l-.069-.486q0-.069-.069-.139c-.139-.069-.278-.069-.486-.069-.694,0-1.25,.417-1.25,1.458s.486,1.458,1.25,1.458c.347,0,.764-.139,.972-.278l.208,.486c-.417,.278-.903,.417-1.389,.417Z"/>
        <path class="cls-9" d="M135.486,180.625c.069,0,.139-.069,.139-.139v-1.806c0-.556-.069-1.042-.625-1.042-.486,0-.903,.278-1.181,.486v2.292q0,.139,.139,.139l.417,.069v.417h-1.736v-.417l.347-.069c.139,0,.139-.069,.139-.139v-4.444c0-.069,0-.139-.069-.139l-.486-.139,.069-.417h1.181v2.292c.347-.278,.764-.486,1.389-.486,.833,0,1.181,.556,1.181,1.389v2.014q0,.139,.139,.139l.417,.069v.417h-1.736v-.417l.278-.069Z"/>
        <path class="cls-9" d="M139.861,179.583c.764-.694,1.25-1.181,1.25-1.667s-.208-.694-.833-.694c-.556,0-.833,.139-.833,.764l-.625-.069c0-1.111,.833-1.25,1.528-1.25,1.111,0,1.528,.486,1.528,1.181,0,.833-.625,1.319-1.25,1.944l-.903,.833h1.597q.069,0,.139-.069l.139-.625h.486v1.25h-3.194v-.486l.972-1.111Z"/>
        <path class="cls-9" d="M142.5,178.889c0-1.25,.417-2.292,1.944-2.292,1.458,0,1.806,.972,1.806,2.222s-.417,2.361-1.875,2.361c-1.528,0-1.875-1.042-1.875-2.292Zm2.986,0c0-1.042-.208-1.667-1.111-1.667s-1.181,.625-1.181,1.736c0,.972,.278,1.667,1.111,1.667,.903,0,1.181-.694,1.181-1.736Z"/>
        <path class="cls-9" d="M147.708,179.583c.764-.694,1.25-1.181,1.25-1.667s-.208-.694-.833-.694c-.556,0-.833,.139-.833,.764l-.625-.069c0-1.111,.833-1.25,1.528-1.25,1.111,0,1.528,.486,1.528,1.181,0,.833-.625,1.319-1.25,1.944l-.903,.833h1.597q.069,0,.139-.069l.139-.625h.486v1.25h-3.194v-.486l.972-1.111Z"/>
        <path class="cls-9" d="M150.972,180.625c.139,0,.139-.069,.139-.139v-2.986q0-.139-.139-.139l-.694-.139,.069-.417h1.458v3.75q0,.139,.139,.139l.694,.069v.417h-2.361v-.417l.694-.139Z"/>
      </g>
    </g>
  </g>
</svg>