<svg xmlns="http://www.w3.org/2000/svg" width="337.508" height="71.125" viewBox="0 0 337.508 71.125">
  <title>logo_vw_student</title>
  <g>
    <g>
      <g>
        <path d="M120.686,69.078a6.268,6.268,0,0,1-4.9-1.826l1.4-1.381a4.567,4.567,0,0,0,3.538,1.323c1.807,0,2.857-.778,2.857-2.119a1.866,1.866,0,0,0-.544-1.438,2.412,2.412,0,0,0-1.517-.584l-1.632-.232a4.749,4.749,0,0,1-2.623-1.108,3.439,3.439,0,0,1-1.012-2.642c0-2.413,1.75-4.065,4.627-4.065a5.76,5.76,0,0,1,4.3,1.576L123.834,57.9a4.058,4.058,0,0,0-3.012-1.069c-1.633,0-2.527.934-2.527,2.158a1.646,1.646,0,0,0,.525,1.282,3.1,3.1,0,0,0,1.555.642l1.574.233a4.581,4.581,0,0,1,2.585,1.029,3.621,3.621,0,0,1,1.128,2.84C125.662,67.563,123.582,69.078,120.686,69.078Z" transform="translate(-1.246 -1.937)" style="fill: #4ab5e2"/>
        <path d="M134.827,57.008V68.961h-2.1V57.008h-3.81V55.123h9.719v1.885Z" transform="translate(-1.246 -1.937)" style="fill: #4ab5e2"/>
        <path d="M147.383,69.078a4.69,4.69,0,0,1-4.956-4.781V55.123h2.1V64.2a2.87,2.87,0,1,0,5.735,0V55.123h2.1V64.3A4.707,4.707,0,0,1,147.383,69.078Z" transform="translate(-1.246 -1.937)" style="fill: #4ab5e2"/>
        <path d="M165.56,67.658a4.932,4.932,0,0,1-3.577,1.3h-4.858V55.123h4.858a4.94,4.94,0,0,1,3.577,1.3c1.5,1.5,1.4,3.518,1.4,5.52S167.057,66.164,165.56,67.658Zm-1.439-9.716a2.991,2.991,0,0,0-2.352-.934h-2.544V67.076h2.544a2.993,2.993,0,0,0,2.352-.931c.721-.8.74-2.293.74-4.2S164.842,58.739,164.121,57.942Z" transform="translate(-1.246 -1.937)" style="fill: #4ab5e2"/>
        <path d="M171.412,68.961V55.123h8.844v1.885h-6.744v4.043h5.754v1.867h-5.754v4.158h6.744v1.885Z" transform="translate(-1.246 -1.937)" style="fill: #4ab5e2"/>
        <path d="M192.889,68.961l-6.4-9.736v9.736h-2.1V55.123h1.924l6.395,9.719V55.123h2.1V68.961Z" transform="translate(-1.246 -1.937)" style="fill: #4ab5e2"/>
        <path d="M204.627,57.008V68.961h-2.1V57.008h-3.808V55.123h9.718v1.885Z" transform="translate(-1.246 -1.937)" style="fill: #4ab5e2"/>
        <path d="M223.322,68.242a3.339,3.339,0,0,1-2.334.836,3.062,3.062,0,0,1-2.7-1.263v1.146h-1.4V55.123h1.4v5.385a3.073,3.073,0,0,1,2.7-1.225,3.343,3.343,0,0,1,2.334.836c.971.971,1.166,2.565,1.166,4.061S224.293,67.272,223.322,68.242ZM220.7,60.528c-2.08,0-2.41,1.789-2.41,3.652s.33,3.654,2.41,3.654,2.391-1.787,2.391-3.654S222.777,60.528,220.7,60.528Z" transform="translate(-1.246 -1.937)" style="fill: #006aab"/>
        <path d="M229.666,71.276a2.766,2.766,0,0,1-.68,1.127,2.627,2.627,0,0,1-1.865.66h-.6V71.821h.429c.971,0,1.262-.313,1.572-1.188l.682-1.865L225.76,59.4h1.515l2.625,7.677,2.606-7.677h1.515Z" transform="translate(-1.246 -1.937)" style="fill: #006aab"/>
        <path d="M246.027,63.266h-3.674v5.7h-1.476V55.123h5.15a4.076,4.076,0,1,1,0,8.143Zm-.136-6.82h-3.538v5.5h3.538a2.756,2.756,0,1,0,0-5.5Z" transform="translate(-1.246 -1.937)" style="fill: #006aab"/>
        <path d="M261.6,68.961l-7.347-11.1v11.1h-1.477V55.123h1.4l7.345,11.061V55.123H263V68.961Z" transform="translate(-1.246 -1.937)" style="fill: #006aab"/>
        <path d="M270.789,69.078a4.929,4.929,0,0,1-3.537-1.437c-1.3-1.3-1.3-2.664-1.3-5.6s0-4.3,1.3-5.6a4.932,4.932,0,0,1,3.537-1.44,4.67,4.67,0,0,1,4.8,4.121h-1.516a3.27,3.27,0,0,0-3.285-2.8,3.339,3.339,0,0,0-2.391.973c-.873.893-.97,1.846-.97,4.742s.1,3.848.97,4.742a3.392,3.392,0,0,0,5.715-1.828h1.477A4.666,4.666,0,0,1,270.789,69.078Z" transform="translate(-1.246 -1.937)" style="fill: #006aab"/>
        <path d="M288.3,68.961h-5.383V55.123h5.209c2.41,0,4.082,1.381,4.082,3.694a3.176,3.176,0,0,1-2.041,3.033,3.343,3.343,0,0,1,2.254,3.283C292.418,67.641,290.746,68.961,288.3,68.961Zm-.291-12.515h-3.615v4.8h3.615c1.535,0,2.722-.759,2.722-2.41S289.541,56.446,288.006,56.446Zm.156,6.121h-3.771v5.074h3.771a2.548,2.548,0,1,0,0-5.074Z" transform="translate(-1.246 -1.937)" style="fill: #006aab"/>
        <path d="M303.7,68.961l-1.107-3.129h-6.047l-1.106,3.129h-1.576l5.094-13.838H300.2l5.072,13.838Zm-4.1-11.719-2.606,7.309h5.17Z" transform="translate(-1.246 -1.937)" style="fill: #006aab"/>
        <path d="M316.281,68.961l-7.347-11.1v11.1h-1.477V55.123h1.4L316.2,66.184V55.123h1.477V68.961Z" transform="translate(-1.246 -1.937)" style="fill: #006aab"/>
        <path d="M329.639,68.961,325.422,61.6l-2.916,3.5v3.867h-1.477V55.123h1.477v7.95l6.453-7.95h1.809l-4.356,5.346,4.977,8.492Z" transform="translate(-1.246 -1.937)" style="fill: #006aab"/>
      </g>
      <path d="M197.584,43.551V38.672h-2.219c-1.467,0-2.041-.711-2.041-2.082V11.968h-5.769V36.944c0,3.283,2,6.607,6.744,6.607Zm-22.672-8.516a3.793,3.793,0,0,1-.844,2.926c-1.017.975-2.039,1.11-3.636,1.11-2.262,0-3.331-1.063-3.331-2.661,0-1.64,1.155-2.617,3.239-2.617h4.572Zm5.766,8.516V28.336c0-5.41-3.369-8.164-9.848-8.164-3.859,0-6.078.709-8.34,3.2l3.684,3.59a4.964,4.964,0,0,1,4.435-1.908c3.061,0,4.3,1.109,4.3,3.639v1.154h-5.459c-5.365,0-7.894,3.016-7.894,6.7a7.385,7.385,0,0,0,1.908,5.188,7.874,7.874,0,0,0,5.9,2.043,7.017,7.017,0,0,0,5.678-2.221v2Zm-24.842,0V20.438h-5.769V34.412c0,3.155-2.041,4.215-3.86,4.215s-3.814-1.06-3.814-4.215V20.438h-5.768V35.213a8.574,8.574,0,0,0,2.353,6.567,7.5,7.5,0,0,0,5.457,2.039,7.915,7.915,0,0,0,5.766-2.4v2.127Zm-25.068,0V38.672h-2.084c-1.374,0-2-.754-2-2.082v-11.1h4.081V21.106h-4.081V14.273h-5.766v6.833H118.48v4.388h2.441v11.45a6.267,6.267,0,0,0,6.7,6.607Zm-14.549-21.2a6.973,6.973,0,0,0-5.457-2.176,7.821,7.821,0,0,0-5.811,2.485V20.438H99.316V43.551h5.769V29.625c0-2.929,1.952-4.261,3.724-4.261a3.855,3.855,0,0,1,3.061,1.373ZM92.043,11.788h-5.9v4.7h5.9ZM92,20.438H86.232V43.551H92Zm-10.03-8.47H75.536L69.194,32.551,62.85,11.968H56.459L66.888,43.551H71.5Z" transform="translate(-1.246 -1.937)" style="fill: #006aab"/>
      <g>
        <path d="M41.241,11.343C35.108,18.8,28.983,47.459,31,50.641a1.694,1.694,0,0,0,1.868.767c.34-.087.6-.169,1.133-1.328.883.891,2.145,1.862,3.5,1.717a2.751,2.751,0,0,0,2.228-1.758C47.073,34,50.315,12.513,45.824,9.7,45.025,9.2,43.37,8.755,41.241,11.343Zm2.279,1.873a4.365,4.365,0,0,1,.831-.822c.4.6.632,2.025.632,4.13,0,6.676-2.217,19.773-7.916,32.252-.428-.209,1.12-13.678,6.52-30.848,0,0-2.951,2.723-9.347,24.984C35.961,33.928,39.773,17.772,43.52,13.216Z" transform="translate(-1.246 -1.937)" style="fill: #f38030"/>
        <path d="M14.974,2.642C6.813,5.038,3.422,17.836,2.342,23.227c-.108.541-2.622,13.283.349,15.693,2.743,2.221,27.09,11.576,29.6,12.6L31.165,48.5C21.93,44.729,6.689,38.233,4.63,36.68a8.68,8.68,0,0,1-.42-3.389A53.719,53.719,0,0,1,7.336,16.237C8.893,12.005,11.625,6.7,15.807,5.472c10.615-3.117,28.211,5.977,28.386,6.07L46.232,9.95C45.469,9.552,26.735-.815,14.974,2.642Z" transform="translate(-1.246 -1.937)" style="fill: #f38030"/>
      </g>
      <path d="M331.2,43.551V38.672h-2.086c-1.381,0-2-.754-2-2.082v-11.1H331.2V21.106h-4.086V14.273H321.35v6.833h-2.444v4.388h2.444v11.45a6.265,6.265,0,0,0,6.7,6.607ZM308.928,29.844h-8.784a6.269,6.269,0,0,1,.532-2.484,4.31,4.31,0,0,1,7.72,0,6.411,6.411,0,0,1,.532,2.484m5.679,3.949V31.217c0-6.342-3.64-11.045-10.074-11.045-5.988,0-10.07,4.262-10.07,11.8,0,9.361,5.234,11.846,10.689,11.846a11.015,11.015,0,0,0,8.789-3.637l-3.506-3.416a6.4,6.4,0,0,1-5.234,2.17,4.77,4.77,0,0,1-5.057-5.143ZM291.23,43.551V38.672h-2.216c-1.467,0-2.038-.711-2.038-2.082V11.968h-5.769V36.944c0,3.283,1.992,6.607,6.738,6.607Zm-15.3,0V38.672h-2.219c-1.465,0-2.041-.711-2.041-2.082V11.968H265.9V36.944c0,3.283,1.994,6.607,6.741,6.607Zm-22.672-8.516a3.793,3.793,0,0,1-.842,2.926c-1.021.975-2.039,1.11-3.639,1.11-2.261,0-3.326-1.063-3.326-2.661,0-1.64,1.156-2.617,3.24-2.617h4.567Zm5.769,8.516V28.336c0-5.41-3.373-8.164-9.847-8.164-3.862,0-6.078.709-8.342,3.2l3.682,3.59a4.971,4.971,0,0,1,4.437-1.908c3.061,0,4.3,1.109,4.3,3.639v1.154H247.8c-5.367,0-7.9,3.016-7.9,6.7a7.385,7.385,0,0,0,1.908,5.188,7.869,7.869,0,0,0,5.9,2.043,7.02,7.02,0,0,0,5.678-2.221v2Zm-20.1-31.583H232.5l-4.924,19.917-5.767-19.917h-4.614l-5.767,19.917-4.881-19.917h-6.434l8.43,31.583h5.146L219.5,24.387l5.809,19.164h5.15Z" transform="translate(-1.246 -1.937)" style="fill: #f38030"/>
    </g>
    <path d="M336.258,43.641a2.5,2.5,0,1,1,2.5-2.5A2.5,2.5,0,0,1,336.258,43.641Zm0-4.629a2.132,2.132,0,1,0,2.106,2.133A2.117,2.117,0,0,0,336.258,39.012Zm.611,3.5-.624-1.118h-.416v1.118h-.377V39.78h.923a.824.824,0,0,1,.858.818.758.758,0,0,1-.585.754l.663,1.157Zm-.533-2.392h-.507v.961h.507a.482.482,0,1,0,0-.961Z" transform="translate(-1.246 -1.937)" style="fill: #f38030"/>
  </g>
</svg>
