<svg height="180" viewBox="0 0 180 180" width="180" xmlns="http://www.w3.org/2000/svg"><circle cx="90" cy="89.556" fill="#b4e5fa" opacity=".6" r="85"/><rect fill="#1b2126" height="114.731" rx="6.889" transform="matrix(.98480775 .17364818 -.17364818 .98480775 16.594 -13.592)" width="64.858" x="53.548" y="30.676"/><path d="m120.879 40.052-51.286-9.043c-1.261-.222-2.476.692-2.715 2.043l-17.627 99.966c-.222 1.261.62 2.464 1.881 2.686l51.286 9.043c1.261.222 2.464-.62 2.686-1.881l17.627-99.966c.238-1.351-.591-2.626-1.852-2.848z" fill="#566770"/><path d="m82.061 33.006 2.09 3.862c.597 1.102 1.653 1.871 2.876 2.086l14.287 2.519c1.113.196 2.262-.084 3.172-.777l3.994-3.033-26.419-4.658z" fill="#1b2126"/><path d="m108.757 44.657 7.863-5.355-6.962-1.228-7.864 5.356 8.28 11.825-28.182 19.733 10.514 15.016-20.136 14.1-1.276 1.58 28.375-14.452-10.514-15.016 28.182-19.733z" fill="#9ba8b6"/><path d="m70.994 105.684-1.442-2.06 20.136-14.099-10.514-15.016 28.182-19.733-8.28-11.826 11.959-8.374 2.867 4.096-7.863 5.506 8.28 11.826-28.182 19.733 10.514 15.016z" fill="#1b2126"/><path d="m141.857 98.688c-20.035 0-30.654 7.301-30.654 7.301v22.451c0 30.88 30.654 43.583 30.654 43.583z" fill="#ef6a00"/><path d="m141.857 98.688v73.335s30.654-12.704 30.654-43.583v-22.451s-10.631-7.301-30.654-7.301z" fill="#c40"/><path d="m175 127.879v-24.273s-11.494-7.894-33.143-7.894c-21.662 0-33.143 7.894-33.143 7.894v24.273c0 33.387 33.143 47.121 33.143 47.121s33.143-13.735 33.143-47.121zm-33.143 41.005c-6.857-3.492-27.607-16.117-27.607-41.005v-21.014c4.15-2.015 13.542-5.618 27.607-5.618s23.471 3.611 27.607 5.616v21.015c0 24.891-20.743 37.511-27.607 41.005z" fill="#7a8e99"/><path d="m141.857 95.712v5.536c14.071 0 23.471 3.611 27.607 5.616v21.015c0 24.891-20.743 37.511-27.607 41.005v6.116s33.143-13.735 33.143-47.121v-24.273s-11.494-7.894-33.143-7.894z" fill="#566770"/><path d="m154.584 138.746c0-5.943-4.825-8.914-10.514-10.373v-9.507c2.183.697 3.643 2.359 3.643 4.421h6.246c0-5.242-4.1-9.312-9.889-10.179v-3.51h-4.426v3.509c-5.719.782-9.889 4.703-9.889 10.129 0 5.571 4.308 8.867 9.889 10.262v10.088c-2.473-.729-4.163-2.634-4.163-4.943h-6.35c0 5.489 4.384 9.759 10.514 10.644v3.462h4.426v-3.446c6.06-.765 10.514-4.853 10.514-10.556zm-18.426-15.928c0-1.939 1.463-3.445 3.486-4.017v8.211c-2.216-1.058-3.486-2.429-3.486-4.194zm7.913 20.854v-8.876c2.62 1.037 4.163 2.53 4.163 4.522 0 2.125-1.749 3.755-4.163 4.354z" fill="#fff"/></svg>