<svg height="180" viewBox="0 0 180 180" width="180" xmlns="http://www.w3.org/2000/svg" xmlns:xlink="http://www.w3.org/1999/xlink"><linearGradient id="a" gradientTransform="matrix(1 0 0 -1 0 -1867.565)" gradientUnits="userSpaceOnUse" x1="10" x2="128.593" y1="-1994.662" y2="-1994.662"><stop offset="0" stop-color="#696969"/><stop offset=".502" stop-color="#919191"/><stop offset=".995" stop-color="#595959"/></linearGradient><circle cx="90" cy="90" fill="#b4e5fa" opacity=".6" r="85"/><rect fill="#595959" height="103.242" rx="8.234" width="160" x="10" y="38.379"/><rect fill="#dce5ea" height="16.265" rx="2.391" width="21.787" x="26.601" y="73.725"/><g fill="#fff"><path d="m24.668 47.224c.084-.101.141-.15.178-.176.086.129.135.434.135.885 0 1.431-.475 4.239-1.697 6.912-.091-.044.241-2.931 1.397-6.612 0 0-.632.584-2.002 5.355.368-1.925 1.185-5.388 1.988-6.365m-.488-.402c-1.315 1.599-2.628 7.742-2.195 8.424.089.139.246.203.401.164.072-.019.129-.037.243-.284.189.19.459.399.75.368.12-.013.341-.078.477-.378 1.573-3.437 2.268-8.043 1.305-8.645-.17-.107-.526-.204-.982.35"/><path d="m18.55 44.957c-1.749.514-2.476 3.257-2.708 4.413-.023.117-.562 2.848.074 3.363.588.477 5.807 2.482 6.345 2.702l-.241-.646c-1.98-.809-5.246-2.202-5.688-2.534-.056-.097-.091-.355-.091-.727 0-.866.181-2.325.67-3.655.334-.907.919-2.043 1.816-2.308 2.275-.669 6.047 1.281 6.084 1.301l.437-.341c-.164-.085-4.179-2.307-6.7-1.568"/><path d="m32.909 46.957h-1.379l-1.358 4.412-1.36-4.412h-1.369l2.235 6.77h.989l2.243-6.77zm2.15 1.816h-1.236v4.954h1.236zm.009-1.855h-1.265v1.009h1.265zm5.181 2.264c-.343-.343-.685-.465-1.169-.465-.533 0-1.009.247-1.246.532v-.476h-1.208v4.954h1.236v-2.984c0-.628.418-.913.798-.913.304 0 .466.105.656.294l.932-.941zm3.119 4.545v-1.046h-.447c-.294 0-.428-.162-.428-.446v-2.378h.874v-.941h-.874v-1.466h-1.236v1.466h-.522v.941h.522v2.453c0 .704.428 1.416 1.437 1.416h.675zm5.373 0v-4.954h-1.237v2.995c0 .676-.437.903-.827.903s-.817-.227-.817-.903v-2.995h-1.236v3.168c0 .541.105 1.007.504 1.407.275.276.675.437 1.169.437.455 0 .913-.17 1.235-.513v.456h1.208zm5.325 0v-3.261c0-1.16-.723-1.749-2.111-1.749-.827 0-1.301.152-1.786.685l.789.769c.257-.293.475-.408.952-.408.655 0 .922.237.922.78v.248h-1.169c-1.151 0-1.692.645-1.692 1.435 0 .437.141.837.408 1.112.294.294.704.438 1.265.438.571 0 .884-.143 1.216-.476v.428h1.207zm-1.236-1.826c0 .304-.048.504-.18.628-.219.208-.438.237-.78.237-.485 0-.715-.228-.715-.571 0-.351.248-.561.695-.561h.98zm4.859 1.824v-1.046h-.475c-.314 0-.438-.152-.438-.446v-5.278h-1.236v5.353c0 .704.428 1.416 1.446 1.416h.704z"/><path d="m66.551 46.957h-1.378l-1.057 4.27-1.234-4.27h-.99l-1.235 4.27-1.046-4.27h-1.379l1.807 6.77h1.102l1.246-4.108 1.245 4.108h1.104l1.816-6.77zm4.307 6.77v-3.261c0-1.16-.724-1.749-2.111-1.749-.828 0-1.303.152-1.788.685l.79.769c.256-.293.475-.408.95-.408.657 0 .922.237.922.78v.248h-1.168c-1.151 0-1.693.645-1.693 1.435 0 .437.142.837.409 1.112.294.294.703.438 1.265.438.57 0 .884-.143 1.216-.476v.428h1.208zm-1.238-1.826c0 .304-.046.504-.18.628-.219.208-.438.237-.78.237-.485 0-.713-.228-.713-.571 0-.351.248-.561.694-.561h.979zm4.86 1.824v-1.046h-.475c-.314 0-.437-.152-.437-.446v-5.278h-1.235v5.353c0 .704.427 1.416 1.444 1.416h.704zm3.28 0v-1.046h-.475c-.314 0-.437-.152-.437-.446v-5.278h-1.236v5.353c0 .704.427 1.416 1.445 1.416h.703zm5.01-2.091v-.553c0-1.359-.78-2.367-2.158-2.367-1.285 0-2.158.913-2.158 2.529 0 2.006 1.122 2.539 2.29 2.539.895 0 1.379-.276 1.883-.779l-.751-.732c-.315.314-.581.465-1.123.465-.695 0-1.084-.465-1.084-1.102h3.1zm-1.218-.846h-1.882c.009-.22.037-.352.113-.533.134-.294.41-.513.828-.513s.695.218.827.513c.076.181.104.314.113.533m4.773 2.937v-1.046h-.447c-.295 0-.428-.162-.428-.446v-2.378h.875v-.941h-.875v-1.466h-1.234v1.466h-.523v.941h.523v2.453c0 .704.427 1.416 1.436 1.416h.674z"/><path d="m60.642 58.806c-.349 0-.392.286-.392.664s.044.67.392.67.391-.291.391-.67-.044-.664-.391-.664m.736 1.647c-.129.129-.34.21-.567.21-.245 0-.42-.067-.579-.245v.218h-.563v-3.178h.581v1.058c.151-.169.326-.233.561-.233.228 0 .438.081.567.211.231.231.237.628.237.977s-.005.75-.237.982"/><path d="m63.034 61.01c-.049.129-.103.227-.174.299-.134.133-.308.178-.5.178h-.227v-.522h.135c.164 0 .231-.04.29-.21l.098-.286-.795-2.16h.613l.481 1.438.465-1.438h.612l-.996 2.7h-.001z"/><path d="m66.4 58.011h-.581v.87h.581c.28 0 .459-.174.459-.433s-.178-.437-.459-.437m.03 1.428h-.612v1.196h-.62v-3.177h1.231c.656 0 1.049.451 1.049.991s-.393.99-1.049.99"/><path d="m69.835 60.635-1.258-1.95v1.95h-.622v-3.178h.555l1.259 1.945v-1.945h.62v3.178z"/><path d="m72.223 60.662c-.34 0-.625-.116-.858-.348-.138-.138-.223-.299-.259-.477s-.053-.442-.053-.79.017-.611.053-.79c.036-.182.121-.339.259-.477.233-.231.518-.347.858-.347.612 0 1.061.357 1.169 1.004h-.63c-.066-.273-.237-.451-.535-.451-.169 0-.303.053-.398.166-.129.137-.156.281-.156.896s.026.759.156.897c.095.112.229.166.398.166.298 0 .469-.18.535-.451h.63c-.107.647-.563 1.003-1.169 1.003"/><path d="m76.089 59.3h-.647v.78h.647c.28 0 .413-.178.413-.393 0-.213-.133-.388-.413-.388m-.041-1.289h-.606v.732h.606c.262 0 .41-.147.41-.366 0-.218-.147-.366-.41-.366m.103 2.624h-1.33v-3.178h1.277c.62 0 .981.349.981.893 0 .353-.231.58-.393.656.192.089.438.29.438.713 0 .594-.406.915-.973.915"/><path d="m78.824 58.395-.402 1.155h.79zm.74 2.24-.188-.563h-1.129l-.192.563h-.646l1.155-3.177h.486l1.161 3.177z"/><path d="m82.481 60.635-1.257-1.95v1.95h-.62v-3.178h.553l1.259 1.945v-1.945h.622v3.178h-.555z"/><path d="m85.624 60.635-.817-1.446-.409.491v.955h-.622v-3.178h.622v1.383l1.118-1.383h.754l-1.052 1.263 1.128 1.914h-.723z"/><path d="m86.209 47.09h-.095v.169h.095c.057 0 .091-.038.091-.083 0-.049-.034-.086-.091-.086m.091.47-.112-.22h-.073v.22h-.102v-.557h.209c.105 0 .181.078.181.172 0 .078-.049.129-.109.151l.123.233h-.117zm-.106-.699c-.232 0-.415.185-.415.422 0 .233.183.419.415.419.23 0 .41-.186.41-.419 0-.237-.18-.422-.41-.422m0 .939c-.286 0-.517-.231-.517-.516s.231-.516.517-.516c.284 0 .516.231.516.516s-.233.516-.516.516"/></g><path d="m10 121.643h118.593v10.907h-118.593z" fill="url(#a)"/><path d="m142.258 39.563c-14.664 0-26.552 11.886-26.552 26.55s11.888 26.548 26.552 26.548 26.546-11.889 26.546-26.548-11.891-26.55-26.546-26.55" fill="#fff"/><path d="m170 59.988c-2.372-10.789-10.872-19.277-21.662-21.632h-12.163c-12.771 2.786-22.335 14.151-22.335 27.756 0 15.689 12.724 28.414 28.418 28.414 13.582 0 24.939-9.544 27.742-22.291v-12.248zm-42.968 21.648c-.091-4.373-.18-13.152-.05-30.15v-.955c.013-3.133 1.312-5.748 3.091-6.225 2.335-.622 5.483 2.155 8.635 7.614l2.934 5.076c-.856.151-1.572.713-2.132 1.686l-9.569 16.561c-1.385 2.423-2.362 4.586-2.904 6.491 0-.037-.007-.064-.007-.097h.001zm36.274-10.105c-3.733 2.268-11.288 6.739-26.086 15.132l-.833.47c-2.71 1.563-5.624 1.733-6.926.423-1.706-1.703-.873-5.823 2.278-11.274l2.927-5.085c.559.667 1.409 1.009 2.522 1.009h19.127c2.79 0 5.152-.246 7.069-.728-.03.02-.05.034-.08.052zm-6.989-1.393h-5.868c.298-.823.174-1.72-.385-2.692l-9.562-16.556c-1.399-2.421-2.793-4.34-4.162-5.766.023.015.047.034.077.042 3.834 2.099 11.472 6.414 26.126 15.023l.843.494c2.704 1.568 4.323 4.005 3.837 5.792-.626 2.324-4.603 3.664-10.907 3.664z" fill="#f58025"/></svg>