<?xml version="1.0" encoding="UTF-8"?>
<svg id="Layer_1" data-name="Layer 1" xmlns="http://www.w3.org/2000/svg" width="180" height="180" viewBox="0 0 180 180">
  <defs>
    <style>
      .cls-1 {
        fill: #0069aa;
      }

      .cls-2 {
        fill: #fff;
      }

      .cls-3 {
        fill: #c163b0;
      }

      .cls-4, .cls-5, .cls-6 {
        fill: #963c87;
      }

      .cls-7 {
        fill: #99c742;
      }

      .cls-8, .cls-9, .cls-10 {
        fill: #55945f;
      }

      .cls-11 {
        fill: #4f6878;
      }

      .cls-12, .cls-13 {
        fill: #274059;
      }

      .cls-14 {
        fill: #7a8c9e;
      }

      .cls-15 {
        fill: #b4e5fa;
        isolation: isolate;
        opacity: .6;
      }

      .cls-16, .cls-6 {
        opacity: .63;
      }

      .cls-5 {
        opacity: .6;
      }

      .cls-9 {
        opacity: .61;
      }

      .cls-13, .cls-10 {
        opacity: .42;
      }
    </style>
  </defs>
  <circle class="cls-15" cx="89" cy="87.894" r="85"/>
  <g>
    <g>
      <rect class="cls-1" x="12" y="24.286" width="80.951" height="100.381" rx="9.752" ry="9.752"/>
      <path class="cls-14" d="M83.951,25.964v-7.784c0-3.211-6.205-5.741-14.08-5.741H35.031c-7.875,0-14.08,2.53-14.08,5.741v7.784"/>
    </g>
    <path class="cls-11" d="M35.08,12.439h5.66v13.524H21v-7.784c0-3.211,6.205-5.741,14.08-5.741Z"/>
  </g>
  <polygon class="cls-12" points="84 39.439 93 39.439 93 48.439 75 48.439 75 39.439 84 39.439"/>
  <g>
    <rect class="cls-13" x="21" y="114.894" width="27" height="5" rx="2.5" ry="2.5"/>
    <rect class="cls-13" x="30" y="110.894" width="27" height="5" rx="2.5" ry="2.5"/>
  </g>
  <path class="cls-12" d="M78.202,114.883c0,5.253-4.755,9.511-10.62,9.511h-28.582V48.913c0-4.536,3.548-8.323,8.293-9.272,.491-.098,32.658-.166,33.171-.201"/>
  <g>
    <g>
      <rect class="cls-3" x="93" y="47.058" width="80.951" height="100.381" rx="9.752" ry="9.752"/>
      <path class="cls-4" d="M164.199,47.058h-7.255v100.381h7.255c5.386,0,9.752-4.366,9.752-9.752V56.811c0-5.386-4.366-9.752-9.752-9.752Z"/>
      <path class="cls-14" d="M164.951,48.736v-7.784c0-3.211-6.205-5.741-14.08-5.741h-34.841c-7.875,0-14.08,2.53-14.08,5.741v7.784"/>
    </g>
    <path class="cls-11" d="M150.872,35.212h-5.66v13.524h19.74v-7.784c0-3.211-6.205-5.741-14.08-5.741Z"/>
  </g>
  <path class="cls-4" d="M95.455,136.648c0,5.809,5.16,10.518,11.526,10.518h31.02V63.689c0-5.016-3.85-9.204-9-10.255-.533-.109-35.443-.184-36-.223h-9"/>
  <g>
    <g>
      <rect class="cls-7" x="48.049" y="55.513" width="80.951" height="100.381" rx="9.752" ry="9.752"/>
      <path class="cls-8" d="M119.248,55.513h-7.255v100.381h7.255c5.386,0,9.752-4.366,9.752-9.752V65.266c0-5.386-4.366-9.752-9.752-9.752Z"/>
      <path class="cls-7" d="M52.877,128.933v15.15c0,3.603,2.921,6.523,6.523,6.523h58.248c3.603,0,6.523-2.921,6.523-6.523v-15.15H52.877Z"/>
      <path class="cls-8" d="M111.993,150.605h5.656c3.603,0,6.523-2.921,6.523-6.523v-15.15h-12.179v21.673Z"/>
      <path class="cls-14" d="M120,57.191v-7.784c0-3.211-6.205-5.741-14.08-5.741h-34.841c-7.875,0-14.08,2.53-14.08,5.741v7.784"/>
    </g>
    <path class="cls-11" d="M105.92,43.667h-5.66v13.524h19.74v-7.784c0-3.211-6.205-5.741-14.08-5.741Z"/>
  </g>
  <circle class="cls-13" cx="39.002" cy="83.897" r="9"/>
  <circle class="cls-13" cx="30" cy="101.894" r="9"/>
  <circle class="cls-9" cx="80.219" cy="131.503" r="9"/>
  <rect class="cls-8" x="75" y="150.894" width="27" height="5" rx="2.5" ry="2.5"/>
  <rect class="cls-8" x="84" y="146.894" width="27" height="5" rx="2.5" ry="2.5"/>
  <circle class="cls-10" cx="66.002" cy="101.892" r="9"/>
  <g class="cls-16">
    <rect class="cls-5" x="132.769" y="138.822" width="27" height="5" rx="2.5" ry="2.5"/>
    <rect class="cls-5" x="141.769" y="134.822" width="27" height="5" rx="2.5" ry="2.5"/>
  </g>
  <g class="cls-16">
    <rect class="cls-5" x="132.769" y="132.894" width="27" height="5" rx="2.5" ry="2.5"/>
    <rect class="cls-5" x="141.769" y="128.894" width="27" height="5" rx="2.5" ry="2.5"/>
  </g>
  <path class="cls-2" d="M106.073,104.955c0,2.605-.672,4.946-2.013,7.022-1.342,2.076-3.306,3.702-5.891,4.877-2.586,1.175-5.651,1.763-9.196,1.763-4.251,0-7.757-.803-10.519-2.409-1.959-1.155-3.551-2.698-4.774-4.627-1.225-1.93-1.837-3.806-1.837-5.627,0-1.058,.367-1.964,1.103-2.718,.734-.754,1.669-1.131,2.806-1.131,.92,0,1.699,.294,2.336,.881,.636,.588,1.18,1.46,1.63,2.615,.549,1.371,1.142,2.518,1.778,3.438,.636,.921,1.532,1.68,2.688,2.277,1.155,.598,2.673,.896,4.554,.896,2.585,0,4.687-.602,6.302-1.807,1.616-1.204,2.424-2.708,2.424-4.51,0-1.43-.436-2.59-1.307-3.481-.872-.892-1.998-1.572-3.379-2.042-1.381-.471-3.228-.97-5.538-1.499-3.096-.725-5.686-1.571-7.771-2.541s-3.742-2.292-4.966-3.967c-1.225-1.675-1.836-3.756-1.836-6.243,0-2.37,.646-4.476,1.938-6.317,1.293-1.841,3.163-3.256,5.612-4.245,2.448-.989,5.327-1.483,8.638-1.483,2.645,0,4.932,.328,6.86,.983,1.93,.657,3.53,1.528,4.804,2.615s2.204,2.229,2.792,3.423c.587,1.195,.881,2.36,.881,3.496,0,1.039-.367,1.974-1.102,2.807-.734,.832-1.65,1.248-2.747,1.248-.999,0-1.759-.249-2.277-.749-.519-.499-1.082-1.317-1.689-2.453-.783-1.626-1.724-2.895-2.82-3.805-1.098-.911-2.86-1.366-5.288-1.366-2.253,0-4.069,.495-5.45,1.483-1.381,.989-2.072,2.18-2.072,3.57,0,.861,.235,1.605,.706,2.232,.47,.627,1.116,1.166,1.938,1.616,.823,.45,1.655,.804,2.498,1.058,.842,.255,2.232,.627,4.172,1.116,2.429,.568,4.627,1.195,6.596,1.881s3.644,1.518,5.024,2.497,2.458,2.219,3.231,3.717,1.161,3.335,1.161,5.509Z"/>
  <circle class="cls-6" cx="156.002" cy="92.892" r="9"/>
</svg>