<svg height="180" viewBox="0 0 180 180" width="180" xmlns="http://www.w3.org/2000/svg"><circle cx="90" cy="90" fill="#b4e5fa" opacity=".6" r="85"/><path d="m8.522 114.222h14.966c1.446-2.044 2.313-4.582 2.313-7.341 0-6.73-5.1-12.19-11.39-12.19-1.5 0-2.94.31-4.25.88.2-.84.3-1.72.3-2.62-.014-4.022-2.113-7.518-5.198-9.335-.157 2.11-.263 4.234-.263 6.384 0 8.419 1.242 16.543 3.522 24.222z" fill="#99c742" fillRule="evenodd"/><path d="m172.09 106.59c-1.5 0-2.94.31-4.25.88.2-.84.3-1.72.3-2.62-.019-5.677-4.186-10.319-9.43-10.648v32.729h2.955c.427-.296.832-.625 1.205-.991.235.346.491.674.758.991h2.949c3.07-6.353 5.364-13.149 6.778-20.262-.416-.049-.837-.08-1.266-.08z" fill="#99c742" fillRule="evenodd"/><path d="m169.987 118.798h-159.974c11.8 32.769 43.153 56.202 79.987 56.202s68.187-23.434 79.987-56.202z" fill="#919191"/><path d="m17.955 69.681s35.446-9.209 73.171-9.209 70.919 9.209 70.919 9.209v52.44l-144.089 1.538v-53.977z" fill="#9ba8b6"/><path d="m17.955 69.993v5.387c46.869-14.022 97.22-14.022 144.089 0v-5.387c-3.283-.958-6.581-1.851-9.894-2.674-12.601-2.729-35.791-6.847-61.024-6.847-27.563 0-53.891 4.913-66.085 7.562-2.37.618-4.732 1.273-7.086 1.959z" fill="#7a8c9e"/><path d="m16.674 73.837c47.658-14.537 98.995-14.537 146.653 0 .568-1.629 1.135-3.259 1.694-4.888-48.756-14.867-101.275-14.867-150.04 0 .568 1.629 1.126 3.259 1.694 4.888z" fill="#274059"/><path d="m22.812 84.696h134.294v36.655h-134.294z" fill="#274059"/><path d="m164.8 123.631h.009l-2.344-1.428v-1.3h-144.922v1.3l-2.285 1.428h-.059c-.07 0-.128.052-.134.12l-.013.008h.009v2.344h-.009c0 .073.064.137.137.137h149.611c.073 0 .137-.064.137-.137v-2.344c0-.073-.064-.128-.137-.128z" fill="#274059"/><path d="m68.67 55.197h42.659v65.706h-42.659z" fill="#ffb83d"/><path d="m74.724 77.453h30.347v43.889h-30.347z" fill="#274059"/><path d="m88.837 80.349v41.213h-11.168v-41.213z" fill="#98d7f2"/><path d="m102.706 80.349v41.213h-11.177v-41.213z" fill="#98d7f2"/><path d="m54.49 87.371h11.544v34.265h-11.544z" fill="#98d7f2"/><path d="m39.972 87.371h11.544v34.265h-11.544z" fill="#98d7f2"/><path d="m25.453 87.371h11.544v34.265h-11.544z" fill="#98d7f2"/><path d="m113.975 87.371h11.544v34.265h-11.544z" fill="#98d7f2"/><path d="m128.489 87.371h11.544v34.265h-11.544z" fill="#98d7f2"/><path d="m143.004 87.371h11.544v34.265h-11.544z" fill="#98d7f2"/><path d="m114.211 49.412h-48.422l.961 5.785h46.5z" fill="#274059"/><path d="m102.956 65.13c-.966-.483-3.081-.906-5.678-1.208l-6.04-3.262-.06-.06c-1.206-.563-2.558-.732-3.866-.483-.936.129-1.863.31-2.778.544-2.02.504-3.983 1.212-5.859 2.114h-1.087c-.913-.043-1.782.392-2.295 1.148-.219.344-.344.74-.362 1.148v3.262c.003.486.128.963.362 1.389.06.06.121.181.181.242.51.508 1.214.773 1.933.725-.222-1.113.117-2.264.906-3.081.644-.632 1.514-.98 2.416-.966 1.839-.038 3.361 1.422 3.399 3.262.005.264-.02.528-.077.785h10.993c-.222-1.113.117-2.264.906-3.081 1.317-1.334 3.466-1.348 4.801-.031.821.81 1.174 1.982.938 3.111h.302c1.087 0 1.57-.121 1.812-.906.362-1.087 1.268-1.631 1.268-2.476-.005-.195-.068-.385-.181-.544-.491-.703-1.157-1.265-1.933-1.631zm-8.879-1.51-12.805-.725c-.121 0-.121-.121-.06-.181 2.043-.79 4.172-1.337 6.342-1.631 1.007-.116 2.026.03 2.96.423l3.624 1.933c.121.06.06.181-.06.181zm4.289 3.926c-1.334.017-2.403 1.112-2.386 2.446s1.112 2.403 2.446 2.386c1.291-.023 2.333-1.064 2.356-2.356 0-1.344-1.072-2.444-2.416-2.476zm1.329 2.778c-.137.499-.527.89-1.027 1.027-.778.171-1.548-.322-1.718-1.101-.021-.095-.032-.191-.033-.288-.012-.755.589-1.377 1.344-1.389h.045c.781-.009 1.421.616 1.43 1.396.001.12-.012.239-.041.355zm-19.027-2.778c-1.334.017-2.403 1.112-2.386 2.446s1.112 2.403 2.446 2.386 2.403-1.112 2.386-2.446-1.112-2.403-2.446-2.386zm1.389 2.778c-.137.499-.527.89-1.027 1.027-.778.171-1.548-.322-1.718-1.101-.021-.095-.032-.191-.033-.288-.012-.755.589-1.377 1.344-1.389h.045c.781-.009 1.421.616 1.43 1.396.001.12-.012.239-.041.355z" fill="#274059"/><circle cx="90" cy="90" fill="none" r="85"/><path d="m64.839 132.045h31.459v16.52h-31.459z"/><path d="m103.767 135.988c.053-1.931-.438-2.898-2.142-3.693-6.214-2.903-13.402-5.113-22.967-7.656-1.907-.501-3.534-1.098-5.297-1.983-11.963-6.18-21.049-11.519-29.976-12.73-8.522-1.155-23.745.122-35.491 2.085 3.907 14.61 11.595 27.674 21.971 38.061h35.747c1.713-.019 2.296-.82 2.399-2.707.3-7.77 5.172-13.01 12.561-13.003 7.281.006 12.329 5.462 12.561 13.307.062 1.793.876 2.38 2.581 2.383l6.995-.204c1.307-.014 2.1-.849 1.832-2.419-.768-4.032-.901-6.787-.773-11.441z" fill="#0069aa" fillRule="evenodd"/><circle cx="80.569" cy="146.295" fill="#274059" r="10.059"/><path d="m80.568 140.519c-3.19 0-5.775 2.586-5.775 5.776s2.586 5.776 5.775 5.776 5.775-2.586 5.775-5.776-2.586-5.776-5.775-5.776z" fill="#bac5ce" fillRule="evenodd"/><path d="m80.568 142.005c-2.369 0-4.289 1.921-4.289 4.289s1.92 4.29 4.289 4.29 4.289-1.92 4.289-4.29-1.92-4.289-4.289-4.289z" fill="#7a8c9e" fillRule="evenodd"/><path d="m80.568 143.087c-1.771 0-3.207 1.436-3.207 3.207s1.436 3.207 3.207 3.207 3.207-1.436 3.207-3.207-1.436-3.207-3.207-3.207z" fill="#9ba8b6" fillRule="evenodd"/><path d="m29.866 150.072h35.747c1.713-.019 2.296-.82 2.399-2.707.044-1.147.189-2.238.426-3.266-15.08-.365-30.161-.897-45.197-1.521 2.068 2.622 4.269 5.134 6.626 7.493z" fill="#00558a"/><path d="m104.083 144.633c-3.771-.018-7.545-.049-11.32-.093.212.991.338 2.036.37 3.128.062 1.793.876 2.38 2.581 2.383l6.995-.204c1.307-.014 2.1-.849 1.832-2.419-.189-.993-.34-1.909-.457-2.795z" fill="#00558a"/><g fillRule="evenodd"><path d="m101.625 132.294c-6.214-2.903-13.402-5.113-22.967-7.656-1.907-.501-3.534-1.098-5.297-1.983-11.963-6.18-21.049-11.519-29.976-12.73-8.522-1.155-23.745.122-35.491 2.085.164.612.341 1.219.518 1.826 11.377-1.751 25.237-2.804 33.221-1.722 8.927 1.21 21.488 8.171 33.451 14.352 1.764.884 3.347 1.475 5.298 1.982 9.565 2.542 15.624 3.971 21.838 6.874.692.342 1.192.711 1.534 1.171l.013-.506c.053-1.931-.438-2.898-2.142-3.693z" fill="#29abe2"/><path d="m90.649 132.564c-.859-.476-.869-1.461.403-1.55 2.613-.167 8.337 1.37 10.207 3.232 1.293 1.288.862 2.721-1.156 2.245-2.505-.59-7.429-2.805-9.454-3.927z" fill="#dce5ea"/><path d="m90.472 131.148c.151-.07.343-.118.581-.134 2.613-.167 8.337 1.37 10.207 3.232.312.31.523.629.636.927-3.601-1.654-7.17-2.828-11.424-4.025z" fill="#fff"/><path d="m33.613 146.859.172-1.176c.119-.773.214-1.521.278-2.275.065-.76.1-1.519.097-2.303h-.001v-8.089h.001c.005-.978-.031-1.752-.113-2.497s-.211-1.461-.39-2.323l-.626-2.973.59-.123.626 2.973c.183.884.315 1.618.4 2.379.084.761.121 1.556.115 2.563h.001v8.088h-.001c.003.819-.031 1.594-.097 2.354-.066.767-.162 1.529-.283 2.314l-.172 1.174-.597-.087z" fill="#274059"/><path d="m65.211 129.984-.002-.01-.944-3.148-.579.172.944 3.148c.221.835.328 1.478.348 2.153.021.682-.045 1.417-.168 2.432v.004l-.818 7.505c-.073.613-.155 1.194-.259 1.798-.107.61-.236 1.243-.405 1.951-.11.438-.322.756-.605.962-.308.225-.711.328-1.168.322l-35.055-.794c.18.202.35.414.532.614l34.51.781h.002c.585.009 1.113-.131 1.531-.437.397-.29.69-.72.837-1.303v-.004c.176-.734.308-1.379.415-1.992.108-.62.191-1.211.264-1.829v-.004l.818-7.505c.126-1.036.193-1.794.17-2.52-.023-.731-.135-1.416-.369-2.299z" fill="#274059"/><path d="m68.309 125.69c-9.093-4.552-18.983-9.419-25.573-10.302-6.579-.948-21.575-.647-33.441 1.29.999 3.024 2.163 5.972 3.482 8.836l55.073 2.551c1.385.035 1.868-1.67.459-2.375z" fill="#29abe2"/><path d="m67.769 125.39c-9.179-4.829-19.717-10.421-26.346-11.315-6.722-.97-21.009-.208-32.301 2.09.892 2.758 1.923 5.451 3.08 8.077l55.189 2.538c.947.031 1.104-.984.377-1.39z" fill="#98d7f2"/><path d="m12.202 124.242 3.931.181 10.507-10.506c-5.733.365-11.981 1.127-17.517 2.254.891 2.756 1.922 5.447 3.078 8.071z" fill="#fff"/><path d="m57.482 120.089-5.962 5.962-13.01-.599 9.544-9.544c2.93 1.095 6.145 2.564 9.428 4.18z" fill="#fff"/><path d="m9.435 117.089c.461 1.372.956 2.727 1.484 4.067l2.424-6.253c-1.086.179-2.156.373-3.204.579l-.704 1.608z" fill="#0069aa"/><path d="m33.579 112.394 1.527 12.901-3.323-.153-.984-12.7c.955-.028 1.885-.044 2.781-.048z" fill="#0069aa"/><path d="m60.054 126.629c-.472-.013-1.134-.057-1.87-.208-.542-.111-.839-.564-.882-1.075-.065-.829.368-2.162 1.243-2.346.71-.15 2.271-.038 2.903.595.844.844-.101 3.068-1.394 3.033z" fill="#0069aa"/><path d="m15.725 131.327 3.234.149.052-1.204-3.971-.182c.223.416.455.826.685 1.238z" fill="#274059"/><path d="m38.826 131.184 6.955.319-.051 1.204-6.956-.319z" fill="#274059"/></g><path d="m68.67 55.197h42.659v1.602h-42.659z" fill="#e5a022"/></svg>