<svg height="180" viewBox="0 0 180 180" width="180" xmlns="http://www.w3.org/2000/svg"><circle cx="90" cy="90" fill="#b4e5fa" opacity=".6" r="85"/><path d="m174.069 77.432c-13.616 3.724-29.418 9.766-43.44 12.634-18.901 3.865-69.737 7.086-93.2-1.288-7.356-2.626-19.261-4.364-32.138-5.514-.175 2.225-.29 4.466-.29 6.736 0 46.944 38.056 85 85 85s85-38.056 85-85c0-4.271-.323-8.466-.931-12.568z" fill="#98d7f2" fillRule="evenodd"/><circle cx="90" cy="40.431" fill="#ffb83d" r="26.482"/><path d="m79.255 49.768 3.462-3.469c1.45 1.457 3.476 2.227 6.063 2.296v-6.917l-1.221-.167c-2.269-.312-4.01-1.082-5.217-2.303-1.283-1.311-1.929-3.101-1.943-5.384 0-2.241.701-4.114 2.109-5.626 1.401-1.512 3.323-2.393 5.765-2.643v-3.483h3.899v3.448c3.143.18 5.724 1.263 7.742 3.254l-3.497 3.379c-1.145-1.068-2.74-1.686-4.794-1.852v6.674l1.492.222c2.373.361 4.156 1.082 5.342 2.151 1.443 1.325 2.158 3.24 2.144 5.751 0 2.276-.77 4.121-2.31 5.543s-3.58 2.282-6.126 2.588v4.315h-3.899v-4.163c-3.739-.125-6.75-1.325-9.012-3.614zm6.161-16.047c0 .784.271 1.436.812 1.943.597.562 1.443.916 2.56 1.068v-6.396c-1.089.153-1.922.534-2.498 1.152-.583.617-.874 1.36-.874 2.234zm6.216 14.805c2.4-.284 3.601-1.381 3.614-3.288 0-.999-.284-1.762-.853-2.296-.493-.458-1.415-.791-2.761-.992v6.577z" fill="#fff"/><path d="m18.395 135.775c15.107 23.582 41.52 39.225 71.605 39.225s56.498-15.643 71.605-39.225z" fill="#919191"/><path d="m22.608 141.775c15.54 20.197 39.938 33.225 67.392 33.225s51.852-13.028 67.392-33.225z" fill="#696969"/><path d="m15.887 102.795h43.033v22.598h-43.033z"/><path d="m122.691 102.795h43.033v22.598h-43.033z"/><path d="m173.011 103.137c2.331 1.089 3.003 2.411 2.93 5.052-.174 6.365.008 10.134 1.058 15.65.367 2.148-.718 3.291-2.505 3.309l-9.568.279c-2.331-.004-3.446-.807-3.53-3.26-.318-10.73-7.222-18.194-17.183-18.202-10.107-.009-16.771 7.16-17.182 17.788-.141 2.581-.938 3.677-3.281 3.703h-65.661c-2.084-.024-3.401-.913-3.506-3.396-.353-10.737-7.246-18.095-17.18-18.095-10.105 0-16.763 7.216-17.182 17.787-.073 1.669-.974 2.517-2.641 2.457l-7.513-.444c-2.276-.194-3.427-1.271-4.173-3.186l-2.445-6.227c-.842-2.191-.642-4.062.454-5.877l2.406-3.805c1.069-1.636 1.201-2.679 1.201-4.562l.004-5.196c-.01-3.373 1.223-5.296 2.95-6.888 3.708-3.267 9.774-7.856 15.14-10.04 11.251-4.581 50.049-9.843 67.739-7.445 12.212 1.656 24.64 8.959 41.005 17.413 2.413 1.21 4.638 2.027 7.246 2.712 13.084 3.478 22.917 6.501 31.417 10.473z" fill="#0069aa" fillRule="evenodd"/><path d="m37.404 108.727c-7.489 0-13.562 6.072-13.562 13.561s6.072 13.562 13.562 13.562 13.561-6.072 13.561-13.562-6.071-13.561-13.561-13.561z" fill="#274059" fillRule="evenodd"/><path d="m37.403 114.501c-4.301 0-7.786 3.487-7.786 7.786s3.486 7.787 7.786 7.787 7.786-3.486 7.786-7.787-3.486-7.786-7.786-7.786z" fill="#bac5ce" fillRule="evenodd"/><path d="m37.403 116.506c-3.194 0-5.782 2.589-5.782 5.782s2.588 5.783 5.782 5.783 5.782-2.589 5.782-5.783-2.588-5.782-5.782-5.782z" fill="#7a8c9e" fillRule="evenodd"/><path d="m37.403 117.964c-2.388 0-4.324 1.936-4.324 4.324s1.936 4.324 4.324 4.324 4.324-1.936 4.324-4.324-1.936-4.324-4.324-4.324z" fill="#9ba8b6" fillRule="evenodd"/><circle cx="144.208" cy="122.289" fill="#274059" r="13.76"/><g fillRule="evenodd"><path d="m144.207 114.387c-4.363 0-7.9 3.538-7.9 7.901s3.537 7.901 7.9 7.901 7.9-3.538 7.9-7.901-3.537-7.901-7.9-7.901z" fill="#bac5ce"/><path d="m144.207 116.421c-3.24 0-5.867 2.627-5.867 5.867s2.626 5.868 5.867 5.868 5.867-2.627 5.867-5.868-2.626-5.867-5.867-5.867z" fill="#7a8c9e"/><path d="m144.207 117.901c-2.423 0-4.386 1.964-4.386 4.387s1.964 4.387 4.386 4.387 4.387-1.964 4.387-4.387-1.964-4.387-4.387-4.387z" fill="#9ba8b6"/><path d="m176.374 120.016c-5.159-.025-10.321-.067-15.485-.127.29 1.356.462 2.786.507 4.279.085 2.453 1.199 3.255 3.53 3.26l9.568-.279c1.788-.019 2.872-1.162 2.505-3.309-.258-1.358-.465-2.611-.625-3.823zm-48.761-.73c-24.859-.602-49.725-1.524-74.478-2.612.858 2.207 1.361 4.691 1.449 7.387.104 2.483 1.421 3.372 3.506 3.396h65.659c2.343-.026 3.141-1.122 3.281-3.703.061-1.569.259-3.062.583-4.468zm-105.397-4.05c-6.433-.314-12.855-.634-19.264-.959.056.664.221 1.352.499 2.077l2.445 6.227c.745 1.915 1.897 2.992 4.173 3.186l7.513.444c1.667.06 2.567-.788 2.641-2.457.126-3.178.816-6.051 1.994-8.517z" fill="#00558a"/><path d="m173.825 107.28c.947.468 1.631.973 2.099 1.602l.018-.693c.073-2.642-.599-3.964-2.93-5.052-8.5-3.971-18.333-6.995-31.417-10.473-2.608-.685-4.834-1.502-7.246-2.712-16.365-8.454-28.793-15.757-41.005-17.413-17.69-2.398-56.487 2.864-67.739 7.445-5.367 2.185-11.432 6.774-15.14 10.04-.834.769-1.553 1.615-2.073 2.664 3.74-3.238 9.645-7.604 14.817-9.71 11.252-4.581 50.049-9.842 67.738-7.444 12.211 1.656 29.394 11.177 45.758 19.632 2.413 1.209 4.578 2.017 7.247 2.712 13.083 3.478 21.372 5.432 29.872 9.403z" fill="#29abe2"/><path d="m19.774 76.356h4.732c2.25-.002 3.888.405 6.211.776s6.053 1.107 6.053 1.107l-14.581 4.33-3.407-3.948c-.807-.939-.385-2.26.992-2.266z" fill="#29abe2"/><path d="m7.512 101.529 5.534.322c1.992.034 2.976-.198 4.336-1.762.948-1.09 2.382-1.983 5.669-2.118.845-.013 1.048-1.208.003-1.342-3.723-.369-11.421-2.125-13.275-5.923-1.358 1.469-2.272 3.298-2.264 6.205z" fill="#d80500"/><path d="m157.998 103.505c-1.175-.651-1.189-1.999.551-2.12 3.574-.228 11.404 1.874 13.963 4.421 1.769 1.762 1.18 3.722-1.582 3.071-3.426-.808-10.162-3.837-12.932-5.372z" fill="#dce5ea"/><path d="m157.754 101.569c.207-.096.47-.161.794-.183 3.574-.228 11.404 1.874 13.963 4.421.426.425.716.86.87 1.269-4.926-2.263-9.808-3.868-15.627-5.506z" fill="#fff"/><path d="m79.977 123.06.235-1.608v-.002c.162-1.055.292-2.079.38-3.111.089-1.039.136-2.078.132-3.151l-.002-.002v-11.064l.002-.002c.007-1.336-.042-2.395-.154-3.414-.113-1.019-.288-1.998-.533-3.177l-.856-4.067.807-.168.856 4.067c.251 1.209.431 2.213.546 3.254s.165 2.128.158 3.506h.002v11.064h-.002c.004 1.12-.043 2.18-.132 3.221-.09 1.05-.222 2.091-.387 3.165l-.235 1.606-.817-.119z" fill="#274059"/><path d="m45.941 91.341-1.455 4.066c-.294.836-.519 1.735-.477 2.64.041.885.343 1.793 1.095 2.681l.003.004 16.287 19.76c.587.699 1.235 1.18 1.954 1.487.728.31 1.539.449 2.443.46h.003l52.403 1.186c.625.009 1.176-.133 1.598-.44.386-.282.676-.717.827-1.317h.001c.232-.968.409-1.834.555-2.668.143-.826.255-1.622.355-2.46l1.119-10.266v-.005c.168-1.388.258-2.393.23-3.326-.028-.924-.174-1.803-.476-2.946l-1.292-4.306.792-.236 1.292 4.306.003.013c.32 1.208.474 2.145.505 3.145.03.993-.061 2.029-.233 3.447l-1.119 10.266v.005c-.101.845-.214 1.654-.362 2.502-.146.838-.328 1.721-.568 2.725v.005c-.201.797-.602 1.386-1.145 1.782-.572.418-1.294.61-2.095.598h-.003l-52.403-1.186c-1.009-.013-1.923-.172-2.753-.525-.839-.358-1.589-.914-2.264-1.717l-.002-.003-16.286-19.758c-.885-1.045-1.24-2.121-1.289-3.175v-.002c-.048-1.032.2-2.03.524-2.951v-.003l1.455-4.066z" fill="#274059"/><path d="m30.211 86.103c14.329-6.372 49.62-7.912 62.246-6.092 9.014 1.208 22.543 7.866 34.981 14.092 1.928.964 1.267 3.297-.628 3.249l-87.428-4.05c-1.891-.068-2.8-.316-4.318-1.262l-4.863-2.932c-1.358-.791-1.227-2.449.01-3.005z" fill="#29abe2"/><path d="m31.177 85.671c14-6.577 46.715-9.298 59.483-7.457 9.067 1.223 23.482 8.873 36.039 15.478.994.554.779 1.943-.516 1.901l-87.172-4.009c-1.891-.069-2.801-.316-4.317-1.263l-3.587-2.239c-1.06-.69-1.176-1.854.071-2.411z" fill="#98d7f2"/><path d="m70.439 77.998-14.372 14.371-17.056-.785c-1.443-.053-2.315-.209-3.321-.701l9.555-9.555c7.865-1.683 16.927-2.806 25.194-3.331z" fill="#fff"/><path d="m112.628 86.441-8.155 8.155-17.796-.819 13.055-13.055c4.008 1.498 8.406 3.508 12.896 5.718z" fill="#fff"/><path d="m47.866 80.139-5.086 11.619 4.577.211 4.892-12.621c-1.486.245-2.95.51-4.383.792z" fill="#0069aa"/><path d="m79.93 75.915 2.088 17.648-4.546-.209-1.346-17.373c1.307-.039 2.579-.061 3.804-.066z" fill="#0069aa"/><path d="m116.145 95.387c-.646-.017-1.552-.078-2.557-.284-.742-.152-1.147-.771-1.207-1.47-.089-1.134.503-2.957 1.701-3.209.971-.205 3.107-.052 3.971.814 1.155 1.154-.138 4.196-1.907 4.149z" fill="#0069aa"/><path d="m50.487 99.932 9.515.437-.071 1.648-9.515-.438z" fill="#274059"/><path d="m87.107 101.618 9.515.436-.071 1.647-9.514-.435z" fill="#274059"/></g></svg>