<svg height="180" viewBox="0 0 180 180" width="180" xmlns="http://www.w3.org/2000/svg">
    <circle cx="90" cy="90" fill="#98d7f2" r="85"/>
    <path d="m76.038 103.027 4.528-4.538c1.897 1.906 4.547 2.913 7.932 3.004v-9.048l-1.597-.218c-2.968-.408-5.245-1.416-6.825-3.013-1.679-1.715-2.523-4.057-2.541-7.042 0-2.931.917-5.382 2.759-7.36 1.833-1.978 4.347-3.131 7.541-3.458v-4.556h5.1v4.51c4.111.236 7.487 1.652 10.128 4.256l-4.574 4.42c-1.497-1.398-3.585-2.205-6.271-2.423v8.73l1.951.29c3.104.472 5.436 1.416 6.988 2.813 1.888 1.733 2.822 4.238 2.804 7.523 0 2.977-1.007 5.391-3.022 7.251s-4.683 2.986-8.013 3.385v5.645h-5.1v-5.445c-4.891-.163-8.83-1.733-11.789-4.728zm8.059-20.991c0 1.025.354 1.879 1.062 2.541.78.735 1.888 1.198 3.349 1.398v-8.367c-1.425.2-2.514.699-3.267 1.506-.762.808-1.143 1.779-1.143 2.922zm8.131 19.366c3.14-.372 4.71-1.806 4.728-4.302 0-1.307-.372-2.305-1.116-3.004-.644-.599-1.851-1.035-3.612-1.298v8.603z" fill="#0069aa"/>
    <path d="m90.915 23.944c-36.626 0-66.317 29.691-66.317 66.317s29.691 66.317 66.317 66.317 66.317-29.691 66.317-66.317-29.691-66.317-66.317-66.317zm0 102.04c-19.729 0-35.723-15.994-35.723-35.723s15.994-35.723 35.723-35.723 35.723 15.994 35.723 35.723-15.994 35.723-35.723 35.723z" fill="#fff"/>
    <path d="m90.915 39.241c-28.178 0-51.021 22.843-51.021 51.021s22.843 51.021 51.021 51.021 51.021-22.843 51.021-51.021-22.843-51.021-51.021-51.021zm0 86.744c-19.729 0-35.723-15.994-35.723-35.723s15.994-35.723 35.723-35.723 35.723 15.994 35.723 35.723-15.994 35.723-35.723 35.723z" fill="#dce5ea"/>
    <path d="m61.981 30.574 13.899 27.278c4.57-2.125 9.663-3.314 15.035-3.314s10.465 1.189 15.035 3.314l13.899-27.278c-8.744-4.246-18.56-6.63-28.934-6.63s-20.19 2.384-28.934 6.63zm28.934 95.41c-5.372 0-10.465-1.189-15.035-3.314l-13.899 27.278c8.744 4.246 18.56 6.63 28.934 6.63s20.19-2.384 28.934-6.63l-13.899-27.278c-4.57 2.125-9.663 3.314-15.035 3.314zm-59.687-64.656c-4.247 8.744-6.63 18.56-6.63 28.934s2.384 20.19 6.63 28.934l27.277-13.899c-2.124-4.57-3.314-9.663-3.314-15.035s1.189-10.465 3.314-15.035zm119.374 0-27.277 13.899c2.124 4.57 3.314 9.663 3.314 15.035s-1.189 10.465-3.314 15.035l27.277 13.899c4.247-8.744 6.63-18.56 6.63-28.934s-2.384-20.19-6.63-28.934z" fill="#f7301b"/><g fill="#d80500">
    <path d="m55.192 90.261c0-5.372 1.189-10.465 3.314-15.035l-13.641-6.95c-3.184 6.658-4.97 14.113-4.97 21.985s1.786 15.327 4.97 21.985l13.641-6.95c-2.124-4.57-3.314-9.663-3.314-15.035z"/>
    <path d="m126.638 90.261c0 5.372-1.189 10.465-3.314 15.035l13.641 6.95c3.184-6.658 4.97-14.113 4.97-21.985s-1.786-15.327-4.97-21.985l-13.641 6.95c2.124 4.57 3.314 9.663 3.314 15.035z"/>
    <path d="m90.915 54.538c5.372 0 10.465 1.189 15.035 3.314l6.95-13.641c-6.658-3.184-14.113-4.97-21.985-4.97s-15.327 1.786-21.985 4.97l6.95 13.641c4.57-2.125 9.663-3.314 15.035-3.314z"/>
    <path d="m112.9 136.311-6.95-13.641c-4.57 2.125-9.663 3.314-15.035 3.314s-10.465-1.189-15.035-3.314l-6.95 13.641c6.658 3.184 14.112 4.97 21.985 4.97s15.327-1.786 21.985-4.97z"/></g>
</svg>