<svg height="180" viewBox="0 0 180 180" width="180" xmlns="http://www.w3.org/2000/svg">
    <circle cx="90" cy="90" fill="#b4e5fa" opacity=".6" r="85"/>
    <path d="m174.069 77.432c-13.616 3.724-29.418 9.766-43.44 12.634-18.901 3.865-69.737 7.086-93.2-1.288-7.356-2.626-19.261-4.364-32.138-5.514-.175 2.225-.29 4.466-.29 6.736 0 46.944 38.056 85 85 85s85-38.056 85-85c0-4.271-.323-8.466-.931-12.568z" fill="#98d7f2" fillRule="evenodd"/>
    <path d="m159.109 118.817c-1.5 0-2.94.31-4.25.88.2-.84.3-1.72.3-2.62-.019-5.677-4.186-10.319-9.43-10.648v32.729h2.955c.427-.296.832-.625 1.205-.991.235.346.491.674.758.991h8.674c3.447-4.852 6.407-10.071 8.787-15.604-2.084-2.877-5.335-4.738-8.999-4.738z" fill="#006a22"/>
    <path d="m24.899 117.486c0 .9.1 1.78.3 2.62-1.31-.57-2.75-.88-4.25-.88-3.618 0-6.836 1.812-8.922 4.628 2.291 5.269 5.104 10.254 8.367 14.904h9.637c.044-.062.096-.118.139-.181.065.064.136.12.202.181h4.106v-31.927c-5.314.249-9.559 4.925-9.579 10.656z" fill="#006a22"/>
    <path d="m18.302 135.63c15.091 23.663 41.552 39.37 71.698 39.37s56.607-15.707 71.698-39.37z" fill="#99c742"/>
    <path d="m157.776 141.249c1.378-1.819 2.691-3.69 3.922-5.619h-15.123v5.619z" fill="#d6cfbf"/>
    <path d="m117.683 103.808v-28.101h-87.376v65.542h117.718v-37.441z" fill="#c2783a"/>
    <path d="m127.022 75.707h-106.096l14.381-26.05h77.376z" fill="#274059"/>
    <path d="m30.307 77.665h87.376v3.113h-87.376z" fill="#945a32"/>
    <path d="m102.075 39.04h6.766v14.61h-6.766z" fill="#c2783a"/>
    <path d="m101.038 38.749h8.841v2.574h-8.841z" fill="#bac5ce"/>
    <path d="m117.683 105.365h30.343v2.922h-30.343z" fill="#945a32"/>
    <path d="m155.123 103.808h-37.44v-21.833h26.173z" fill="#274059"/>
    <path d="m20.926 75.665h106.428v3.113h-106.428z" fill="#bac5ce"/>
    <path d="m117.683 103.808h37.441v3.113h-37.441z" fill="#bac5ce"/>
    <path d="m64.634 113.148h18.72v28.101h-18.72z" fill="#274059"/>
    <path d="m67 115.721h13.947v25.528h-13.947z" fill="#ffb83d"/>
    <circle cx="79.257" cy="128.755" fill="#274059" r=".759"/>
    <path d="m88.626 115.051h-29.263l3.652-9.243h21.959z" fill="#274059"/>
    <path d="m59.363 114.927h29.263v2.324h-29.263z" fill="#bac5ce"/>
    <path d="m94.272 85.088h15.607v18.72h-15.607z" fill="#274059"/>
    <path d="m97.426 88.74h9.298v15.068h-9.298z" fill="#98d7f2"/>
    <path d="m66.17 85.088h15.607v18.72h-15.607z" fill="#274059"/>
    <path d="m69.325 88.74h9.298v15.068h-9.298z" fill="#98d7f2"/>
    <path d="m38.11 85.088h15.607v18.72h-15.607z" fill="#274059"/>
    <path d="m41.265 88.74h9.298v15.068h-9.298z" fill="#98d7f2"/>
    <path d="m94.272 114.849h15.607v18.72h-15.607z" fill="#274059"/>
    <path d="m97.426 118.502h9.298v15.068h-9.298z" fill="#98d7f2"/>
    <path d="m38.11 114.849h15.607v18.72h-15.607z" fill="#274059"/>
    <path d="m41.265 118.502h9.298v15.068h-9.298z" fill="#98d7f2"/>
    <path d="m124.199 114.849h15.607v18.72h-15.607z" fill="#274059"/>
    <path d="m127.354 118.502h9.298v15.068h-9.298z" fill="#98d7f2"/>
    <path d="m83.355 141.249h-18.72l-14.209 23.978c11.818 6.237 25.28 9.773 39.574 9.773 4.346 0 8.612-.337 12.782-.966z" fill="#d6cfbf"/>
</svg>