<?xml version="1.0" encoding="UTF-8"?>
<svg id="Layer_1" data-name="Layer 1" xmlns="http://www.w3.org/2000/svg" width="180" height="180" viewBox="0 0 180 180">
  <defs>
    <style>
      .cls-1 {
        fill: #fff;
      }

      .cls-2 {
        fill: #b4e5fa;
        isolation: isolate;
        opacity: .6;
      }

      .cls-3 {
        fill: #0069aa;
        stroke: #fff;
        stroke-miterlimit: 10;
        stroke-width: 3px;
      }
    </style>
  </defs>
  <circle class="cls-2" cx="90" cy="90" r="85"/>
  <g id="Arrow">
    <path id="arrow" class="cls-3" d="M89.995,29.642c2.977,0,5.77,1.294,7.841,3.635l45.764,51.492c3.009,3.387,2.61,5.911,2.103,7.108-.507,1.208-2.039,3.247-6.525,3.247h-16.524v50.478c0,2.621-2.071,4.757-4.606,4.757H61.951c-2.545,0-4.606-2.136-4.606-4.757v-50.478h-16.524c-4.498,0-6.019-2.039-6.525-3.247s-.906-3.732,2.103-7.108l45.764-51.502c2.06-2.33,4.843-3.624,7.831-3.624Z"/>
    <path id="_" data-name="%" class="cls-1" d="M109.46,97.452v5.285c0,4.856-3.575,7.31-7.739,7.31s-7.739-2.455-7.739-7.31v-5.285c0-4.856,3.575-7.31,7.739-7.31s7.739,2.455,7.739,7.31Zm-10.462,.268v4.748c0,2.079,1.066,3.044,2.723,3.044,1.603,0,2.669-.959,2.669-3.044v-4.748c0-2.079-1.066-3.098-2.669-3.098-1.65,0-2.723,1.013-2.723,3.098Zm-21.133,12.011l17.987-37.999h5.445l-17.987,37.999s-5.445,0-5.445,0Zm7.364-31.011v5.285c0,4.856-3.575,7.31-7.739,7.31s-7.739-2.455-7.739-7.31v-5.285c0-4.856,3.575-7.31,7.739-7.31s7.739,2.449,7.739,7.31Zm-10.462,.262v4.748c0,2.079,1.066,3.098,2.723,3.098,1.603,0,2.723-1.013,2.723-3.098v-4.748c0-2.079-1.12-3.044-2.723-3.044-1.656,.006-2.723,.965-2.723,3.044Z"/>
  </g>
</svg>