<?xml version="1.0" encoding="UTF-8"?>
<svg id="Layer_11" data-name="Layer 11" xmlns="http://www.w3.org/2000/svg" width="180" height="180" viewBox="0 0 180 180">
  <defs>
    <style>
      .cls-1 {
        fill: #004c97;
      }

      .cls-2 {
        fill: #003b6b;
      }

      .cls-3, .cls-4 {
        fill: #00243d;
      }

      .cls-5 {
        fill: #696969;
      }

      .cls-6, .cls-7, .cls-8 {
        fill: #fff;
      }

      .cls-9, .cls-10 {
        fill: #98d7f2;
      }

      .cls-11, .cls-12 {
        fill: #bac4ce;
      }

      .cls-13 {
        fill: #9ba8b6;
      }

      .cls-14 {
        fill: #b4e5fa;
        isolation: isolate;
        opacity: .6;
      }

      .cls-7 {
        font-family: PNCBrand-Bold, 'PNC Brand';
        font-size: 16.358px;
        font-weight: 700;
      }

      .cls-15 {
        fill: #f9980d;
      }

      .cls-15, .cls-16, .cls-10, .cls-12, .cls-17, .cls-18, .cls-8, .cls-19, .cls-4 {
        fillRule: evenodd;
      }

      .cls-16 {
        fill: #99c742;
      }

      .cls-17 {
        fill: #945a32;
      }

      .cls-18 {
        fill: #c2783a;
      }

      .cls-19 {
        fill: #ef6a00;
      }
    </style>
  </defs>
  <g id="Layer_1" data-name="Layer 1">
    <circle class="cls-14" cx="90" cy="90" r="85"/>
    <path class="cls-10" d="m174.069,77.432c-13.616,3.724-29.418,9.766-43.44,12.634-18.901,3.865-69.737,7.086-93.2-1.288-7.356-2.626-19.261-4.364-32.138-5.514-.175,2.225-.29,4.466-.29,6.736,0,46.944,38.056,85,85,85s85-38.056,85-85c0-4.271-.323-8.466-.931-12.568Z"/>
    <path class="cls-16" d="m174.909,93.579c-10.989-13.752-28.774-20.404-45.741-15.425-5.455,1.601-10.361,4.265-14.517,7.735-.169-3.268-.745-6.575-1.705-9.848-6.129-20.626-26.233-33.061-45.654-28.661l4.604,103.928,82.78-6.187c11.94-13.996,19.418-31.904,20.232-51.543Z"/>
    <path class="cls-5" d="m22.608,141.775c15.54,20.197,39.938,33.225,67.392,33.225s51.852-13.028,67.392-33.225H22.608Z"/>
    <g>
      <path class="cls-18" d="m5,90c0,19.484,6.571,37.424,17.596,51.76h63.824V27.714l-26.505-17.217C27.824,22.647,5,53.651,5,90Z"/>
      <path class="cls-17" d="m86.421,40.682v-10.157l-29.197-18.967c-3.067,1.283-6.034,2.752-8.906,4.372l38.103,24.752Z"/>
      <path class="cls-8" d="m5,90c0,19.491,6.576,37.437,17.608,51.775h43.227V45.394H17.646c-8.012,12.968-12.646,28.243-12.646,44.606Z"/>
      <path class="cls-12" d="m5,90c0,19.478,6.567,37.414,17.587,51.748h39.975V51.242H14.359c-5.969,11.625-9.359,24.792-9.359,38.758Z"/>
      <path class="cls-4" d="m52.453,13.739l44.619,28.985v-10.157L61.959,9.757c-3.264,1.141-6.438,2.468-9.506,3.982Z"/>
      <g>
        <path class="cls-13" d="m62.562,119.404v-1.65H9.66c.19.55.368,1.106.568,1.65h52.334Z"/>
        <path class="cls-13" d="m62.562,97.319v-1.65H5.209c.036.552.079,1.102.125,1.65h57.227Z"/>
        <path class="cls-13" d="m62.562,73.584H6.599c-.107.547-.198,1.1-.295,1.65h56.257v-1.65Z"/>
        <path class="cls-13" d="m62.562,141.775v-1.65H21.366c.407.556.822,1.105,1.242,1.65h39.953Z"/>
        <path class="cls-13" d="m13.382,53.149h49.18v-4.463H15.718c-.816,1.465-1.605,2.947-2.336,4.463Z"/>
      </g>
    </g>
    <g>
      <g>
        <rect class="cls-3" x="41.218" y="85.415" width="3.021" height="2.162"/>
        <path class="cls-1" d="m31.518,84.308c.019.187.057.367.113.54.456,1.418,2.065,2.353,3.354,2.556,1.722.27,6.973.173,6.973.173v-5.991c0-.756-.595-1.408-1.474-1.352-1.865.121-4.997.398-6.358.923-1.348.521-2.088,1.127-2.416,1.835-.115.248-.179.51-.2.785-.014.171-.009.348.008.531Z"/>
      </g>
      <g>
        <path d="m34.73,143.81c0,2.173,1.629,3.935,3.639,3.935h9.245c2.01,0,3.638-1.762,3.638-3.935v-20.094c0-2.174-1.628-3.936-3.638-3.936h-9.245c-2.01,0-3.639,1.762-3.639,3.936v20.094Z"/>
        <path d="m145.372,144.091c0,2.173-1.629,3.935-3.638,3.935h-9.245c-2.01,0-3.639-1.762-3.639-3.935v-20.094c0-2.174,1.629-3.935,3.639-3.935h9.245c2.009,0,3.638,1.761,3.638,3.935v20.094Z"/>
      </g>
      <g>
        <rect class="cls-3" x="135.761" y="85.415" width="3.022" height="2.162"/>
        <path class="cls-1" d="m148.481,84.308c-.019.187-.057.367-.112.54-.456,1.418-2.065,2.353-3.355,2.556-1.722.27-6.973.173-6.973.173v-5.991c0-.756.596-1.408,1.474-1.352,1.865.121,4.998.398,6.359.923,1.348.521,2.088,1.127,2.416,1.835.115.248.179.51.2.785.014.171.009.348-.008.531Z"/>
      </g>
      <polygon class="cls-9" points="136.337 87.467 132.756 89.328 89.415 91.68 71.919 91.006 53.81 90.306 47.938 88.487 44.653 87.467 47.715 78.157 50.716 71.102 52.844 66.79 55.456 63.166 57.102 61.989 79.545 60.616 115.536 60.616 121.631 61.498 124.484 62.782 125.114 63.068 127.241 66.105 130.628 72.866 133.725 80.212 136.337 87.467"/>
      <path class="cls-6" d="m111.977,62.782c-22.822,7.437-34.522,20.195-46.216,29.29l-11.952-1.766-5.872-1.82c3.742-3.581,19.592-20.28,38.086-27.871h17.005l6.095.882,2.853,1.284Z"/>
      <path class="cls-1" d="m145.959,100.663c-.003-.043-.007-.088-.013-.133-.001-.017-.002-.035-.005-.054-.022-.21-.049-.427-.081-.647-.047-.325-.104-.655-.169-.984-.001-.005-.002-.01-.003-.015-.143-.712-.32-1.405-.499-1.965-.071-.22-.138-.42-.209-.595-.394-1.002-.924-1.863-1.51-2.59-.511-.639-1.057-1.177-1.596-1.619-.447-.368-1.042-.779-1.655-1.173-1.192-.753-2.465-1.453-2.943-1.709-.12-.066-.19-.103-.194-.105-.013-.054-.033-.116-.055-.183-.049-.161-.113-.366-.193-.611-.373-1.175-1.058-3.235-1.884-5.555-.061-.176-.122-.351-.188-.528-1.033-2.876-2.25-6.075-3.353-8.452-.617-1.336-1.508-3.186-2.274-4.739-.46-.932-.921-1.735-1.193-2.283-1.978-3.997-4.437-5.375-7.768-5.984-1.661-.302-8.736-.614-9.615-.636-1.119-.022-2.259-.046-3.405-.07h-.003c-3.069-.058-6.178-.113-9.004-.159-3.19-.05-6.019-.081-8.019-.088h-.253c-2.74.007-7.033.07-11.685.15-2.447.046-4.995.092-7.47.141-.583.014-1.159.024-1.726.038-.702.016-7.23.358-9.18.625-3.245.445-5.707,2.51-7.753,5.984-.829,1.406-2.459,4.867-3.471,7.022-.517,1.098-1.969,5.026-3.273,8.633-.93,2.566-1.783,4.968-2.175,6.066-.1.28-.167.475-.204.569-.009.04-.018.062-.018.062-.007.002-.09.046-.238.129-.78.42-3.276,1.798-4.554,2.857-.114.094-.229.189-.342.291-.447.396-.895.865-1.317,1.4-.561.712-1.066,1.545-1.452,2.518-.111.28-.224.63-.335,1.024-.134.469-.262.997-.369,1.537-.001.005-.002.01-.003.015-.066.327-.124.658-.172.983-.035.239-.065.475-.088.701-.005.045-.009.089-.013.133-.025.284-.039.553-.039.8,0,.063,0,.128.001.198.001.507.01,1.191.03,1.955.005.216.009.438.015.665v.002c.002.127.005.256.008.387.007.294.015.593.022.891.009.34.018.679.026,1.012.009.26.018.512.024.754.047,1.764.093,8.957.093,8.957h.006c.006,1.196.015,3.112.03,4.222.005.448.013.764.019.849.146,1.662.576,6.163,1.19,9.119.157.773.33,1.442.515,1.925,1.023,2.692.88,3.86,4.395,3.86h99.255c3.515,0,3.372-1.169,4.394-3.86.185-.483.359-1.152.517-1.925.613-2.956,1.043-7.458,1.186-9.119.026-.296.043-3.393.05-5.071h.003v-.215c.009-.905.037-4.481.067-6.877.009-.8.018-1.468.031-1.865.009-.384.025-.788.034-1.193.006-.192.01-.384.015-.578.008-.3.016-.598.023-.892.003-.14.006-.279.009-.416.008-.36.015-.709.021-1.04.01-.596.019-1.13.021-1.547.001-.07.001-.135.001-.198,0-.246-.015-.516-.041-.8Zm-99.225-16.395c.907-3.371,3.773-12.742,9.452-20.468,0,0,30.089-3.524,67.531-.193,0,0,4.755,4.992,9.865,20.16.193.579.388,1.177.585,1.786,0,0-.718.084-2.074.221-8.687.881-43.63,3.864-84.307-.086-.453-.043-.912-.089-1.372-.135,0,0,.105-.466.32-1.285Z"/>
      <path class="cls-3" d="m43.387,88.446c-.098.279-.167.473-.203.567-.011.041-.02.062-.02.062-.006.003-.09.047-.239.13l-.547,13.546.572-.094.436-14.211Z"/>
      <polygon class="cls-3" points="53.78 103.919 54.396 104.507 127.088 104.507 127.704 103.919 53.78 103.919"/>
      <path class="cls-3" d="m137.327,89.075c-.014-.053-.035-.115-.055-.182-.05-.161-.116-.368-.194-.612l-.18,14.202-1.87.05,2.442.046.051-13.399c-.122-.068-.191-.103-.194-.106Z"/>
      <path d="m116.779,107.821v.44c0,.069-.007.14-.025.212-.018.074-.043.154-.075.233,0,.003-.004.005-.004.008-.121.292-.35.599-.64.904-.633.655-1.577,1.301-2.495,1.757-.787.392-1.552.647-2.085.647h-42.427c-.533,0-1.298-.255-2.084-.647-.915-.456-1.862-1.103-2.491-1.757-.293-.305-.522-.612-.644-.904,0-.003-.003-.005-.003-.008-.032-.079-.057-.159-.072-.233-.018-.072-.025-.143-.025-.212v-.44c0-.517.157-.997.436-1.402.511-.753,1.423-1.254,2.467-1.254h47.264c1.04,0,1.952.501,2.463,1.254.279.406.44.885.44,1.402Z"/>
      <path class="cls-2" d="m145.78,115.216s0,.083-.002.229c-.002,1.071-.021,5.55-.052,5.909-.143,1.662-.573,6.163-1.186,9.119-.158.773-.331,1.442-.517,1.925-1.023,2.692-.88,3.86-4.394,3.86H40.374c-3.514,0-3.372-1.169-4.395-3.86-.185-.483-.359-1.152-.515-1.925-.614-2.956-1.044-7.458-1.19-9.119-.006-.085-.014-.401-.019-.849-.019-1.442-.029-4.244-.035-5.06v-.229l.771.039,13.437.661,9.891.489,31.681,1.561,41.571-2.049,13.44-.661.768-.039Z"/>
      <g>
        <g>
          <path d="m54.678,123.982s-5.614-.26-15.97-.669c0,0-1.505,0-.456,2.772,0,0,.959,3.202,4.916,5.38.06.033.129.046.195.068,0,0,2.464,1.242,12.137,1.051,0,0,2.281.286,1.917-2.582l-.548-4.587s-.092-1.314-2.19-1.433Z"/>
          <path class="cls-11" d="m45.169,127.958c0,1.946,1.474,3.533,3.322,3.597.04.005.08.005.121.005,1.897,0,3.438-1.613,3.438-3.602s-1.529-3.59-3.416-3.601h-.022c-1.902,0-3.442,1.614-3.442,3.601Z"/>
        </g>
        <g>
          <path d="m125.322,123.982s5.614-.26,15.97-.669c0,0,1.505,0,.456,2.772,0,0-.959,3.202-4.916,5.38-.06.033-.129.046-.195.068,0,0-2.464,1.242-12.137,1.051,0,0-2.281.286-1.917-2.582l.548-4.587s.092-1.314,2.19-1.433Z"/>
          <path class="cls-11" d="m134.831,127.958c0,1.946-1.474,3.533-3.322,3.597-.04.005-.08.005-.121.005-1.897,0-3.438-1.613-3.438-3.602s1.529-3.59,3.416-3.601h.022c1.902,0,3.442,1.614,3.442,3.601Z"/>
        </g>
      </g>
      <g>
        <path class="cls-11" d="m145.803,107.177c.029-.211.065-.472.099-.713.003-.112.007-.219.01-.331.006-.192.01-.384.015-.577.008-.3.016-.598.023-.892.003-.139.006-.279.009-.416.008-.36.015-.709.021-1.04.01-.596.019-1.13.021-1.547.001-.07.001-.135.001-.198,0-.246-.015-.516-.041-.8-.003-.043-.007-.088-.013-.133-.001-.017-.002-.035-.005-.054-.022-.211-.049-.427-.081-.648-.046-.316-.102-.638-.165-.957-.775.084-1.48.171-1.901.206-.029.002-.054.005-.083.01-5.585.824-11.217,1.8-16.214,2.904-.034.005-.065.014-.098.021-2.39,1.36-4.778,2.958-7.093,4.847l-.058.05c-1.007.886-.433,2.548.906,2.613,2.492.12,6.214.17,11.185-.102,0,0,2.684-.024,12.128-.963.686-.068,1.239-.596,1.334-1.279Z"/>
        <path class="cls-6" d="m145.951,100.578c-.002-.016-.002-.032-.004-.048-.001-.017-.002-.035-.005-.054-.022-.211-.049-.427-.081-.648-.046-.316-.102-.638-.165-.957-.8.087-1.524.176-1.94.21-5.599.826-11.247,1.804-16.257,2.91-2.427,1.413-4.839,3.026-7.192,4.868,2.125-.656,4.547-1.358,7.269-2.084.611-.162,1.236-.327,1.876-.492.312-.081.63-.161.951-.243.574-.147,1.16-.292,1.757-.439h.001c.207-.051.418-.103.627-.154h.001c.736-.18,1.487-.36,2.257-.54.337-.08.675-.158,1.019-.237h.002c.032-.007.063-.015.095-.022h.001c1.131-.261,2.303-.523,3.509-.781.676-.145,1.364-.292,2.065-.439.368-.079.741-.157,1.118-.235,1.006-.205,2.041-.408,3.095-.613Z"/>
      </g>
      <g>
        <path class="cls-11" d="m58.592,109.52c1.326-.064,1.893-1.71.896-2.586l-.085-.075c-2.315-1.889-4.704-3.487-7.093-4.847-.032-.007-.064-.016-.098-.021-5.01-1.106-10.658-2.084-16.257-2.91-.365-.03-.97-.102-1.653-.178-.061.308-.116.62-.162.925-.036.239-.065.475-.088.701-.005.045-.009.089-.013.133-.025.284-.039.553-.039.8,0,.063,0,.128.001.198.001.507.01,1.191.03,1.955.005.216.009.438.015.665v.002c.002.127.005.256.008.387.007.294.015.592.022.891.009.34.018.68.026,1.013.009.259.018.513.024.754.007.245.013.601.019,1.02,10.331,1.047,13.224,1.074,13.224,1.074,4.996.273,8.731.221,11.223.1Z"/>
        <path class="cls-6" d="m43.547,102.647c.032.007.063.015.095.022h.002c.344.079.682.157,1.019.237.77.18,1.521.36,2.257.54h.001c.209.052.42.103.627.154h.001c.597.148,1.183.293,1.757.439.321.082.638.162.951.243.641.165,1.265.33,1.876.492,2.723.726,5.144,1.429,7.27,2.084-2.353-1.842-4.764-3.455-7.192-4.868-5.01-1.106-10.658-2.084-16.257-2.91-.365-.03-.97-.102-1.653-.178-.061.308-.116.62-.162.925-.036.239-.065.475-.088.701-.004.035-.007.069-.01.104.953.186,1.898.371,2.813.557.376.078.749.156,1.119.235.7.147,1.388.294,2.064.439,1.207.259,2.378.521,3.509.781h.001Z"/>
      </g>
      <path d="m119.992,128.968v.464c.002.113-.006.225-.023.334-.189,1.378-1.567,2.451-3.244,2.455l-53.33.144c-1.677.005-3.063-1.06-3.258-2.438-.018-.109-.026-.22-.026-.333v-.464c-.005-1.535,4.184-3.95,5.994-3.955l47.871-.13c1.81-.005,6.012,2.388,6.016,3.922Z"/>
    </g>
    <polygon class="cls-19" points="124.074 84.219 89.376 85.415 88.355 65.087 118.341 65.087 124.074 84.219"/>
    <path class="cls-8" d="m118.114,79.373l-12.633.486c-.555.021-1.029-.395-1.081-.947l-.447-4.797c-.057-.608.417-1.134,1.028-1.142l11.897-.146c.479-.006.9.314,1.023.777l1.183,4.458c.172.647-.301,1.287-.97,1.312Z"/>
    <path class="cls-15" d="m88.355,65.087l.446,8.89c4.874-3.219,10.402-6.268,16.904-8.89h-17.35Z"/>
    <text class="cls-7" transform="translate(92.83 80.828) rotate(-4.53)"><tspan x="0" y="0">$</tspan></text>
  </g>
</svg>