<svg height="180" viewBox="0 0 180 180" width="180" xmlns="http://www.w3.org/2000/svg"><circle cx="89.535" cy="90" fill="#b4e5fa" opacity=".6" r="85"/><path d="m69.963 100.452h103.909c.421-3.428.663-6.911.663-10.452 0-29.95-15.504-56.263-38.91-71.403h-65.662s0 81.855 0 81.855z" fill="#98d7f2" fillRule="evenodd"/><path d="m76.507 2.053h81.855v104.942h-81.855z" fill="#fff" transform="matrix(0 1 -1 0 171.959 -62.909)"/><path d="m78.931 4.789h77.005v99.654h-77.005z" fill="#004c97" transform="matrix(0 1 -1 0 172.051 -62.818)"/><path d="m156.799 22.239h-78.73c-.377 2.152-2.049 3.858-4.187 4.277v56.108c2.108.414 3.765 2.076 4.173 4.186h78.758c.408-2.11 2.066-3.772 4.173-4.186v-56.107c-2.138-.42-3.81-2.125-4.187-4.277z" fill="#fff" fillRule="evenodd"/><g fill="#77808a"><rect height="5.252" rx="1.015" width="55.167" x="89.851" y="46.157"/><rect height="5.252" rx=".826" width="36.55" x="99.159" y="54.198"/><rect height="5.252" rx=".69" width="25.455" x="78.467" y="72.481"/><rect height="5.252" rx=".69" width="25.455" x="130.946" y="72.481"/></g><path d="m117.443 87.859c-.452 0-.885-.193-1.188-.53l-.519-.58-.671.393c-.246.143-.522.217-.803.217-.632 0-1.204-.372-1.46-.949l-.314-.712-.76.165c-.11.024-.226.037-.34.037-.819 0-1.5-.616-1.584-1.432l-.079-.774-.774-.078c-.451-.045-.863-.281-1.13-.649-.267-.367-.364-.832-.268-1.274l.163-.758-.712-.312c-.416-.184-.734-.535-.874-.967-.141-.431-.09-.903.138-1.294l.391-.673-.58-.518c-.339-.302-.533-.734-.533-1.188 0-.453.192-.887.53-1.189l.58-.519-.392-.673c-.229-.39-.28-.861-.141-1.292.14-.432.457-.785.872-.969l.712-.314-.165-.76c-.097-.441 0-.906.267-1.272.266-.368.677-.605 1.128-.651l.774-.079.078-.774c.081-.817.763-1.435 1.585-1.435.112 0 .226.012.336.035l.761.165.313-.713c.253-.577.826-.952 1.459-.952.282 0 .56.076.804.219l.67.389.518-.58c.3-.339.734-.533 1.189-.533s.887.193 1.188.532l.518.578.672-.393c.245-.143.521-.217.803-.217.631 0 1.203.372 1.459.949l.314.712.759-.165c.111-.024.227-.037.341-.037.821 0 1.503.617 1.584 1.435l.079.771.774.078c.45.045.862.28 1.129.647.267.366.365.831.271 1.273l-.164.761.711.312c.415.183.733.534.874.965s.092.902-.136 1.295l-.393.674.58.518c.338.3.532.732.533 1.186 0 .454-.192.888-.53 1.191l-.579.519.392.673c.229.392.279.863.14 1.294s-.458.783-.872.967l-.712.314.165.76c.097.441 0 .906-.267 1.272-.266.368-.677.605-1.128.651l-.774.079-.078.774c-.081.817-.763 1.435-1.585 1.435-.112 0-.226-.012-.336-.035l-.761-.165-.312.712c-.256.579-.828.953-1.46.953-.281 0-.559-.075-.802-.218l-.672-.39-.518.58c-.3.339-.734.533-1.189.533z" fill="#e5a022"/><path d="m117.425 65.133c.149 0 .297.06.406.181l.793.887c.106.119.255.181.406.181.094 0 .188-.024.274-.074l1.028-.6c.087-.051.181-.074.274-.074.208 0 .408.119.499.325l.481 1.088c.089.2.286.325.498.325.038 0 .077-.004.116-.012l1.163-.253c.039-.009.078-.013.117-.013.273 0 .512.206.541.489l.121 1.184c.026.257.23.461.487.487l1.184.119c.323.032.547.339.478.657l-.251 1.163c-.055.253.076.509.313.613l1.089.479c.297.131.415.491.252.772l-.598 1.029c-.13.224-.085.508.108.68l.888.792c.242.216.243.595 0 .812l-.887.793c-.193.172-.238.457-.107.68l.6 1.028c.164.281.047.641-.25.773l-1.088.481c-.237.104-.367.361-.312.614l.253 1.163c.069.318-.154.625-.477.657l-1.184.121c-.257.026-.461.23-.486.487l-.119 1.184c-.028.284-.268.49-.541.49-.038 0-.077-.004-.116-.012l-1.163-.251c-.038-.008-.077-.012-.115-.012-.212 0-.41.125-.498.326l-.479 1.089c-.09.206-.291.326-.499.326-.093 0-.187-.024-.273-.074l-1.029-.598c-.085-.05-.18-.074-.273-.074-.151 0-.3.063-.407.182l-.792.888c-.108.121-.257.182-.406.182s-.297-.06-.406-.181l-.793-.887c-.106-.119-.255-.182-.406-.182-.094 0-.188.024-.274.074l-1.028.6c-.087.051-.181.074-.274.074-.208 0-.408-.119-.499-.325l-.481-1.088c-.089-.2-.286-.324-.498-.325-.038 0-.077.004-.116.013l-1.163.253c-.039.009-.078.013-.117.013-.272 0-.512-.206-.541-.489l-.121-1.184c-.026-.257-.23-.461-.487-.486l-1.184-.119c-.323-.032-.546-.339-.478-.657l.251-1.163c.055-.253-.076-.509-.313-.613l-1.089-.479c-.297-.131-.415-.491-.252-.772l.598-1.029c.13-.224.085-.508-.108-.68l-.888-.792c-.243-.216-.243-.595 0-.812l.887-.793c.193-.172.238-.457.107-.68l-.6-1.028c-.164-.281-.047-.641.25-.773l1.088-.481c.237-.104.367-.361.312-.614l-.253-1.163c-.069-.318.154-.624.477-.657l1.184-.121c.257-.026.461-.23.487-.487l.119-1.184c.028-.284.268-.49.541-.49.038 0 .077.004.116.012l1.163.251c.038.008.077.012.115.012.212 0 .41-.125.498-.325l.479-1.089c.09-.206.291-.326.499-.326.093 0 .187.024.273.074l1.029.598c.085.05.18.074.273.074.151 0 .3-.063.407-.182l.792-.888c.108-.121.257-.182.406-.182m0-2.099c-.727 0-1.422.3-1.92.827-.387-.21-.821-.32-1.26-.32-1.023 0-1.952.59-2.388 1.509-.159-.029-.321-.044-.482-.044-1.337 0-2.45.984-2.62 2.302-.718.095-1.368.482-1.794 1.069s-.591 1.326-.458 2.037c-.653.312-1.152.88-1.376 1.571s-.153 1.444.193 2.079c-.525.499-.824 1.194-.823 1.92 0 .726.301 1.42.827 1.917-.345.637-.415 1.39-.19 2.08s.725 1.257 1.378 1.568c-.132.712.035 1.45.462 2.037s1.078.972 1.796 1.065c.173 1.315 1.286 2.298 2.62 2.298.163 0 .326-.015.486-.045.437.917 1.365 1.505 2.386 1.505.441 0 .876-.111 1.264-.322.498.524 1.192.823 1.917.823s1.422-.3 1.92-.827c.386.21.82.32 1.26.32 1.023 0 1.951-.59 2.388-1.509.159.029.32.044.482.044 1.337 0 2.45-.984 2.62-2.302.717-.095 1.368-.481 1.794-1.069s.591-1.326.458-2.037c.653-.312 1.152-.88 1.376-1.57.224-.691.153-1.444-.193-2.08.525-.499.824-1.193.823-1.919 0-.726-.301-1.42-.827-1.918.345-.636.415-1.39.19-2.08s-.725-1.258-1.379-1.568c.132-.711-.035-1.449-.462-2.036s-1.078-.973-1.796-1.066c-.172-1.315-1.285-2.298-2.62-2.298-.163 0-.326.015-.486.045-.437-.917-1.365-1.505-2.386-1.505-.441 0-.877.111-1.264.322-.498-.524-1.192-.823-1.917-.823z" fill="#fff"/><path d="m127.333 37.449c-.055.078-.113.143-.17.2l-.346.351h-.764l-.136-.032c-.405-.097-.824-.146-1.243-.146-2.146 0-4.326 1.266-6.029 3.486v.788l-1.252.05c-.357 0-.706-.144-.957-.395l-.071-.071-.058-.082c-1.698-2.403-3.961-3.781-6.209-3.781-.125 0-.251.004-.376.013v.17l-1.219.05c-.24 0-.475-.069-.682-.2-.368-.199-.653-.592-.653-1.16l.413-6.727-5.6-2.513c-.561-.283-.881-.793-.894-1.361-.034-.731.498-1.372 1.224-1.473l14.779-4.571h.553l15.108 4.632.066.029c.387.173.692.481.862.868l.094.214.005.234c.013.589-.319 1.142-.846 1.406l-4.128 1.837c.083.133.164.281.242.451l.028.062.021.065c.442 1.348.784 2.737 1.018 4.14.526.434.841 1.093.826 1.804 0 .117-.006.245-.031.379l2.47 5.943-5.532 1.158-.516-5.818z" fill="#004c97" fillRule="evenodd"/><path d="m117.467 21.223 14.871 4.56c.118.052.213.146.265.265.002.139-.075.267-.198.33l-5.946 2.644c.793.396 1.124.33 1.521 1.189.481 1.465.835 2.969 1.057 4.495.445.159.738.585.728 1.057 0 .33-.066.264-.132.396l2.115 5.089-2.842.595-.463-5.221c-.423-.175-.689-.6-.661-1.057.033-.285.176-.546.397-.728-.217-1.462-.571-2.901-1.058-4.296-.265-.661-1.322-.991-2.049-1.256-2.71-1.057-5.354-2.049-8.063-2.908-.05-.007-.097-.03-.132-.066-.074.218.043.454.261.528.001 0 .003 0 .004.001 2.114.794 4.292 1.721 7.2 3.108l-6.874 3.042c-.038.033-.085.049-.132.049s-.094-.016-.132-.049l-14.739-6.614c-.123-.063-.2-.19-.198-.328-.013-.133.085-.252.219-.265.008 0 .015-.001.023-.001s.015 0 .023.001l14.739-4.56h.198m-8.724 9.054 7.997 3.637c.186.099.391.148.595.148s.409-.049.595-.148l8.063-3.569.396 6.345q0 .066-.066.132h-.132c-.5-.12-1.008-.179-1.517-.179-2.586 0-5.219 1.516-7.207 4.276 0 .033-.033.05-.074.05s-.091-.016-.124-.05c-1.979-2.802-4.597-4.281-7.172-4.281-.521 0-1.041.061-1.553.183 0 .033-.016.05-.041.05s-.058-.016-.091-.05c-.066 0-.066-.066-.066-.132l.396-6.413m9.077-11.411h-.907l-.34.105-14.53 4.495c-1.269.229-2.188 1.369-2.133 2.666.029.995.589 1.885 1.482 2.341l.053.027.054.024 4.856 2.179-.361 5.841-.005.073v.073c0 .988.496 1.724 1.162 2.13.402.266.868.408 1.351.408.319 0 .624-.063.903-.177.228-.037.459-.056.691-.056 1.861 0 3.773 1.197 5.247 3.284l.116.164.142.142c.47.47 1.123.74 1.79.74.867 0 1.629-.451 2.059-1.129 1.498-2.033 3.396-3.196 5.222-3.196.327 0 .653.038.969.114l.27.065h.389l.255 2.873.234 2.641 2.595-.543 2.842-.595 2.786-.583-1.092-2.628-1.809-4.352c.005-.081.006-.158.006-.23.019-.883-.321-1.728-.911-2.365-.215-1.191-.505-2.372-.866-3.526l3.017-1.342.057-.025.056-.028c.918-.468 1.5-1.436 1.484-2.466l-.007-.477-.192-.436c-.29-.659-.813-1.181-1.472-1.471l-.126-.056-.132-.041-14.871-4.56-.338-.104z" fill="#fff"/><ellipse cx="59.212" cy="110.889" fill="#fff" rx="41.136" ry="39.901"/><path d="m99.769 117.596c-3.288 18.843-20.195 33.194-40.557 33.194-22.719 0-41.136-17.864-41.136-39.901s18.417-39.901 41.136-39.901c4.319 0 8.482.646 12.393 1.843" fill="none" stroke="#009adc" stroke-linecap="round" stroke-miterlimit="10" stroke-width="3.718"/><path d="m88.306 82.681c.887.861 1.733 1.76 2.536 2.696" fill="none" stroke="#009adc" stroke-linecap="round" stroke-miterlimit="10" stroke-width="3.718"/><path d="m78.191 75.479c1.551.784 3.043 1.66 4.47 2.622" fill="none" stroke="#009adc" stroke-linecap="round" stroke-miterlimit="10" stroke-width="3.718"/><ellipse cx="59.212" cy="110.889" fill="#ed6a00" rx="31.742" ry="30.789"/><path d="m45.752 123.081 4.193-4.201c1.756 1.764 4.209 2.697 7.343 2.781v-8.377l-1.479-.202c-2.747-.378-4.856-1.311-6.318-2.789-1.554-1.588-2.336-3.756-2.353-6.52 0-2.714.849-4.982 2.554-6.814 1.697-1.832 4.025-2.899 6.982-3.201v-4.218h4.722v4.176c3.806.218 6.932 1.529 9.377 3.941l-4.235 4.092c-1.386-1.294-3.319-2.042-5.806-2.243v8.083l1.806.269c2.873.437 5.033 1.311 6.469 2.605 1.748 1.605 2.613 3.924 2.596 6.965 0 2.756-.933 4.991-2.798 6.713s-4.335 2.764-7.419 3.134v5.226h-4.722v-5.041c-4.529-.151-8.175-1.605-10.914-4.377zm7.461-19.434c0 .949.328 1.739.983 2.353.723.681 1.748 1.109 3.1 1.294v-7.747c-1.319.185-2.327.647-3.025 1.395-.706.748-1.059 1.647-1.059 2.705zm7.528 17.93c2.907-.344 4.361-1.672 4.377-3.983 0-1.21-.344-2.134-1.033-2.781-.597-.555-1.714-.958-3.344-1.201z" fill="#fff"/><path d="m93.819 151.644-.47-1.171c-1.118-2.786-4.826-2.324-7.798-1.907 0 0-18.888 3.229-25.772 3.238l-16.191-2.289c-.426-.035-.745-.408-.701-.834.035-.426.408-.745.834-.701l13.077 1.118c2.591.222 5.146-1.349 5.776-3.868.79-3.194-1.97-4.64-5.101-4.906l-6.743-.577c-.417-.08-.825-.16-1.242-.24l-7.594-2.316c-2.546-.781-5.27-.79-7.834-.035l-10.069 4.294h-2.901v17.504h2.901l7.257 2.165c.869.257 8.694 1.739 9.59 1.828l11.888 1.419c4.347.373 10.194-.763 14.363-2.058l24.699-6.397c1.792-.568 2.724-2.528 2.032-4.267z" fill="#f2bd8c"/><path d="m19.634 163.612h-6.441c-1.18 0-2.138-.958-2.138-2.138v-22.029c0-1.18.958-2.138 2.138-2.138h6.441c1.18 0 2.138.958 2.138 2.138v22.029c0 1.171-.958 2.138-2.138 2.138z" fill="#004c97"/></svg>