<svg height="180" viewBox="0 0 180 180" width="180" xmlns="http://www.w3.org/2000/svg"><circle cx="89.535" cy="90" fill="#b4e5fa" opacity=".6" r="85"/><path d="m68.101 42.894c.212.089 7.499 9.284 41.245 9.589 26.352.238 35.766-9.196 35.766-9.196l.161 25.566c0 1.872-.875 3.621-2.332 4.664-21.94 15.03-50.008 15.299-72.197.692-1.477-1.014-2.382-2.749-2.412-4.623l-.231-26.693z" fill="#003b6b"/><path d="m145.177 53.699-.065-10.411s-9.414 9.434-35.766 9.196c-33.746-.305-41.032-9.5-41.245-9.589l.094 10.804 38.492 10.392 38.49-10.391z" fill="#00243d"/><path d="m106.55 60.647-66.663-17.997c-.561-.151-.561-1.003 0-1.154l66.663-17.997c.09-.024.184-.024.273 0l66.663 17.997c.561.151.561 1.003 0 1.154l-66.663 17.997c-.09.024-.184.024-.273 0z" fill="#004c97"/><path d="m145.582 49.118-.619 2.688-37.991-9.966.619-2.688z" fill="#ffb83d"/><ellipse cx="106.686" cy="40.34" fill="#00243d" rx="4.009" ry="2.11"/><g fill="#ffb83d"><path d="m142.989 49.112h2.592v11.554h-2.592z"/><path d="m148.597 86.981h-8.628l2.81-29.028h3.008z"/><ellipse cx="144.283" cy="57.953" rx="3.573" ry="3.815"/></g><ellipse cx="59.212" cy="110.889" fill="#fff" rx="41.136" ry="39.901"/><path d="m99.769 117.596c-3.288 18.843-20.195 33.194-40.557 33.194-22.719 0-41.136-17.864-41.136-39.901s18.417-39.901 41.136-39.901c4.319 0 8.482.646 12.393 1.843" fill="none" stroke="#009adc" stroke-linecap="round" stroke-miterlimit="10" stroke-width="3.718"/><path d="m88.306 82.681c.887.861 1.733 1.76 2.536 2.696" fill="none" stroke="#009adc" stroke-linecap="round" stroke-miterlimit="10" stroke-width="3.718"/><path d="m78.191 75.479c1.551.784 3.043 1.66 4.47 2.622" fill="none" stroke="#009adc" stroke-linecap="round" stroke-miterlimit="10" stroke-width="3.718"/><ellipse cx="59.212" cy="110.889" fill="#ed6a00" rx="31.742" ry="30.789"/><path d="m45.752 123.081 4.193-4.201c1.756 1.764 4.209 2.697 7.343 2.781v-8.377l-1.479-.202c-2.747-.378-4.856-1.311-6.318-2.789-1.554-1.588-2.336-3.756-2.353-6.52 0-2.714.849-4.982 2.554-6.814 1.697-1.832 4.025-2.899 6.982-3.201v-4.218h4.722v4.176c3.806.218 6.932 1.529 9.377 3.941l-4.235 4.092c-1.386-1.294-3.319-2.042-5.806-2.243v8.083l1.806.269c2.873.437 5.033 1.311 6.469 2.605 1.748 1.605 2.613 3.924 2.596 6.965 0 2.756-.933 4.991-2.798 6.713s-4.335 2.764-7.419 3.134v5.226h-4.722v-5.041c-4.529-.151-8.175-1.605-10.914-4.377zm7.461-19.434c0 .949.328 1.739.983 2.353.723.681 1.748 1.109 3.1 1.294v-7.747c-1.319.185-2.327.647-3.025 1.395-.706.748-1.059 1.647-1.059 2.705zm7.528 17.93c2.907-.344 4.361-1.672 4.377-3.983 0-1.21-.344-2.134-1.033-2.781-.597-.555-1.714-.958-3.344-1.201z" fill="#fff"/><path d="m93.819 151.644-.47-1.171c-1.118-2.786-4.826-2.324-7.798-1.907 0 0-18.888 3.229-25.772 3.238l-16.191-2.289c-.426-.035-.745-.408-.701-.834.035-.426.408-.745.834-.701l13.077 1.118c2.591.222 5.146-1.349 5.776-3.868.79-3.194-1.97-4.64-5.101-4.906l-6.743-.577c-.417-.08-.825-.16-1.242-.24l-7.594-2.316c-2.546-.781-5.27-.79-7.834-.035l-10.069 4.294h-2.901v17.504h2.901l7.257 2.165c.869.257 8.694 1.739 9.59 1.828l11.888 1.419c4.347.373 10.194-.763 14.363-2.058l24.699-6.397c1.792-.568 2.724-2.528 2.032-4.267z" fill="#f2bd8c"/><path d="m19.634 163.612h-6.441c-1.18 0-2.138-.958-2.138-2.138v-22.029c0-1.18.958-2.138 2.138-2.138h6.441c1.18 0 2.138.958 2.138 2.138v22.029c0 1.171-.958 2.138-2.138 2.138z" fill="#004c97"/></svg>