<svg height="180" viewBox="0 0 180 180" width="180" xmlns="http://www.w3.org/2000/svg"><circle cx="90" cy="90" fill="#b4e5fa" opacity=".6" r="85"/><path d="m23.024 25.522h65.908v85.293h-65.908z" fill="#98d7f2" transform="matrix(.99514186 -.09845136 .09845136 .99514186 -6.44 5.843)"/><path d="m17.204 20.75h65.908v85.293h-65.908z" fill="#fff" transform="matrix(.99514186 -.09845136 .09845136 .99514186 -5.998 5.247)"/><g fill="#bac5ce"><path d="m20.506 48.238h56.655v3.548h-56.655z" transform="matrix(.99514186 -.09845136 .09845136 .99514186 -4.687 5.051)"/><path d="m19.822 41.904h32.977v3.548h-32.977z" transform="matrix(.99514186 -.09845136 .09845136 .99514186 -4.124 3.787)"/><path d="m19.08 34.404h32.977v3.548h-32.977z" transform="matrix(.99514186 -.09845136 .09845136 .99514186 -3.389 3.678)"/><path d="m19.08 34.404h32.977v3.548h-32.977z" transform="matrix(.99514186 -.09845136 .09845136 .99514186 -3.389 3.678)"/><path d="m21.248 55.738h56.655v3.548h-56.655z" transform="matrix(.99514186 -.09845136 .09845136 .99514186 -5.422 5.161)"/><path d="m23.474 78.238h56.655v3.548h-56.655z" transform="matrix(.99514186 -.09845136 .09845136 .99514186 -7.626 5.489)"/><path d="m22.732 70.738h56.655v3.548h-56.655z" transform="matrix(.99514186 -.09845136 .09845136 .99514186 -6.891 5.38)"/><path d="m21.99 63.238h56.655v3.548h-56.655z" transform="matrix(.99514186 -.09845136 .09845136 .99514186 -6.157 5.27)"/><path d="m24.216 85.738h56.655v3.548h-56.655z" transform="matrix(.99514186 -.09845136 .09845136 .99514186 -8.361 5.599)"/><path d="m25.048 95.057h19.707v3.548h-19.707z" transform="matrix(.99514186 -.09845136 .09845136 .99514186 -9.364 3.907)"/></g><circle cx="66.628" cy="33.429" fill="#0069aa" r="8.988"/><path d="m63.338 37.169 1.059-1.294c.541.446 1.255.639 2.136.576l-.232-2.348-.42-.016c-.781-.03-1.398-.233-1.849-.607-.48-.402-.759-.988-.84-1.763-.075-.761.1-1.42.527-1.981.425-.561 1.048-.924 1.869-1.091l-.117-1.182 1.324-.131.116 1.171c1.073-.044 1.986.236 2.738.845l-1.074 1.265c-.425-.324-.987-.48-1.69-.468l.224 2.266.514.025c.818.043 1.447.228 1.886.551.534.401.841 1.028.921 1.881.076.773-.123 1.425-.598 1.96s-1.139.895-1.993 1.084l.145 1.465-1.324.131-.14-1.413c-1.274.083-2.336-.223-3.181-.925zm1.553-5.655c.026.266.14.479.341.632.221.171.521.262.905.277l-.215-2.172c-.365.088-.635.246-.809.475-.177.229-.251.491-.222.788zm2.608 4.818c.805-.177 1.176-.59 1.117-1.238-.034-.339-.156-.589-.367-.751-.183-.139-.507-.221-.971-.244z" fill="#fff"/><path d="m138.924 50.012c-1.371-19.888-19.168-36.096-38.684-34.7-7.91.31-15.206 3.524-20.881 8.526l.653 6.604c2.766-2.616 6.049-4.674 9.685-5.885 16.887-6.025 35.834 7.197 33.398 25.454h15.829z" fill="#f58025"/><path d="m165.248 69.419-82.242-8.115-10.502 106.431 40.742 4.02c18.214-5.17 33.946-16.239 44.967-31.038l7.035-71.297z" fill="#98d7f2" fillRule="evenodd"/><path d="m71.556 59.103h82.641v106.948h-82.641z" fill="#0069aa" transform="matrix(.9951676 .09819083 -.09819083 .9951676 11.6 -10.54)"/><path d="m78.228 65.838h69.297v93.479h-69.297z" fill="#fff" transform="matrix(.9951676 .09819083 -.09819083 .9951676 11.6 -10.54)"/><path d="m145.5 134.802-3.601-1.301-3.354-4.202-5.292.946-5.005-1.962-4.11 3.465-5.315.804-1.827 5.055-4.202 3.354.946 5.292-1.962 5.005 3.465 4.11.677 4.476 26.847 2.649z" fill="#dce5ea" fillRule="evenodd"/><path d="m87.044 100.08h53.692v4.448h-53.692z" fill="#bac5ce" transform="matrix(.9951676 .09819083 -.09819083 .9951676 10.597 -10.689)"/><path d="m85.188 118.889h53.692v4.448h-53.692z" fill="#bac5ce" transform="matrix(.9951676 .09819083 -.09819083 .9951676 12.435 -10.416)"/><path d="m86.116 110.597h53.692v2.224h-53.692z" fill="#0069aa" transform="matrix(.9951676 .09819083 -.09819083 .9951676 11.516 -10.553)"/><path d="m83.332 137.698h53.692v4.448h-53.692z" fill="#bac5ce" transform="matrix(.9951676 .09819083 -.09819083 .9951676 14.273 -10.143)"/><path d="m82.489 145.383h18.676v4.448h-18.676z" fill="#bac5ce" transform="matrix(.9951676 .09819083 -.09819083 .9951676 14.939 -8.304)"/><path d="m104.188 148.174h31.855v4.448h-31.855z" fill="#bac5ce" transform="matrix(.9951676 .09819083 -.09819083 .9951676 15.349 -11.068)"/><path d="m119.192 130.013h18.676v4.448h-18.676z" fill="#bac5ce" transform="matrix(-.9951676 -.09819083 .09819083 -.9951676 243.453 276.456)"/><path d="m84.313 127.221h31.855v4.448h-31.855z" fill="#bac5ce" transform="matrix(-.9951676 -.09819083 .09819083 -.9951676 187.285 268.108)"/><circle cx="92.727" cy="74.192" fill="#0069aa" r="4.354"/><path d="m140.731 74.559 1.289-.23.817 1.024 1.232.445.196 1.295.844 1.001-.478 1.22.231 1.289-1.024.817-.445 1.232-1.295.196-1.002.844-1.219-.478-1.29.23-.817-1.023-1.231-.445-.196-1.295-.844-1.002.477-1.219-.23-1.29 1.024-.817.445-1.232 1.295-.195 1.001-.845z" fill="#0069aa" fillRule="evenodd"/><path d="m128.207 76.727c-.828-.522-2.696-1.091-5.011-1.594l-5.155-3.477-.049-.06c-1.037-.614-2.241-.887-3.442-.779-.855.033-1.707.114-2.553.243-1.865.275-3.698.739-5.47 1.385l-.98-.097c-.819-.12-1.641.195-2.171.83-.228.291-.376.637-.429 1.002l-.29 2.94c-.04.438.03.88.203 1.285.049.06.093.174.142.234.415.504 1.026.804 1.678.825-.101-1.023.307-2.031 1.091-2.696.636-.513 1.452-.749 2.264-.656 1.661.129 2.903 1.581 2.774 3.242-.019.238-.065.474-.139.701l9.91.978c-.101-1.023.307-2.031 1.091-2.696 1.306-1.085 3.245-.907 4.33.399.668.804.882 1.891.568 2.888l.272.027c.98.097 1.426.031 1.714-.656.423-.948 1.288-1.357 1.364-2.12.013-.176-.027-.353-.115-.506-.38-.677-.931-1.243-1.597-1.642zm-7.87-2.151-11.479-1.792c-.109-.011-.098-.12-.038-.169 1.912-.53 3.879-.834 5.862-.906.918-.015 1.823.207 2.63.644l3.095 2.065c.104.065.038.169-.071.158zm3.517 3.921c-1.204-.104-2.265.789-2.368 1.993-.104 1.204.789 2.265 1.993 2.368 1.166.094 2.198-.752 2.333-1.914.12-1.212-.749-2.298-1.958-2.447zm.951 2.623c-.168.438-.555.755-1.017.834-.717.084-1.367-.428-1.451-1.145-.01-.087-.012-.175-.004-.263.056-.682.654-1.189 1.335-1.133.014.001.027.002.041.004.704.061 1.226.682 1.165 1.386-.009.108-.032.214-.069.317zm-16.904-4.197c-1.204-.104-2.265.789-2.368 1.993-.104 1.204.789 2.265 1.993 2.368 1.204.104 2.265-.789 2.368-1.993.104-1.204-.789-2.265-1.993-2.368zm1.005 2.628c-.168.438-.555.755-1.017.834-.717.084-1.367-.428-1.451-1.145-.01-.087-.012-.175-.004-.263.056-.682.654-1.189 1.335-1.133.014.001.027.002.041.004.704.061 1.226.682 1.165 1.386-.009.108-.032.214-.069.317z" fill="#0069aa"/><path d="m112.467 85.06h4.448v15.655h-4.448z" fill="#bac5ce" transform="matrix(.09819083 -.9951676 .9951676 .09819083 10.991 197.903)"/><path d="m93.66 83.122h4.448v15.819h-4.448z" fill="#bac5ce" transform="matrix(.09819083 -.9951676 .9951676 .09819083 -4.123 177.513)"/><path d="m131.274 86.833h4.448v15.82h-4.448z" fill="#bac5ce" transform="matrix(.09819083 -.9951676 .9951676 .09819083 26.104 218.292)"/><circle cx="82.106" cy="61.521" fill="#0069aa" r="5.686"/><circle cx="153.032" cy="68.519" fill="#0069aa" r="5.686"/><circle cx="72.721" cy="156.635" fill="#0069aa" r="5.686"/><circle cx="143.646" cy="163.634" fill="#0069aa" r="5.686"/><path d="m114.716 44.832 30.575-2.415-12.685 20.744z" fill="#f58025"/></svg>