<?xml version="1.0" encoding="UTF-8"?>
<svg id="Layer_5" data-name="Layer 5" xmlns="http://www.w3.org/2000/svg" width="180" height="180" viewBox="0 0 180 180">
  <defs>
    <style>
      .cls-1 {
        fill: none;
        stroke: #77838a;
        stroke-miterlimit: 10;
        stroke-width: 1.306px;
      }

      .cls-2 {
        fill: #004c95;
      }

      .cls-3 {
        fill: #fff;
      }

      .cls-4 {
        fill: #333f48;
      }

      .cls-5 {
        fill: #bac5ce;
      }

      .cls-6 {
        fill: #dce5ea;
      }

      .cls-7 {
        fill: #77838a;
      }

      .cls-8 {
        fill: #b4e5fa;
        isolation: isolate;
        opacity: .6;
      }
    </style>
  </defs>
  <circle class="cls-8" cx="90" cy="90" r="85"/>
  <g>
    <path class="cls-4" d="M35.436,51.908h109.129c2.343,0,4.246,1.903,4.246,4.246v74.809H31.19V56.154c0-2.343,1.903-4.246,4.246-4.246Z"/>
    <rect class="cls-3" x="36.161" y="57.255" width="107.679" height="68.368"/>
    <path class="cls-7" d="M159.982,145.943H20.018l-.997,1.478c-1.64,2.429,.003,5.771,2.932,5.862,.05,.002,.1,.002,.151,.002,0,0,135.792,0,135.792,0,.051,0,.102,0,.152-.002,2.929-.092,4.57-3.433,2.931-5.862l-.997-1.478Z"/>
    <path class="cls-5" d="M158.668,148.506H21.332c-1.332,0-2.095-1.519-1.3-2.588l11.15-14.979h117.635l11.15,14.979c.796,1.069,.033,2.588-1.3,2.588Z"/>
    <path class="cls-4" d="M34.585,138.057l3.874-4.856c.05-.062,.125-.098,.204-.098h102.673c.079,0,.155,.036,.204,.098l3.874,4.856c.136,.171,.015,.424-.204,.424H34.79c-.219,0-.341-.253-.204-.424Z"/>
    <path class="cls-6" d="M71.95,145.655l3.113-5.141c.073-.121,.204-.195,.345-.195h29.184c.141,0,.272,.074,.345,.195l3.113,5.141c.163,.269-.031,.613-.345,.613h-35.41c-.314,0-.508-.344-.345-.613Z"/>
  </g>
  <path class="cls-1" d="M66.12,65.366h46.916c.545,0,.987,.804,.987,1.796v3.078c0,.992-.442,1.796-.987,1.796h-46.916c-.545,0-.987-.804-.987-1.796v-3.078c0-.992,.442-1.796,.987-1.796Z"/>
  <path class="cls-2" d="M75.92,112.746h28.159c.413,0,.747,.83,.747,1.855v4.878c0,1.024-.335,1.855-.747,1.855h-28.159c-.413,0-.747-.83-.747-1.855v-4.878c0-1.024,.335-1.855,.747-1.855Z"/>
  <path class="cls-1" d="M66.12,77.055h46.916c.545,0,.987,.804,.987,1.796v3.078c0,.992-.442,1.796-.987,1.796h-46.916c-.545,0-.987-.804-.987-1.796v-3.078c0-.992,.442-1.796,.987-1.796Z"/>
  <path class="cls-1" d="M66.12,88.744h46.916c.545,0,.987,.804,.987,1.796v3.078c0,.992-.442,1.796-.987,1.796h-46.916c-.545,0-.987-.804-.987-1.796v-3.078c0-.992,.442-1.796,.987-1.796Z"/>
  <path class="cls-1" d="M66.483,100.434h24.916c.545,0,.987,.804,.987,1.796v3.078c0,.992-.442,1.796-.987,1.796h-24.916c-.545,0-.987-.804-.987-1.796v-3.078c0-.992,.442-1.796,.987-1.796Z"/>
</svg>