<svg height="180" viewBox="0 0 180 180" width="180" xmlns="http://www.w3.org/2000/svg"><circle cx="88.929" cy="90" fill="#b4e5fa" opacity=".6" r="85"/><circle cx="90" cy="43.867" fill="#7a8e99" r="28.479"/><path d="m73.517 60.35c-9.104-9.104-9.104-23.863 0-32.967s23.863-9.104 32.967 0" fill="none" stroke="#566770" stroke-miterlimit="10" stroke-width="2.612"/><path d="m163.826 100.123v-.032c-4.05-4.082-10.218-5.202-15.445-2.804-1.481-.649-3.076-.998-4.693-1.028-2.131-.014-4.24.428-6.186 1.295-5.113-17.526-22.522-32.188-47.059-32.188-6.766.009-13.471 1.285-19.767 3.762.21-.079.396-.198.594-.287-6.235-3.829-12.809-7.077-19.639-9.702-.688-.261-1.458.085-1.719.773-.124.327-.115.689.026 1.009 2.454 5.552 4.418 11.307 5.869 17.201l.012.063c-4.325 3.786-7.832 8.397-10.333 13.578-2.291 4.877-9.544 1.887-9.544 6.336v19.662c0 4.495 7.188 1.337 9.544 6.358 2.963 6.154 7.339 11.522 12.77 15.665 2.043 1.584 1.8 2.503 3.893 15.098.214 1.287 1.329 2.23 2.634 2.226 15.413 0 13.415 1.687 14.973-7.693 7.486 1.473 15.196 1.384 22.646-.259 1.614 9.675-.507 7.952 15.023 7.952 1.301.004 2.412-.941 2.618-2.226 2.313-13.839 2.047-14.607 3.998-16.237 12.096-10.132 16.377-23.316 14.595-35.705 1.541-1.151 3.339-1.909 5.239-2.21-.869 1.026-1.532 2.21-1.952 3.487-1.705 6.8 3.355 11.314 8.283 9.661 0-.002 0-.004 0-.006.579-.204 1.125-.496 1.655-.854.002.003.177-.119.267-.177l-.008-.011c4.753-3.554 3.703-9.654-.415-13.373 3.788-1.477 8.076-.834 11.263 1.691.295.223.715.163.937-.132.207-.274.172-.661-.08-.894zm-11.484 6.182c.363 2.44-1.584 4.597-4.418 3.79-1.247-.493-1.68-1.763-1.782-3.495s.997-3.751 2.408-5.085c1.925.939 3.429 2.35 3.792 4.79z" fill="#ef6a00"/><path d="m107.578 75.34c-.399 1.394-1.841 2.211-3.241 1.838-9.086-2.479-18.669-2.479-27.755 0-1.415.393-2.88-.436-3.272-1.85-.393-1.415.436-2.879 1.85-3.272 10.015-2.733 20.579-2.733 30.594 0 1.405.408 2.215 1.875 1.814 3.281l.01.004z" fill="#333f48"/><path d="m98.979 49.012c0-4.193-3.404-6.289-7.418-7.319v-6.708c1.54.492 2.57 1.664 2.57 3.119h4.407c0-3.698-2.893-6.57-6.977-7.182v-2.477h-3.123v2.476c-4.035.552-6.977 3.318-6.977 7.146 0 3.931 3.039 6.256 6.977 7.24v7.117c-1.745-.514-2.937-1.859-2.937-3.487h-4.48c0 3.873 3.093 6.885 7.418 7.51v2.442h3.123v-2.431c4.276-.54 7.418-3.424 7.418-7.448zm-13-11.238c0-1.368 1.032-2.43 2.46-2.834v5.793c-1.563-.747-2.46-1.714-2.46-2.959zm5.582 14.714v-6.263c1.848.732 2.937 1.785 2.937 3.191 0 1.499-1.234 2.65-2.937 3.072z" fill="#fff"/></svg>