<svg height="180" viewBox="0 0 180 180" width="180" xmlns="http://www.w3.org/2000/svg"><circle cx="90" cy="90" fill="#b4e5fa" opacity=".6" r="85"/><path d="m44.812 46.138-.543 115.496c13.207 8.449 28.89 13.367 45.731 13.367 22.386 0 42.738-8.667 57.918-22.812l-1-83.119-22.931-22.931h-79.175z" fill="#98d7f2"/><path d="m38.294 37.655v119.791c14.327 11 32.247 17.554 51.706 17.554 19.568 0 37.577-6.629 51.944-17.741v-96.673l-22.931-22.931z" fill="#fff"/><g fill="#77808a"><rect height="4.497" rx="1.211" width="80.357" x="50.114" y="94.781"/><rect height="4.497" rx="1.05" width="68.898" x="50.114" y="102.267"/><rect height="4.497" rx="1.211" width="80.357" x="49.939" y="87.194"/><rect height="4.497" rx="1.211" width="80.357" x="50.114" y="117.441"/><rect height="4.497" rx=".971" width="58.909" x="50.114" y="124.927"/><rect height="4.497" rx="1.211" width="80.357" x="50.114" y="109.854"/><rect height="4.497" rx="1.211" width="80.357" x="50.114" y="138.202"/><rect height="4.497" rx=".971" width="58.909" x="50.114" y="145.688"/></g><path d="m119.013 60.586h22.931l-22.931-22.931z" fill="#bac4ce"/><circle cx="147.345" cy="147.345" fill="#009adc" r="27.655"/><path d="m130.415 141.612v-4.506c0-4.14 3.048-6.233 6.599-6.233s6.599 2.093 6.599 6.233v4.506c0 4.14-3.048 6.233-6.599 6.233s-6.599-2.093-6.599-6.233zm8.921-.229v-4.049c0-1.773-.909-2.596-2.322-2.596-1.367 0-2.276.818-2.276 2.596v4.049c0 1.773.909 2.642 2.276 2.642 1.407 0 2.322-.864 2.322-2.642zm18.019-10.242-15.337 32.401h-4.643l15.337-32.401zm-6.279 26.442v-4.506c0-4.14 3.048-6.233 6.599-6.233s6.599 2.093 6.599 6.233v4.506c0 4.14-3.048 6.233-6.599 6.233s-6.599-2.088-6.599-6.233zm8.921-.224v-4.049c0-1.773-.909-2.642-2.322-2.642-1.367 0-2.322.864-2.322 2.642v4.049c0 1.773.955 2.596 2.322 2.596 1.412-.005 2.322-.823 2.322-2.596z" fill="#fff"/><path d="m89.753 49.555 18.934 5.806c.15.066.271.186.337.337.003.177-.095.34-.253.42l-7.57 3.366c1.01.504 1.431.42 1.936 1.514.612 1.865 1.063 3.78 1.346 5.723.566.203.939.745.927 1.346 0 .42-.084.336-.168.504l2.693 6.48-3.618.757-.589-6.647c-.539-.223-.877-.764-.841-1.346.042-.363.223-.695.505-.927-.276-1.862-.727-3.693-1.346-5.47-.337-.841-1.683-1.262-2.609-1.599-3.451-1.346-6.816-2.609-10.266-3.703-.064-.009-.123-.038-.168-.084-.094.277.055.578.332.672.002 0 .003.001.005.002 2.691 1.011 5.465 2.191 9.167 3.957l-8.751 3.873c-.097.083-.239.083-.336 0l-18.765-8.42c-.157-.08-.255-.242-.253-.418-.016-.17.109-.321.278-.337.019-.002.039-.002.058 0l18.765-5.806h.252zm-11.108 11.528-.504 8.165c0 .084 0 .168.084.168.084.084.168.084.168 0 3.87-.927 8.078.927 11.108 5.217.084.084.252.084.252 0 3.03-4.207 7.237-6.143 11.108-5.217h.168q.084-.084.084-.168l-.504-8.079-10.266 4.545c-.474.252-1.041.252-1.515 0l-10.182-4.631z" fill="#004c97" fillRule="evenodd"/></svg>