<svg height="180" viewBox="0 0 180 180" width="180">
    <circle cx="90" cy="90" fill="#b4e5fa" opacity=".6" r="85"/>
    <path d="m25.828 58.25h128.337v78.511c0 2.709-2.196 4.905-4.905 4.905h-118.527c-2.709 0-4.905-2.196-4.905-4.905z" fill="#f58025" fillRule="evenodd"/>
    <path d="m154.165 55.418h-128.337v18.873c0 6.569 2.502 13.131 7.514 18.142 5.012 5.018 11.601 7.521 18.142 7.521h77.024c6.548 0 13.124-2.502 18.142-7.521 5.012-5.012 7.521-11.574 7.521-18.142l-.007-18.873z" fill="#ffb83d" fillRule="evenodd"/><g fill="#d65e00">
    <path d="m39.823 43.221h22.447v3.116h-22.447z"/>
    <path d="m117.71 43.221h22.46v3.116h-22.46z"/>
    <path d="m106.034 46.337v-8.685c0-.605-.231-1.183-.666-1.612-.428-.428-1-.666-1.605-.666h-27.526c-.598 0-1.176.238-1.612.666-.428.428-.666 1.006-.666 1.612v8.685h-5.039v-8.685c0-1.952.762-3.794 2.149-5.175 1.387-1.38 3.216-2.142 5.168-2.142h27.526c1.952 0 3.788.762 5.175 2.142 1.38 1.38 2.142 3.223 2.142 5.175v8.685z"/></g>
    <path d="m51.478 58.372h10.792v81.471h-10.792z" fill="#fff"/>
    <path d="m117.71 58.372h10.792v81.471h-10.792z" fill="#fff"/>
    <path d="m61.655 109.566h-9.554c-1.716 0-3.112 1.396-3.112 3.111v15.144c0 1.716 1.396 3.111 3.112 3.111h9.554c1.712 0 3.104-1.396 3.104-3.111v-15.144c0-1.716-1.393-3.111-3.104-3.111zm.104 18.255c0 .061-.048.111-.104.111h-3.281v-4.885h-3v4.885h-3.273c-.062 0-.112-.049-.112-.111v-15.144c0-.062.049-.111.112-.111h9.554c.061 0 .104.047.104.111z" fill="#d65e00"/>
    <path d="m127.887 109.566h-9.554c-1.716 0-3.112 1.396-3.112 3.111v15.144c0 1.716 1.396 3.111 3.112 3.111h9.554c1.712 0 3.104-1.396 3.104-3.111v-15.144c0-1.716-1.393-3.111-3.104-3.111zm.104 18.255c0 .061-.048.111-.104.111h-3.281v-4.885h-3v4.885h-3.273c-.062 0-.112-.049-.112-.111v-15.144c0-.062.049-.111.112-.111h9.554c.061 0 .104.047.104.111z" fill="#d65e00"/>
    <path d="m25.828 50.323v8.049h128.344s0-8.049 0-8.049c0-2.709-2.196-4.905-4.905-4.905h-118.534c-2.709 0-4.905 2.196-4.905 4.905z" fill="#f58025" fillRule="evenodd"/>
</svg>