<?xml version="1.0" encoding="UTF-8"?>
<svg id="Layer_1" data-name="Layer 1" xmlns="http://www.w3.org/2000/svg" width="180" height="180" viewBox="0 0 180 180">
  <defs>
    <style>
      .cls-1 {
        fill: #0069aa;
      }

      .cls-2 {
        fill: #fff;
      }

      .cls-3 {
        fill: #29abe2;
      }

      .cls-4 {
        fill: #4f6878;
      }

      .cls-5 {
        fill: #7a8c9e;
      }

      .cls-6 {
        fill: #b4e5fa;
        isolation: isolate;
        opacity: .6;
      }
    </style>
  </defs>
  <circle class="cls-6" cx="90" cy="90" r="85"/>
  <g>
    <g id="Layer_9" data-name="Layer 9">
      <g>
        <circle class="cls-1" cx="89.075" cy="79.849" r="55.591"/>
        <path class="cls-3" d="M89.075,139.187c-32.719,0-59.337-26.619-59.337-59.337S56.357,20.512,89.075,20.512s59.337,26.619,59.337,59.337-26.619,59.337-59.337,59.337Zm0-111.183c-28.587,0-51.845,23.258-51.845,51.845s23.258,51.845,51.845,51.845,51.845-23.258,51.845-51.845-23.258-51.845-51.845-51.845Z"/>
      </g>
    </g>
    <g id="Arrow">
      <path id="_" data-name="%" class="cls-2" d="M54.065,68.443v-8.632c0-7.931,5.839-11.94,12.641-11.94s12.641,4.009,12.641,11.94v8.632c0,7.931-5.839,11.94-12.641,11.94s-12.641-4.009-12.641-11.94Zm17.088-.438v-7.756c0-3.396-1.742-4.973-4.447-4.973-2.618,0-4.36,1.567-4.36,4.973v7.756c0,3.396,1.742,5.06,4.36,5.06,2.696,0,4.447-1.654,4.447-5.06Zm34.517-19.618l-29.379,62.066h-8.894l29.379-62.066s8.894,0,8.894,0Zm-12.028,50.651v-8.632c0-7.931,5.839-11.94,12.641-11.94s12.641,4.009,12.641,11.94v8.632c0,7.931-5.839,11.94-12.641,11.94s-12.641-4-12.641-11.94Zm17.088-.428v-7.756c0-3.396-1.742-5.06-4.447-5.06-2.618,0-4.447,1.654-4.447,5.06v7.756c0,3.396,1.829,4.973,4.447,4.973,2.705-.01,4.447-1.576,4.447-4.973Z"/>
    </g>
  </g>
  <g>
    <path class="cls-5" d="M147.757,122.361v-.078l7.409-.447c-.033-7.913-5.034-14.44-12.108-17.477-.989,2.151-2.093,4.238-3.323,6.241,4.699,2.02,8.022,6.51,8.022,11.761Z"/>
    <path class="cls-5" d="M134.087,102.514c-11.552,0-20.824,8.896-20.868,19.769h5.368c.738-.511,1.46-1.043,2.169-1.591,.743-5.372,5-9.776,10.543-10.935,1.621-2.264,3.068-4.66,4.313-7.175-.506-.033-1.011-.069-1.525-.069Z"/>
    <path class="cls-5" d="M155.17,121.836h-.004c0,.027,.004,.052,.004,.078v-.078Z"/>
    <path class="cls-5" d="M113.215,122.361c0-.026,.004-.052,.004-.078h-.004v.078Z"/>
  </g>
  <g>
    <path class="cls-5" d="M155.696,127.72h-43.217c-4.377,0-8.031,3.365-8.031,7.637v34.043c0,4.167,3.549,7.637,8.031,7.637h43.217c4.377,0,8.031-3.378,8.031-7.637v-34.043c0-4.167-3.549-7.637-8.031-7.637Zm-18.704,23.546v9.621c0,.591-.513,1.091-1.143,1.091h-3.233c-.618,0-1.144-.499-1.144-1.091v-9.529c-1.985-.986-3.233-2.878-3.233-5.06,0-3.076,2.616-5.547,5.744-5.652,3.457-.105,6.165,2.471,6.165,5.652,0,2.182-1.367,4.061-3.155,4.968Z"/>
    <g>
      <path class="cls-4" d="M147.757,120.642v7.078h7.413v-7.078"/>
      <path class="cls-4" d="M113.215,120.642v7.078h7.413v-7.078"/>
    </g>
    <path class="cls-4" d="M104.553,170.222c0,4.167,3.549,7.637,8.031,7.637h43.217c4.377,0,8.031-3.378,8.031-7.637"/>
  </g>
</svg>