<svg height="180" viewBox="0 0 180 180" width="180" xmlns="http://www.w3.org/2000/svg">
    <circle cx="90" cy="90" fill="#b4e5fa" opacity=".6" r="85"/>
    <ellipse cx="92.573" cy="88.867" fill="#fff" rx="55.488" ry="53.822"/>
    <path d="m91.495 147.662c-11.919 0-23.936-3.657-34.247-11.25-25.69-18.924-31.197-55.225-12.277-80.921 18.924-25.691 55.228-31.196 80.921-12.277.643.473 1.069 1.182 1.188 1.97.118.788-.081 1.591-.556 2.231l-.612.827c-.984 1.33-2.86 1.61-4.19.63-10.915-8.041-24.326-11.348-37.772-9.309-13.444 2.04-25.277 9.177-33.319 20.098-16.621 22.581-11.782 54.473 10.787 71.092 10.919 8.041 24.339 11.345 37.781 9.306 13.443-2.041 25.273-9.177 33.312-20.093.473-.641 1.181-1.068 1.969-1.188.787-.12 1.59.08 2.23.555l.827.611c1.331.983 1.614 2.859.632 4.191-11.329 15.38-28.891 23.525-46.673 23.526z" fill="#29abe2"/>
    <path d="m74.417 100.676 5.655-5.667c2.369 2.38 5.678 3.638 9.905 3.751v-11.299l-1.995-.272c-3.706-.51-6.551-1.768-8.523-3.763-2.097-2.142-3.151-5.066-3.173-8.795 0-3.661 1.145-6.721 3.445-9.191 2.289-2.471 5.429-3.91 9.418-4.318v-5.689h6.369v5.633c5.134.295 9.35 2.063 12.648 5.315l-5.712 5.519c-1.87-1.745-4.477-2.754-7.831-3.026v10.903l2.437.363c3.876.589 6.789 1.768 8.727 3.513 2.357 2.165 3.525 5.293 3.502 9.395 0 3.717-1.258 6.732-3.774 9.055s-5.848 3.729-10.007 4.227v7.049h-6.369v-6.8c-6.109-.204-11.027-2.165-14.722-5.905zm10.064-26.214c0 1.281.442 2.346 1.326 3.173.975.918 2.357 1.496 4.182 1.745v-10.449c-1.779.249-3.139.873-4.08 1.881-.952 1.009-1.428 2.221-1.428 3.649zm10.155 24.185c3.921-.465 5.882-2.255 5.905-5.372 0-1.632-.465-2.879-1.394-3.751-.805-.748-2.312-1.292-4.511-1.621z" fill="#f58025"/>
    <path d="m145.93 136.365-.601-1.496c-1.428-3.559-6.165-2.969-9.962-2.437 0 0-24.129 4.125-32.923 4.137l-20.683-2.924c-.544-.045-.952-.521-.895-1.065.045-.544.521-.952 1.065-.895l16.705 1.428c3.309.283 6.573-1.723 7.378-4.941 1.009-4.08-2.516-5.927-6.517-6.267l-8.613-.737c-.533-.102-1.054-.204-1.587-.306l-9.701-2.958c-3.253-.997-6.732-1.009-10.007-.045l-12.863 5.485h-3.706v22.361h3.706l9.271 2.765c1.111.329 11.107 2.221 12.251 2.335l15.187 1.813c5.553.476 13.022-.975 18.349-2.629l31.552-8.171c2.289-.725 3.479-3.23 2.595-5.451z" fill="#f2bd8c"/>
    <path d="m51.161 151.653h-8.228c-1.507 0-2.731-1.224-2.731-2.731v-28.141c0-1.507 1.224-2.731 2.731-2.731h8.228c1.507 0 2.731 1.224 2.731 2.731v28.141c0 1.496-1.224 2.731-2.731 2.731z" fill="#0069aa"/>
</svg>