<svg height="180" viewBox="0 0 180 180" width="180" xmlns="http://www.w3.org/2000/svg">
    <circle cx="90" cy="90" fill="#b4e5fa" opacity=".6" r="85"/>
    <path d="m41.292 43.285-.586 115.94c13.906 9.92 30.911 15.775 49.294 15.775 24.184 0 45.992-10.117 61.471-26.329l.586-80.881-24.505-24.505z" fill="#98d7f2"/>
    <path d="m145.382 61.136-24.505-24.505h-86.259v117.821c14.878 12.796 34.219 20.548 55.382 20.548s40.504-7.752 55.382-20.548z" fill="#fff"/>
    <path d="m43.581 58.428 3.445-3.445 4.89 4.889 9.557-9.446 3.445 3.445-13.114 12.781z" fill="#99c742"/>
    <rect fill="#7a8c9e" height="4.806" rx="1.294" width="64.104" x="69.795" y="53.136"/>
    <rect fill="#7a8c9e" height="4.806" rx="1.038" width="41.184" x="69.795" y="61.136"/>
    <path d="m43.581 88.094 3.445-3.445 4.89 4.89 9.557-9.446 3.445 3.445-13.114 12.78z" fill="#99c742"/>
    <rect fill="#7a8c9e" height="4.806" rx="1.294" width="64.104" x="69.795" y="82.803"/>
    <rect fill="#7a8c9e" height="4.806" rx="1.038" width="41.184" x="69.795" y="90.803"/>
    <path d="m43.581 117.761 3.445-3.445 4.89 4.89 9.557-9.447 3.445 3.446-13.114 12.78z" fill="#99c742"/>
    <rect fill="#7a8c9e" height="4.806" rx="1.294" width="64.104" x="69.795" y="112.469"/>
    <rect fill="#7a8c9e" height="4.806" rx="1.038" width="41.184" x="69.795" y="120.469"/>
    <path d="m43.581 147.428 3.445-3.445 4.89 4.889 9.557-9.446 3.445 3.445-13.114 12.781z" fill="#99c742"/>
    <rect fill="#7a8c9e" height="4.806" rx="1.294" width="64.104" x="69.795" y="142.136"/>
    <rect fill="#7a8c9e" height="4.806" rx="1.038" width="41.184" x="69.795" y="150.136"/>
    <path d="m120.877 61.136h24.505l-24.505-24.505z" fill="#bac5ce"/>
    <path d="m161.009 104.06h-49.708c-1.333 0-2.414 1.081-2.414 2.414v60.928c0 1.34 1.081 2.414 2.414 2.414h49.708c1.333 0 2.407-1.074 2.407-2.414v-60.928c0-1.333-1.074-2.414-2.407-2.414z" fill="#0069aa"/>
    <rect fill="#b4e5fa" height="14.715" rx="2.824" width="43.16" x="114.572" y="109.466"/>
    <path d="m114.531 130.784c0-.809.653-1.455 1.455-1.455h15.742c.809 0 1.462.646 1.462 1.455v11.308c0 .809-.653 1.462-1.462 1.462h-15.742c-.802 0-1.455-.653-1.455-1.462z" fill="#fff"/>
    <path d="m133.571 162.329c0 .809-.653 1.469-1.455 1.469h-15.742c-.809 0-1.462-.66-1.462-1.469v-11.308c0-.802.653-1.455 1.462-1.455h15.742c.802 0 1.455.66 1.455 1.455z" fill="#f58025"/>
    <path d="m138.603 130.784c0-.809.646-1.455 1.455-1.455h15.742c.802 0 1.455.646 1.455 1.455v11.308c0 .809-.653 1.462-1.455 1.462h-15.742c-.809 0-1.455-.653-1.455-1.462z" fill="#f58025"/>
    <path d="m157.643 162.329c0 .809-.66 1.469-1.462 1.469h-15.749c-.802 0-1.455-.66-1.455-1.469v-11.308c0-.802.653-1.455 1.455-1.455h15.742c.802 0 1.462.66 1.462 1.455v11.308z" fill="#fff"/><g fill="#274059">
    <path d="m123.354 132.395h1v7.881h-1z"/>
    <path d="m119.92 135.829h7.868v1h-7.868z"/>
    <path d="m119.917 156.325h7.874v1.006h-7.874z"/>
    <path d="m147.725 153.673h.986v1h-.986z"/>
    <path d="m147.725 158.97h.986v1h-.986z"/>
    <path d="m144.285 156.325h7.874v1.006h-7.874z"/>
    <path d="m147.571 132.4h1.006v7.874h-1.006z" transform="matrix(.70771125 -.7065018 .7065018 .70771125 -53.042 144.466)"/>
    <path d="m144.137 135.835h7.874v1.006h-7.874z" transform="matrix(.70540163 -.70880783 .70880783 .70540163 -53.015 145.12)"/>
    <path d="m147.575 132.395h1.006v7.881h-1.006z"/>
    <path d="m144.141 135.829h7.874v1h-7.874z"/></g>
</svg>