<svg height="180" viewBox="0 0 180 180" width="180" xmlns="http://www.w3.org/2000/svg"><circle cx="90" cy="90" fill="#b4e5fa" opacity=".6" r="85"/><path d="m102.843 47.411v-7.784c0-3.211-2.53-5.741-5.741-5.741h-14.205c-3.211 0-5.741 2.53-5.741 5.741v7.784" fill="#7a8c9e"/><path d="m97.103 33.886h-2.308v13.524h8.048v-7.784c0-3.211-2.53-5.741-5.741-5.741z" fill="#4f6878"/><rect fill="#7a8c9e" height="100.381" rx="9.752" width="80.951" x="49.524" y="45.733"/><path d="m120.723 45.733h-7.255v100.381h7.255c5.386 0 9.752-4.366 9.752-9.752v-80.877c0-5.386-4.366-9.752-9.752-9.752z" fill="#4f6878"/><path d="m54.353 119.152v15.15c0 3.603 2.921 6.523 6.523 6.523h58.248c3.603 0 6.523-2.921 6.523-6.523v-15.15z" fill="#99c742"/><path d="m113.468 140.825h5.656c3.603 0 6.523-2.921 6.523-6.523v-15.15h-12.179z" fill="#55945f"/><path d="m72.413 109.609 5.704-5.716c2.389 2.401 5.727 3.669 9.991 3.784v-11.397l-2.012-.274c-3.738-.514-6.607-1.783-8.596-3.795-2.115-2.16-3.178-5.11-3.201-8.871 0-3.692 1.155-6.779 3.475-9.271 2.309-2.492 5.475-3.944 9.499-4.355v-5.738h6.424v5.681c5.178.297 9.431 2.08 12.757 5.361l-5.761 5.567c-1.886-1.76-4.515-2.778-7.899-3.052v10.997l2.458.366c3.909.594 6.847 1.783 8.802 3.544 2.378 2.183 3.555 5.338 3.532 9.476 0 3.749-1.269 6.79-3.807 9.133s-5.898 3.761-10.094 4.264v7.11h-6.424v-6.859c-6.161-.206-11.122-2.183-14.849-5.956zm10.151-26.44c0 1.292.446 2.366 1.337 3.201.983.926 2.378 1.509 4.218 1.76v-10.539c-1.795.251-3.166.88-4.115 1.898-.96 1.017-1.44 2.24-1.44 3.681zm10.242 24.394c3.955-.469 5.933-2.275 5.956-5.418 0-1.646-.469-2.903-1.406-3.784-.812-.754-2.332-1.303-4.55-1.635z" fill="#fff"/><path d="m143.8 70.3c4.3 0 6.5-3.2 6.5-6.5h-12.9c-.1 3.3 2.1 6.5 6.4 6.5z" fill="#cc8a1f"/><path d="m166.769 59.973c-1.566-.694-4.284-2.794-7.06-9.169-4.065-9.222 1.213-19.728-9.222-23.942-3.604-1.456-5.522-1.169-6.639-1.21-1.117.041-3.035-.246-6.639 1.21-10.435 4.214-5.156 14.721-9.222 23.942-2.775 6.375-5.494 8.475-7.06 9.169-.708.314-1.141 1.042-1.141 1.817v.298c0 1.114.903 2.017 2.017 2.017l22.044-.045 22.044.045c1.114 0 2.017-.903 2.017-2.017v-.298c0-.774-.433-1.503-1.141-1.817z" fill="#e5a022"/><path d="m159.955 62.087v-.298c0-.774-.291-1.503-.767-1.817-1.053-.694-2.883-2.794-4.75-9.169-2.735-9.222.816-19.728-6.204-23.942-1.786-1.072-2.953-1.198-3.746-1.206-.098 0-.194 0-.282 0-.149.002-.286.002-.406-.003-1.123.032-3.034-.227-6.59 1.209-10.435 4.214-5.156 14.721-9.222 23.942-2.775 6.375-5.494 8.475-7.06 9.169-.708.314-1.141 1.042-1.141 1.817v.298c0 1.114.903 2.017 2.017 2.017l21.962-.044s.033 0 .033 0h.049s14.847.03 14.847.03c.703-.076 1.26-.938 1.26-2.002z" fill="#ffb83d"/><ellipse cx="137.307" cy="33.739" fill="#ffe0a3" rx="4.6" ry="2.9" transform="matrix(.50001511 -.86601668 .86601668 .50001511 39.433 135.78)"/><path d="m167.6 29.8h-5c0-6.8-5.6-12.4-12.4-12.4v-5c9.6.1 17.4 7.9 17.4 17.4z" fill="#0069aa"/><path d="m180 29.8h-5c0-13.7-11.1-24.8-24.8-24.8v-5c16.5.1 29.8 13.4 29.8 29.8z" fill="#0069aa"/><circle cx="143.848" cy="22.732" fill="none" r="3.228" stroke="#ffb83d" stroke-linecap="round" stroke-linejoin="round" stroke-width="2"/></svg>