<svg height="180" viewBox="0 0 180 180" width="180" xmlns="http://www.w3.org/2000/svg" xmlns:xlink="http://www.w3.org/1999/xlink">
    <linearGradient id="a" gradientUnits="userSpaceOnUse" x1="10" x2="170" y1="90" y2="90">
        <stop offset="0" stop-color="#00450f"/>
        <stop offset=".058" stop-color="#004a12"/>
        <stop offset=".327" stop-color="#00611d"/>
        <stop offset=".497" stop-color="#006a22"/>
        <stop offset=".683" stop-color="#005f1c"/>
        <stop offset="1" stop-color="#00450f"/>
    </linearGradient>
    <linearGradient id="b" gradientUnits="userSpaceOnUse" x1="10" x2="125.953" y1="90" y2="90">
        <stop offset="0" stop-color="#006a22"/>
        <stop offset=".518" stop-color="#55945f"/>
        <stop offset=".622" stop-color="#50925c"/>
        <stop offset=".727" stop-color="#448c53"/>
        <stop offset=".832" stop-color="#308245"/>
        <stop offset=".937" stop-color="#147430"/>
        <stop offset="1" stop-color="#006a22"/>
    </linearGradient>
    <circle cx="90" cy="90" fill="#b4e5fa" opacity=".6" r="85"/>
    <rect fill="url(#a)" height="103.242" rx="8.234" width="160" x="10" y="38.379"/>
    <path d="m102.753 77.812 2.391 1.382c7.695 4.427 12.328 11.3 10.983 16.381-1.737 6.631-13 10.497-30.912 10.59l-16.661.093c.84-2.335.467-4.894-1.139-7.621l-27.438-46.882c-3.101-5.303-6.201-9.764-9.267-13.377h-8.041c3.93 3.686 8.099 9.179 12.283 16.328l8.405 14.363c-2.447.448-4.483 2.073-6.052 4.819l-26.896 47.201c-.142.248-.27.489-.409.736v11.563c0 .508.053 1.004.141 1.487 1.381-3.352 3.175-6.989 5.386-10.872l8.256-14.475c1.606 1.886 4.016 2.839 7.172 2.82l54.334-.299c7.919-.037 14.625-.766 20.079-2.185-.075.056-.149.093-.224.149-8.694 5.346-24.723 14.98-53.428 31.608h59.355c9.447-13.298 14.983-29.557 14.88-47.111-.138-21.887-8.988-41.675-23.223-56.131h-69.295c12.132 6.66 33.281 18.545 69.32 39.433z" fill="url(#b)"/>
    <rect fill="#dce5ea" height="16.265" rx="2.391" width="21.787" x="26.601" y="73.725"/>
    <path d="m109.135 44.377c-2.472 0-4.476 2.004-4.476 4.467s2.004 4.467 4.467 4.467 4.476-2.004 4.476-4.467-2.004-4.467-4.467-4.467" fill="#fff"/>
    <path d="m113.054 52.673h.072c.054 0 .09.027.09.099 0 .045-.018.108-.09.108h-.072zm0 .306h.045c.126 0 .117.072.117.162 0 .045 0 .099.018.144h.162c-.018-.027-.018-.171-.018-.216 0-.135-.108-.144-.144-.144.108-.018.144-.09.144-.18 0-.126-.072-.189-.189-.189h-.306v.737h.171v-.315zm.081-.692c-.351 0-.629.279-.629.629s.279.638.629.638.629-.288.629-.638c0-.351-.279-.629-.629-.629m0 1.151c-.288 0-.512-.234-.512-.512 0-.288.225-.512.512-.512.279 0 .512.225.512.512 0 .279-.234.512-.512.512" fill="#f58025"/>
    <path d="m111.445 49.509h-.962c.054-.135.027-.288-.063-.44l-1.573-2.724c-.234-.395-.458-.719-.683-.953.009 0 .009.009.018.009.629.342 1.888 1.052 4.296 2.472l.135.081c.449.261.71.656.629.953-.108.387-.755.602-1.798.602m-3.146 2.724-.135.081c-.449.261-.926.288-1.142.072-.279-.279-.144-.962.378-1.861l.485-.836c.09.108.234.162.413.162h3.146c.458 0 .845-.036 1.169-.117l-.009.009c-.62.369-1.87 1.106-4.305 2.49m-1.681-5.798v-.162c0-.512.216-.944.512-1.025.387-.099.899.351 1.42 1.249l.485.836c-.144.027-.261.117-.351.279l-1.573 2.724c-.234.395-.387.755-.476 1.07v-.018c-.027-.701-.045-2.148-.018-4.953m2.517-2.265c-2.58 0-4.674 2.094-4.674 4.674s2.094 4.674 4.674 4.674 4.674-2.094 4.674-4.674-2.094-4.674-4.674-4.674" fill="#f58025"/>
    <g fill="#fff">
        <path d="m118.663 45.437h-3.137v.306l.063.009c1.097.135 1.204.279 1.204.836v5.807h1.24v-3.02h.503c1.177 0 3.64 0 3.64-1.959 0-1.977-2.283-1.977-3.514-1.977m-.153 3.398h-.476v-2.256c0-.53 0-.611 1.007-.611 1.133 0 1.762.512 1.762 1.438 0 1.258-1.16 1.429-2.292 1.429"/>
        <path d="m129.206 45.446h-.728v5.42c-.189-.27-3.883-5.42-3.883-5.42h-2.634v.306l.063.009c1.07.135 1.204.189 1.204.953v5.681h.8v-5.825c.198.27 4.189 5.825 4.189 5.825h1.07v-6.948h-.081z"/>
        <path d="m130.231 48.691c0 1.897 1.16 3.811 3.739 3.811 1.231 0 1.834-.135 2.391-.288l.054-.018v-.566l-.099.027c-.593.162-1.186.252-1.654.252-2.067 0-3.074-1.142-3.065-3.479 0-1.564.746-2.499 1.986-2.499.836 0 1.33.324 1.456.971l.009.054h1.366l-.009-.081c-.045-.36-.378-1.546-2.75-1.546-2.274.009-3.425 1.133-3.425 3.362"/>
        <path d="m142.482 48.691c.611-.198 1.186-.674 1.186-1.537 0-1.699-2.022-1.699-2.688-1.699h-3.595v.306l.279.054c.737.144 1.142.216 1.142.872v5.726h2.094c.863 0 3.164 0 3.164-1.906.009-.962-.539-1.582-1.582-1.816m-2.517-2.022c0-.62 0-.683.773-.683 1.106 0 1.645.404 1.645 1.24 0 1.106-1.097 1.231-1.924 1.231h-.494v-1.789zm.899 5.186q-.899 0-.899-.755v-2.103h.494c.701 0 2.328 0 2.328 1.492.009.908-.647 1.366-1.924 1.366"/>
        <path d="m147.983 45.446h-2.112v.297l.054.009c.593.126.845.207.845.404 0 .144-.081.333-.162.494l-.009.018-2.454 5.717h.89s.881-2.175.917-2.265h2.84c.036.081.98 2.265.98 2.265h1.285zm-1.807 4.153c.072-.171 1.106-2.571 1.222-2.831.108.261 1.133 2.661 1.204 2.831h-2.427z"/>
        <path d="m159.21 52.386h1.151v-3.254c.207.207 3.245 3.254 3.245 3.254l1.204-.009-3.73-3.694 3.703-3.227h-1.24s-2.975 2.562-3.173 2.741v-2.732h-2.292v.288l.117.018c.944.135 1.025.162 1.025.872l-.009 5.744z" fillRule="evenodd"/>
        <path d="m157.61 45.411h-.728v5.429c-.189-.27-3.883-5.429-3.883-5.429h-2.634v.315l.063.009c1.07.144 1.204.189 1.204.953v5.69h.8v-5.834c.198.27 4.189 5.834 4.189 5.834h1.07v-6.966h-.081z"/>
    </g>
</svg>