<svg height="180" viewBox="0 0 180 180" width="180" xmlns="http://www.w3.org/2000/svg"><circle cx="90" cy="90" fill="#b4e5fa" opacity=".6" r="85"/><path d="m169.103 32.87c.003-2.714-1.335-5.11-3.38-6.565v-.002s-.026-.018-.026-.018c-.065-.046-.131-.091-.198-.135l-7.499-5.122-4.309 3.807h-58.022c-4.395.002-7.955 3.593-7.953 8.02v57.942c-.002 7.518.378 15.03 1.14 22.507l6.253 61.529c31.535-1.871 58.446-20.92 71.484-47.933l1.382-13.596c.755-7.478 1.136-14.991 1.14-22.507v-57.927h-.011z" fill="#333f48"/><path d="m153.302 19.533h-.001s-15.756-.001-15.756-.001h-51.522c-4.515.002-8.173 3.665-8.171 8.181v59.097c-.002 7.668.388 15.329 1.171 22.956l6.668 65.125c1.427.071 2.864.109 4.309.109 27.216 0 51.426-12.807 66.984-32.705l3.331-32.529c.776-7.627 1.167-15.29 1.171-22.956v-59.094c-.006-4.517-3.667-8.176-8.183-8.183z" fill="#7a8e99"/><path d="m95.511 87.55-17.659-33.296v32.556c-.001 4.884.175 9.765.492 14.637l15.411-8.174c2.065-1.095 2.852-3.657 1.756-5.723z" fill="#566770" fillRule="evenodd"/><path d="m144.736 26.706h-50.135c-4.03.004-7.293 3.275-7.288 7.305v52.149c-.008 4.03 3.252 7.303 7.282 7.311h50.141c4.03-.004 7.293-3.275 7.288-7.305v-52.15c.008-4.03-3.252-7.303-7.282-7.311h-.007.001z" fill="#fff"/><path d="m95.511 87.55-8.198-15.457v14.068c-.008 3.672 2.702 6.707 6.231 7.225l.211-.112c2.065-1.095 2.852-3.657 1.756-5.723z" fill="#bac4ce"/><g fill="#fff"><path d="m104.403 101.706h-10.1c-1.191-.001-2.157.963-2.158 2.154v4.366c-.001 1.191.963 2.157 2.154 2.158h10.104c1.191.001 2.157-.963 2.158-2.154v-4.366c.001-1.191-.963-2.157-2.154-2.158z"/><path d="m124.719 101.706h-10.1c-1.191-.001-2.157.963-2.158 2.154v4.366c-.001 1.191.963 2.157 2.154 2.158h10.104c1.191.001 2.157-.963 2.158-2.154v-4.366c-.007-1.188-.969-2.15-2.158-2.158z"/><path d="m145.034 101.706h-10.1c-1.191-.001-2.157.963-2.158 2.154v4.366c-.001 1.191.963 2.157 2.154 2.158h10.104c1.191.001 2.157-.963 2.158-2.154v-4.366c-.007-1.188-.969-2.15-2.158-2.158z"/><path d="m104.403 114.837h-10.1c-1.191-.001-2.157.963-2.158 2.154v4.366c-.001 1.191.963 2.157 2.154 2.158h10.104c1.191.001 2.157-.963 2.158-2.154v-4.366c.001-1.191-.963-2.157-2.154-2.158z"/><path d="m124.719 114.837h-10.1c-1.191-.001-2.157.963-2.158 2.154v4.366c-.001 1.191.963 2.157 2.154 2.158h10.104c1.191.001 2.157-.963 2.158-2.154v-4.366c-.007-1.188-.969-2.15-2.158-2.158z"/><path d="m145.034 114.837h-10.1c-1.191-.001-2.157.963-2.158 2.154v4.366c-.001 1.191.963 2.157 2.154 2.158h10.104c1.191.001 2.157-.963 2.158-2.154v-4.366c-.007-1.188-.969-2.15-2.158-2.158z"/><path d="m104.403 127.979h-10.1c-1.191-.001-2.157.963-2.158 2.154v4.366c-.001 1.191.963 2.157 2.154 2.158h10.104c1.191.001 2.157-.963 2.158-2.154v-4.366c.001-1.191-.963-2.157-2.154-2.158z"/><path d="m124.719 127.979h-10.1c-1.191-.001-2.157.963-2.158 2.154v4.366c-.001 1.191.963 2.157 2.154 2.158h10.104c1.191.001 2.157-.963 2.158-2.154v-4.366c-.007-1.188-.969-2.15-2.158-2.158z"/><path d="m145.034 127.979h-10.1c-1.191-.001-2.157.963-2.158 2.154v4.366c-.001 1.191.963 2.157 2.154 2.158h10.104c1.191.001 2.157-.963 2.158-2.154v-4.366c-.007-1.188-.969-2.15-2.158-2.158z"/><path d="m104.403 141.11h-10.1c-1.191-.001-2.157.963-2.158 2.154v4.366c-.001 1.191.963 2.157 2.154 2.158h10.104c1.191.001 2.157-.963 2.158-2.154v-4.366c.001-1.191-.963-2.157-2.154-2.158z"/><path d="m124.719 141.11h-10.1c-1.191-.001-2.157.963-2.158 2.154v4.366c-.001 1.191.963 2.157 2.154 2.158h10.104c1.191.001 2.157-.963 2.158-2.154v-4.366c-.007-1.188-.969-2.15-2.158-2.158z"/><path d="m145.034 141.11h-10.1c-1.191-.001-2.157.963-2.158 2.154v4.366c-.001 1.191.963 2.157 2.154 2.158h10.104c1.191.001 2.157-.963 2.158-2.154v-4.366c-.007-1.188-.969-2.15-2.158-2.158z"/></g><path d="m58.635 24.835 4.26 7.235" fill="none" stroke="#29abe2" stroke-linecap="round" stroke-miterlimit="10" stroke-width="3"/><path d="m69.798 17.838-.145 10.124" fill="none" stroke="#29abe2" stroke-linecap="round" stroke-miterlimit="10" stroke-width="3"/><path d="m114.407 72.863c-6.22-.554-11.712-2.839-15.264-6.417-1.932-1.845-3.265-4.228-3.829-6.84-.264-1.436-.264-2.909 0-4.344.937-3.854 3.382-7.17 6.787-9.204 8.398-5.506 21.259-5.467 29.564.066 1.018.666 1.961 1.441 2.812 2.311 1.269 1.244 2.311 2.701 3.076 4.305.104.101.239.165.383.185.757.216 1.448.621 2.007 1.175.698.715 1.305 1.513 1.809 2.377.951 1.426 5.229 8.029 5.493 8.464.106.172-.106.435-.33.435-.172 0-.264-.106-.515-.488-.172-.264-1.268-1.967-2.43-3.763-4.12-6.391-4.358-6.681-5.506-7.276l-.594-.304h-1.782c-1.188 0-1.791.062-1.809.185-.238 1.017-.277 1.281-.238 1.321s1.043.594 2.245 1.281l2.178 1.214-.132.277c-.05.1-.112.193-.185.277-.013 0-1.862-1.017-4.08-2.258s-4.146-2.297-4.305-2.324c-.75-.091-1.445.409-1.598 1.149 0 .634.185.818 4.08 4.014 2.43 1.981 3.803 3.183 4.028 3.46.472.679.853 1.415 1.136 2.192.506 1.513 1.778 2.645 3.341 2.971l.554.132-.053.304c-.02.112-.047.221-.08.33-.638-.097-1.258-.294-1.835-.581-1.033-.512-1.872-1.346-2.39-2.377 0-.013-.396.132-.884.304-.664.186-1.255.574-1.69 1.109-3.953 3.572-8.966 5.751-14.274 6.206-1.891.183-3.793.228-5.691.132zm5.902-1.031c2.415-.282 4.782-.886 7.038-1.796 2.218-.889 4.26-2.163 6.034-3.763l.594-.568-1.518-.726c-1.61-.779-1.782-.898-1.994-1.598-.117-.495.051-1.015.435-1.347l.317-.343-.7-.529c-.554-.41-.726-.621-.832-.884-.177-.449-.113-.957.172-1.347l.211-.304-2.231-.396c-1.228-.211-2.363-.435-2.522-.488-.367-.155-.648-.464-.765-.845-.053-.198 1.043-5.519 1.281-6.285.181-.394.522-.692.937-.818 2.438.295 4.857.723 7.249 1.281.528.312.747.964.515 1.532l-.066.317h.369c.198 0 .66-.013 1.043-.053l.687-.053-.33-.634c-1.275-2.183-3.055-4.031-5.189-5.387-1.499-.931-3.086-1.71-4.74-2.324-2.141-.741-4.361-1.233-6.616-1.466-1.912-.132-3.831-.132-5.744 0-2.699.266-5.344.92-7.857 1.941-5.361 2.284-8.952 6.074-9.863 10.365-.747 3.716.476 7.555 3.235 10.154 3.525 3.71 8.899 5.995 15.357 6.509 1.832.051 3.666.002 5.493-.145h.002zm-1.175-4.04c-.371-.16-.649-.481-.753-.872-.053-.251.013-.41.369-1.096 1.382-2.577 2.086-5.461 2.047-8.384.037-2.806-.621-5.578-1.915-8.068-.215-.392-.391-.803-.529-1.228.036-.359.223-.686.515-.898.405-.227.906-.195 1.281.08.253.332.471.691.648 1.07.99 1.949 1.658 4.044 1.981 6.206.21 1.713.237 3.444.08 5.162-.273 2.195-.902 4.332-1.862 6.325-.581 1.214-.951 1.69-1.268 1.69-.072-.002-.145.011-.211.039-.128.023-.26.013-.383-.027zm-3.962-2.073c-.526-.164-.841-.702-.726-1.241.039-.119.277-.634.529-1.162 1.078-2.152 1.539-4.56 1.333-6.959-.125-1.72-.601-3.397-1.399-4.926-.581-1.202-.621-1.386-.264-1.862.391-.457 1.075-.521 1.545-.145.656 1.012 1.18 2.103 1.558 3.248 1.157 3.572.98 7.443-.502 10.894-.792 1.809-1.321 2.363-2.073 2.152h-.001zm-4.106-2.113c-.327-.165-.568-.463-.66-.818-.053-.198.039-.435.396-1.175 1.383-2.549 1.403-5.62.053-8.187-.581-1.202-.594-1.426-.106-1.901.172-.204.436-.303.7-.264.581 0 .884.304 1.399 1.36 1.498 3.084 1.478 6.69-.053 9.758-.488.977-.726 1.241-1.214 1.321-.176 0-.351-.031-.515-.092zm-3.803-1.967c-.289-.158-.509-.417-.621-.726-.106-.33-.013-.594.369-1.214.452-.662.662-1.459.594-2.258.059-.797-.15-1.593-.594-2.258-.146-.225-.27-.464-.369-.713-.102-.592.283-1.158.872-1.281.502-.106.832.132 1.294.845 1.321 2.094 1.321 4.759 0 6.853-.488.74-1.003.99-1.545.753zm28.441 3.209c.292-.084.574-.194.845-.33-.04-.217-.102-.429-.185-.634-.264-.66-.211-.647-1.162-.462-.978.207-1.994-.091-2.707-.792-.212-.165-.448-.299-.7-.396-.151.048-.284.14-.383.264-.279.289-.323.731-.106 1.07 1.045.655 2.161 1.186 3.327 1.585.364-.07.722-.172 1.07-.304zm-.435-2.126c.41-.08.462-.119.383-.251s-3.948-3.341-4.278-3.538c-.23-.169-.551-.119-.72.11l-.006.009c-.66.713-.594.872 1.149 2.192 2.086 1.61 2.324 1.704 3.472 1.479zm-5.19-4.859c0-.013-.435-.396-.964-.832-1.321-1.083-1.61-1.493-1.61-2.297.047-.734.493-1.384 1.162-1.69.426-.195.906-.237 1.36-.119.251.08 1.413.713 3.011 1.624l.33.198.277-1.321c.277-1.347.277-1.69.039-1.782-.08-.039-1.61-.304-3.433-.621-3.209-.594-3.565-.634-3.71-.396-.08.132-1.294 5.771-1.294 6.007.004.122.052.239.132.33.759.215 1.531.383 2.311.502 2.324.449 2.39.449 2.39.396h-.001z" fill="#566770"/><rect fill="#ef6a00" height="53.075" rx="4.233" transform="matrix(.88343874 -.46854668 .46854668 .88343874 -30.921 31.936)" width="82.254" x="7.601" y="51.577"/><rect fill="#bac4ce" height="8.362" rx="1.229" transform="matrix(.88343874 -.46854668 .46854668 .88343874 -38.122 20.887)" width="11.201" x="17.32" y="82.883"/><path d="m38.297 84.432c-.209.016-.413-.065-.554-.218-.084-.102-.093-.191-.09-.592.014-1.515-.357-3.008-1.08-4.339-.658-1.295-1.626-2.407-2.818-3.237-.193-.128-.373-.274-.538-.436-.071-.174-.065-.371.019-.54.132-.202.369-.307.607-.272.197.091.382.203.553.334.923.655 1.733 1.455 2.4 2.368.509.735.938 1.523 1.28 2.35.403 1.072.629 2.202.668 3.347.026.696-.029 1.003-.174 1.08-.032.016-.061.039-.084.067-.054.045-.118.075-.188.087zm-2.314.004c-.281.051-.554-.12-.632-.394-.01-.064-.026-.358-.037-.66-.024-1.245-.392-2.461-1.062-3.51-.471-.758-1.093-1.411-1.827-1.919-.556-.411-.618-.486-.569-.79.07-.304.368-.497.673-.437.544.306 1.047.68 1.495 1.114 1.39 1.358 2.239 3.176 2.391 5.114.072 1.02-.037 1.4-.432 1.485v-.002zm-2.391.019c-.19.003-.372-.077-.5-.217-.071-.077-.086-.209-.104-.633.021-1.501-.709-2.913-1.946-3.764-.556-.411-.615-.512-.506-.846.03-.134.127-.244.257-.289.266-.14.478-.074.968.286 1.428 1.054 2.287 2.711 2.324 4.485.011.565-.034.744-.235.896-.082.041-.17.068-.261.078 0 0 .002.004.002.004zm-2.217.013c-.17-.003-.334-.068-.459-.184-.129-.125-.15-.271-.123-.646.048-.412-.048-.828-.271-1.178-.165-.38-.453-.694-.816-.892-.121-.068-.236-.147-.341-.237-.189-.247-.148-.598.091-.796.205-.169.414-.138.796.076 1.109.642 1.751 1.864 1.649 3.141-.046.454-.222.69-.529.712l.002.004h.002z" fill="#fff"/><rect fill="#1b2126" height="11.606" rx="3.018" width="15.208" x="92.145" y="156.341"/><path d="m127.273 164.929v-5.57c0-1.667-1.351-3.018-3.018-3.018h-9.171c-1.667 0-3.018 1.351-3.018 3.018v5.57c0 1.667 1.351 3.018 3.018 3.018h8.837c.943-.412 1.876-.843 2.801-1.287.345-.491.551-1.086.551-1.731z" fill="#ef6a00"/><path d="m143.102 156.341h-7.703c-1.667 0-3.018 1.351-3.018 3.018v4.318c3.766-2.174 7.348-4.63 10.721-7.336z" fill="#ffe0a3"/></svg>