<svg height="180" viewBox="0 0 180 180" width="180" xmlns="http://www.w3.org/2000/svg"><circle cx="90" cy="90" fill="#b4e5fa" opacity=".6" r="85"/><path d="m90 37.345c-31.503 0-48.199 11.48-48.199 11.48v35.301c0 48.555 48.199 68.529 48.199 68.529z" fill="#f58025"/><path d="m90 37.345v115.31s48.199-19.975 48.199-68.529v-35.301s-16.715-11.48-48.199-11.48z" fill="#d65e00"/><path d="m142.112 83.244v-38.167s-18.072-12.412-52.112-12.412c-34.06 0-52.112 12.412-52.112 12.412v38.167c0 52.496 52.112 74.092 52.112 74.092s52.112-21.597 52.112-74.092zm-52.112 64.475c-10.782-5.491-43.409-25.342-43.409-64.475v-33.042c6.526-3.168 21.293-8.833 43.409-8.833s36.906 5.678 43.409 8.831v33.043c0 39.137-32.616 58.981-43.409 64.475z" fill="#7a8c9e"/><path d="m90 32.665v8.704c22.124 0 36.906 5.678 43.409 8.831v33.043c0 39.137-32.616 58.981-43.409 64.475v9.617s52.112-21.597 52.112-74.092v-38.166s-18.072-12.412-52.112-12.412z" fill="#4f6878"/><path d="m85.127 108.345c-1.266 0-2.481-.503-3.376-1.399l-13.864-13.864c-1.865-1.864-1.865-4.888 0-6.752 1.863-1.865 4.888-1.865 6.753 0l10.483 10.483 24.351-24.419c1.861-1.867 4.886-1.87 6.753-.01 1.868 1.862 1.872 4.885.01 6.753l-27.728 27.805c-.895.898-2.111 1.402-3.378 1.403h-.003z" fill="#fff"/></svg>