<?xml version="1.0" encoding="utf-8"?>
<!-- Generator: Adobe Illustrator 24.2.0, SVG Export Plug-In . SVG Version: 6.00 Build 0)  -->
<svg version="1.1" id="Layer_1" xmlns="http://www.w3.org/2000/svg" xmlns:xlink="http://www.w3.org/1999/xlink" x="0px" y="0px"
	 width="150px" height="150px" viewBox="0 0 150 150" style="enable-background:new 0 0 150 150;" xml:space="preserve">
<style type="text/css">
	.st0{fill:#EDF2F4;}
	.st1{fill:none;stroke:#5A6771;stroke-width:1.262;stroke-miterlimit:10;}
	.st2{opacity:0.79;fill:#FFD071;enable-background:new    ;}
	.st3{fill:#FFFFFF;}
	.st4{fill:none;}
	.st5{fill:#5A6771;}
	.st6{fill:#F8A72C;}
	.st7{opacity:0.79;fill:#F9D9AF;enable-background:new    ;}
	.st8{fill:#333C48;}
</style>
<g>
	<circle class="st0" cx="78.2" cy="78.2" r="62.3"/>
	<circle class="st1" cx="141.9" cy="55.3" r="3"/>
	<circle class="st2" cx="27.7" cy="128.3" r="5.4"/>
	<g>
		<g>
			<path class="st3" d="M121.7,121.7H35.9c-0.6,0-1.1-0.5-1.1-1.1V74.1c0-0.3,0.1-0.6,0.4-0.9L77.8,30c0.3-0.3,0.5-0.4,0.9-0.4
				c0.4,0,0.6,0.1,0.9,0.4l43.2,43.2c0.3,0.3,0.4,0.5,0.4,0.9l0.1,46.4c0,0.3-0.1,0.6-0.4,0.9C122.3,121.6,122.1,121.7,121.7,121.7z
				"/>
			<polygon class="st4" points="78.3,30.4 35.8,73.6 35.8,120.1 121.6,120.1 121.6,73.6 121.6,73.6 			"/>
			<path class="st5" d="M121.6,121.2H35.8c-0.6,0-1.1-0.5-1.1-1.1V73.6c0-0.3,0.1-0.6,0.4-0.9l42.7-43.3c0.3-0.3,0.5-0.4,0.9-0.4
				c0.4,0,0.6,0.1,0.9,0.4l43.2,43.2c0.3,0.3,0.4,0.5,0.4,0.9l0.1,46.4c0,0.3-0.1,0.6-0.4,0.9C122.2,121.1,121.9,121.2,121.6,121.2z
				 M36.9,118.8h83.5l-0.1-44.7l-42-42l-41.4,42V118.8z"/>
		</g>
		<g>
			<polygon class="st6" points="45.8,34.2 35.8,34.2 35.8,55.2 45.8,45 			"/>
			<path class="st5" d="M35.8,56.4c-0.1,0-0.3,0-0.5-0.1c-0.5-0.1-0.8-0.6-0.8-1.1V34.2c0-0.6,0.5-1.1,1.1-1.1h10.1
				c0.6,0,1.1,0.5,1.1,1.1V45c0,0.3-0.1,0.6-0.4,0.9L36.4,56.1C36.4,56.3,36,56.4,35.8,56.4z M36.9,35.4v16.9l7.7-7.8v-9.1
				C44.6,35.4,36.9,35.4,36.9,35.4z"/>
		</g>
		<g>
			<polygon class="st7" points="78.3,23.1 35.8,66.4 35.8,73.6 78.3,30.4 121.6,73.6 121.6,73.6 121.6,66.3 			"/>
			<path class="st5" d="M35.8,74.9c-0.1,0-0.3,0-0.5-0.1c-0.5-0.1-0.8-0.6-0.8-1.1v-7.3c0-0.3,0.1-0.6,0.4-0.9l42.7-43.3
				c0.3-0.3,0.5-0.4,0.9-0.4c0.4,0,0.6,0.1,0.9,0.4l43.2,43.2c0.3,0.3,0.4,0.5,0.4,0.9v7.3c0,0.5-0.3,0.9-0.8,1.1
				c-0.4,0.1-0.9,0.1-1.3-0.3L78.3,32.1L36.5,74.5C36.4,74.7,36,74.9,35.8,74.9z M36.9,66.8v3.9l40.6-41.3c0.3-0.3,0.5-0.4,0.9-0.4
				c0.4,0,0.6,0.1,0.9,0.4l41,41.3v-3.9l-42-42L36.9,66.8z"/>
		</g>
		<g>
			<rect x="66" y="70.6" class="st3" width="25.4" height="40.4"/>
			<path class="st5" d="M91.3,112.1H66c-0.6,0-1.1-0.5-1.1-1.1V70.6c0-0.6,0.5-1.1,1.1-1.1h25.2c0.6,0,1.1,0.5,1.1,1.1V111
				C92.5,111.6,91.9,112.1,91.3,112.1z M67.2,109.8h23V71.7h-23V109.8z"/>
		</g>
		<g>
			<rect x="59.9" y="115.5" class="st6" width="37.7" height="4.5"/>
			<path class="st5" d="M97.5,121.2H59.9c-0.6,0-1.1-0.5-1.1-1.1v-4.5c0-0.6,0.5-1.1,1.1-1.1h37.7c0.6,0,1.1,0.5,1.1,1.1v4.5
				C98.7,120.7,98.1,121.2,97.5,121.2z M61,118.8h35.3v-2.1H61V118.8z"/>
		</g>
		<g>
			<rect x="62.9" y="111" class="st6" width="31.7" height="4.5"/>
			<path class="st5" d="M94.4,116.6H62.9c-0.6,0-1.1-0.5-1.1-1.1V111c0-0.6,0.5-1.1,1.1-1.1h31.7c0.6,0,1.1,0.5,1.1,1.1v4.5
				C95.7,116.1,95.2,116.6,94.4,116.6z M64,114.4h29.3v-2.3H64V114.4z"/>
		</g>
		<g>
			<path class="st5" d="M87,90.8c0,0.4-0.4,0.8-0.8,0.8l0,0c-0.4,0-0.8-0.4-0.8-0.8l0,0c0-0.4,0.4-0.8,0.8-0.8l0,0
				C86.7,90,87,90.4,87,90.8L87,90.8z"/>
			<path class="st5" d="M86.2,92.7c-1,0-1.9-0.9-1.9-1.9s0.9-1.9,1.9-1.9s1.9,0.9,1.9,1.9S87.4,92.7,86.2,92.7z M86.2,90.3
				c-0.3,0-0.5,0.3-0.5,0.5c0,0.3,0.3,0.5,0.5,0.5c0.3,0,0.5-0.3,0.5-0.5C86.7,90.5,86.5,90.3,86.2,90.3z"/>
		</g>
		<g>
			<g>
				<polygon class="st6" points="78.3,10.8 23.5,66.4 29.7,72.5 78.3,23.1 127.6,72.5 133.8,66.3 				"/>
				<path class="st5" d="M127.6,73.6c-0.3,0-0.6-0.1-0.9-0.4L78.3,24.8L30.6,73.2c-0.5,0.5-1.1,0.5-1.6,0l-6.2-6.1
					c-0.3-0.3-0.4-0.5-0.4-0.9c0-0.3,0.1-0.6,0.4-0.9L77.5,9.9c0.3-0.3,0.5-0.4,0.9-0.4l0,0c0.3,0,0.6,0.1,0.9,0.4l55.5,55.5
					c0.5,0.5,0.5,1.3,0,1.6l-6.2,6.2C128.3,73.5,128,73.6,127.6,73.6z M78.3,22c0.3,0,0.6,0.1,0.9,0.4l48.5,48.5l4.4-4.4l-53.8-54
					l-53,53.9l4.5,4.4l47.7-48.5C77.7,22.1,78,22,78.3,22L78.3,22z"/>
			</g>
		</g>
	</g>
	<g>
		<g>
			<g>
				<path class="st8" d="M14.4,127h-2.3v-2.3h2.1L14.4,127z M8.2,125.5l-0.8-0.9l0.9-0.8l-0.9,0.8l-0.9-0.8l1.5-1.6l1,0.9l0.8,0.9
					L8.2,125.5z M18,125.5l-1.4-1.8l0.9-0.8l0.8-0.9l1.6,1.6l-0.9,1L18,125.5z M21.4,120.1l-2.3-0.1v-2.3h2.3V120.1z M5.1,120.1
					v-1.1c0-0.6,0.5-1.1,1.1-1.1s1.1,0.5,1.1,1.1v1.1H5.1z M8.2,115.6L6.6,114l0.9-1l0.9-0.8l1.4,1.8l-0.9,0.8L8.2,115.6z
					 M18.3,115.5l-1-0.9l-0.8-0.9l1.6-1.5l0.8,0.9l-0.9,0.8l0.9-0.8l0.9,0.8L18.3,115.5z M14.3,113H12v-2.3h2.3V113z"/>
			</g>
		</g>
	</g>
</g>
</svg>
