<svg id="Layer_1" data-name="Layer 1" xmlns="http://www.w3.org/2000/svg" viewBox="0 0 231 231"><defs><style>.cls-1{fill:#242a2d;}.cls-2{fill:#b6c7ce;}.cls-3{fill:#6c848c;}.cls-4{fill:#3f4b51;}.cls-5{fill:#e09b6c;}.cls-6{fill:#f4be9a;}.cls-7{fill:#5a6c77;}.cls-8{fill:#fff;}.cls-9{fill:#f58025;}.cls-10{fill:#e3f7ff;}</style></defs><title>vw_</title><path class="cls-1" d="M125.4,151.1a36.213,36.213,0,0,0-7.956.817c-.615-.138-1.257-.258-1.92-.364v30.488h26.288A143.834,143.834,0,0,1,183.4,193.216l.924-15.78,14.6-10.121A173.883,173.883,0,0,0,125.4,151.1Z"/><path class="cls-2" d="M117.444,153.946c-.642,0-1.279.021-1.919.027v23.21c.64-.007,1.277-.026,1.919-.026a178.771,178.771,0,0,1,66.2,12.52l.852-12.169,11.313-8A201.717,201.717,0,0,0,117.444,153.946Z"/><path class="cls-1" d="M105.569,151.1a36.213,36.213,0,0,1,7.956.817c.615-.138,1.257-.258,1.92-.364v30.488H89.157a143.834,143.834,0,0,0-41.588,11.177l-.924-15.78-14.6-10.121A173.88,173.88,0,0,1,105.569,151.1Z"/><path class="cls-2" d="M113.526,153.946c.641,0,1.279.021,1.919.027v23.21c-.64-.007-1.277-.026-1.919-.026a178.78,178.78,0,0,0-66.2,12.52l-.851-12.169-11.313-8A201.717,201.717,0,0,1,113.526,153.946Z"/><circle class="cls-1" cx="115.5" cy="117.861" r="85.5"/><path class="cls-3" d="M187.861,158.361l.89-5.911-16.774,23.241-2.985,8.9A86.226,86.226,0,0,0,186.316,165.8Z"/><path class="cls-3" d="M43.09,158.361l-.89-5.911,16.5,23.205,3.322,8.92A86.285,86.285,0,0,1,44.688,165.79Z"/><circle class="cls-4" cx="115.5" cy="113.139" r="85.5"/><circle class="cls-4" cx="115.5" cy="113.139" r="85.5"/><circle class="cls-5" cx="115.5" cy="113.139" r="80"/><path class="cls-6" d="M139.744,36.889,39.25,137.383a79.982,79.982,0,0,0,20.566,33.168l113.1-113.1A79.982,79.982,0,0,0,139.744,36.889Z"/><path class="cls-6" d="M35.528,114.239A80.233,80.233,0,0,0,36.9,127.982l93.446-93.446A80.233,80.233,0,0,0,116.6,33.167Z"/><circle class="cls-7" cx="115.5" cy="113.139" r="75.5"/><path class="cls-4" d="M115.5,39.639a75.489,75.489,0,0,1,75.475,74.5c0-.334.025-.665.025-1a75.5,75.5,0,0,0-151,0c0,.335.021.666.025,1A75.489,75.489,0,0,1,115.5,39.639Z"/><circle class="cls-4" cx="115.5" cy="116.139" r="50.5"/><circle class="cls-5" cx="115.5" cy="113.139" r="50.5"/><path class="cls-8" d="M64.6,87.451,51.627,85.285,52.8,83.05l8.36,1.545-6.025-5.983,1.183-2.25,9.131,9.459Z"/><path class="cls-8" d="M68.208,81.285l-10.2-7.2,1.406-1.991,10.2,7.2Z"/><path class="cls-8" d="M70.936,64.689a3.349,3.349,0,0,1,.82,3.91l5.83,1.668-1.938,2.054-5.3-1.647-1.2,1.277,3.623,3.418L71.1,77.142l-9.082-8.571,3.359-3.56A3.766,3.766,0,0,1,70.936,64.689Zm-3.281,5.852,1.59-1.683a1.644,1.644,0,1,0-2.386-2.251L65.27,68.29Z"/><path class="cls-8" d="M76.234,58.444l6.173,8.262-1.953,1.46L74.281,59.9l-2.614,1.952-1.3-1.742,7.181-5.365,1.3,1.743Z"/><path class="cls-8" d="M90.335,62.1a4.327,4.327,0,0,1-6.047-1.906l-3.635-7.363L82.84,51.75l3.6,7.284a2.063,2.063,0,0,0,2.937,1.113,2.089,2.089,0,0,0,.933-3.024l-3.6-7.284L88.9,48.76l3.635,7.362A4.348,4.348,0,0,1,90.335,62.1Z"/><path class="cls-8" d="M103.381,57.352l-1.289-1.94L97.828,56.57l-.149,2.33-2.471.67,1.129-13.243,1.845-.5,7.67,10.854Zm-2.486-3.74-2.658-3.967-.3,4.77Z"/><path class="cls-8" d="M114.838,53.8l.188,2.166-8.072.7-1.076-12.439,2.429-.21.888,10.273Z"/><path class="cls-8" d="M128.925,57.68l-.779-7.859-3.709,6.966-2-.4-.851-12.9,2.493.5.361,8.08,3.784-7.257,1.771.352.722,8.152,3.423-7.328,2.493.5-5.7,11.594Z"/><path class="cls-8" d="M140.37,61.751l.181-2.323-4.072-1.719-1.555,1.743-2.359-1,9.058-9.731,1.761.743-.655,13.278Zm.349-4.479.353-4.763-3.181,3.569Z"/><path class="cls-8" d="M151.585,66.021l-1.188,1.82-6.781-4.428,6.822-10.451,2.041,1.332-5.635,8.631Z"/><path class="cls-8" d="M159.024,72.793l-1.477,1.6L151.6,68.883l8.485-9.159,1.788,1.657-7.007,7.564Z"/><path class="cls-8" d="M168.248,71.29l-2.332,1.775,3,3.936-1.731,1.318-3-3.938-2.415,1.837,3.5,4.608-1.731,1.317L158.562,75.6l9.941-7.561,4.98,6.547L171.752,75.9Z"/><path class="cls-8" d="M175.887,83.343l-9.16,4.737-1.12-2.166,9.161-4.737-1.5-2.9,1.932-1,4.117,7.961-1.932,1Z"/><path class="cls-6" d="M99.708,65.172A50.607,50.607,0,0,0,67.533,97.347Z"/><path class="cls-6" d="M115.5,62.639c-.518,0-1.03.024-1.545.039L65.039,111.594c-.015.515-.039,1.027-.039,1.545a50.341,50.341,0,0,0,15.675,36.552l71.377-71.377A50.341,50.341,0,0,0,115.5,62.639Z"/><path class="cls-9" d="M142.977,86.964s-28.5-10.81-29.483-10.81H99.735L90.89,81.068,84.01,92.861l-3.931,12.776L79.1,122.345v5.9l3.931,2.949s30.467,12.776,30.467,13.759,6.879,3.931,7.862,3.931,5.9-2.948,5.9-2.948l1.965,2.948h2.949l3.931-5.9s7.862-23.587,7.862-24.57,2.949-21.621,2.949-21.621l-.983-6.879Z"/><path class="cls-4" d="M146.986,86.58l.076-.057c-.071-.039-.235-.127-.463-.253-.058-.042-.113-.1-.176-.139a4.486,4.486,0,0,0-.864-.409c-6.359-3.3-31.153-15.429-47.426-10.645C85.354,78.83,80.047,98.858,78.357,107.3c-.172.852-4.107,20.793.545,24.564,4.095,3.323,38.92,16.782,45.555,19.417a.547.547,0,0,0,.092.034c.283.117.527.21.691.283l-.045-.133a2.689,2.689,0,0,0,.95-.048c.532-.138.937-.268,1.773-2.078,1.379,1.391,3.358,2.909,5.483,2.687a4.309,4.309,0,0,0,3.489-2.754C148.054,124.871,153.16,92.421,146.986,86.58Zm-24.379,59.931c-14.52-5.953-37.512-15.772-40.669-18.149-.411-.708-.659-2.6-.659-5.31a84.083,84.083,0,0,1,4.894-26.7c2.44-6.621,6.714-14.917,13.263-16.848,13.151-3.861,33.138,4.248,41.04,7.871a14.928,14.928,0,0,0-1.231,1.317C130.871,98.873,122.508,134.326,122.607,146.511Zm10.106.777c-.67-.325,1.755-21.408,10.207-48.286,0,0-4.619,4.269-14.633,39.111,2.694-14.061,8.66-39.349,14.527-46.484a6.654,6.654,0,0,1,1.3-1.287c.628.946.99,3.169.99,6.461C145.107,107.247,141.637,127.76,132.713,147.288Z"/><path class="cls-4" d="M189.2,156.473a174.728,174.728,0,0,0-147.46-.114,85.9,85.9,0,0,0,20.672,23.774,144.695,144.695,0,0,1,106.078.081A85.878,85.878,0,0,0,189.2,156.473Z"/><path class="cls-10" d="M115.345,143.1a173.79,173.79,0,0,0-72.173,15.615,85.9,85.9,0,0,0,16.27,18.953,152.433,152.433,0,0,1,111.781.291,85.893,85.893,0,0,0,16.534-19.134A173.769,173.769,0,0,0,115.345,143.1Z"/><path class="cls-8" d="M170.434,141.992a9.09,9.09,0,0,0,1.154-5.534c-.224-1.524-.97-2.606-2.518-4.255-1.348,4.735-.22,6.814.779,8.659C170.057,141.246,170.256,141.614,170.434,141.992Z"/><path class="cls-8" d="M172.679,132.849c.249.336.5.679.738,1.039a9.1,9.1,0,0,0,.373-5.641c-.434-1.482-1.324-2.449-3.087-3.861C170.028,129.259,171.433,131.162,172.679,132.849Z"/><path class="cls-8" d="M171.233,116.412c.009,4.927,1.667,6.615,3.136,8.109h0c.291.3.59.6.873.926a9.1,9.1,0,0,0-.415-5.639C174.145,118.3,172.95,117.43,171.233,116.412Z"/><path class="cls-8" d="M178.166,128.962a14.14,14.14,0,0,0-2.39,5.536c.244-.12.5-.239.758-.361,2.575-1.2,5.481-2.557,5.9-8.32A10.159,10.159,0,0,0,178.166,128.962Z"/><path class="cls-8" d="M180.487,135.256a10.11,10.11,0,0,0-4.664,2.521,14.137,14.137,0,0,0-3.14,5.149c.267-.087.537-.17.8-.252C176.2,141.843,179.269,140.906,180.487,135.256Z"/><path class="cls-8" d="M179.26,119.91a14.132,14.132,0,0,0-1.6,5.814c.237-.162.476-.317.7-.462,2.383-1.549,5.072-3.3,4.686-9.063A10.153,10.153,0,0,0,179.26,119.91Z"/><path class="cls-8" d="M175.943,109.115c-.052-.054-.1-.108-.149-.161a8.529,8.529,0,0,0,1.479,7.789A6.326,6.326,0,0,0,175.943,109.115Z"/><path class="cls-8" d="M60.031,141.992a9.1,9.1,0,0,1-1.154-5.534c.224-1.524.971-2.606,2.518-4.255,1.348,4.735.221,6.814-.778,8.659C60.408,141.246,60.209,141.614,60.031,141.992Z"/><path class="cls-8" d="M57.786,132.849c-.248.336-.5.679-.737,1.039a9.1,9.1,0,0,1-.374-5.641c.435-1.482,1.325-2.449,3.087-3.861C60.437,129.259,59.032,131.162,57.786,132.849Z"/><path class="cls-8" d="M59.232,116.412c-.009,4.927-1.666,6.615-3.136,8.109h0c-.291.3-.589.6-.873.926a9.113,9.113,0,0,1,.415-5.639C56.32,118.3,57.516,117.43,59.232,116.412Z"/><path class="cls-8" d="M52.3,128.962A14.142,14.142,0,0,1,54.69,134.5c-.244-.12-.5-.239-.758-.361-2.575-1.2-5.481-2.557-5.9-8.32A10.156,10.156,0,0,1,52.3,128.962Z"/><path class="cls-8" d="M49.979,135.256a10.111,10.111,0,0,1,4.663,2.521,14.124,14.124,0,0,1,3.14,5.149c-.266-.087-.537-.17-.8-.252C54.263,141.843,51.2,140.906,49.979,135.256Z"/><path class="cls-8" d="M51.205,119.91a14.134,14.134,0,0,1,1.6,5.814c-.237-.162-.476-.317-.7-.462-2.383-1.549-5.072-3.3-4.685-9.063A10.151,10.151,0,0,1,51.205,119.91Z"/><path class="cls-8" d="M54.522,109.115c.053-.054.1-.108.15-.161a8.534,8.534,0,0,1-1.479,7.789A6.325,6.325,0,0,1,54.522,109.115Z"/><path class="cls-4" d="M104.639,149.542l-.361-3.047-6.093.723.362,3.047,1.084-.129,1.2,10.136-.731.906-3.151.373-.945-.71-1.2-10.133,1.084-.128-.362-3.047-6.092.722L89.8,151.3l1.084-.129,1.345,11.337,2.969,2.339,7.363-.873,2.368-2.97-1.343-11.338ZM69.858,160.428l-5.025,1.753-1.052-.538-.772-2.21.494-1.054,3.028-1.057,1.043.519.513,1.471L71.843,158l-.918-2.632-3.405-1.642-7.028,2.451-1.642,3.405,1.578,4.522,3.412,1.671,5.033-1.756,1.031.5.76,2.175-.5,1.032-3.036,1.059-1.03-.5-.487-1.4-3.756,1.31.884,2.533,3.4,1.643,7.028-2.451,1.643-3.407-1.552-4.449Zm14.834-6.958,2.988-.7-.942-4.026-13.946,3.262.941,4.025,2.962-.692-.242-1.038,2.074-.486,2.51,10.731-1.064.249.7,2.987,6-1.4-.7-2.987-1.063.249L82.4,152.912l2.05-.48Zm65.384-.162,1.066.235-1.477,6.72-3.7-11-4.823-1.061-.659,3,1.066.234L139.181,162.2l-1.066-.234-.659,3,5.992,1.316.658-3-1.066-.234,1.427-6.5,3.627,10.746,4.95,1.088.659-3-1.066-.235L155,154.391l1.066.234.659-3-5.993-1.317Zm9.294-.889-1.348,3.908,2.876.991.347-1.007,2.015.693-3.589,10.42-1.033-.355-1,2.9,5.825,2.007,1-2.9-1.031-.356,3.589-10.419,1.99.685-.347,1.007,2.9,1,1.348-3.908Zm-35.145-2.936,1.087.106-1.071,10.969-1.087-.106-.3,3.053,12.263,1.2.368-3.777-3.027-.3-.071.723-4.217-.411.387-3.957,1.758.172-.069.7,3.055.3.434-4.45-3.053-.3-.071.725-1.759-.172.389-3.983,4.216.412-.071.724,3.029.295.367-3.778-12.263-1.2Zm-6.247-3.213-10.453.059.017,3.068,1.092-.006.063,11.02-1.091.006.017,3.069,10.454-.061,2.658-2.688-.068-11.81Zm-2.052,14.1-3.277.019-.063-11.02,3.272-.019.864.835.055,9.364Z"/></svg>