<svg viewBox="0 0 231 231" xmlns="http://www.w3.org/2000/svg" xmlns:xlink="http://www.w3.org/1999/xlink"><linearGradient id="a" gradientUnits="userSpaceOnUse" x1="87.655" x2="175.933" y1="189.811" y2="101.532"><stop offset="0" stop-color="#7dbb4d"/><stop offset="1" stop-color="#98ce63"/></linearGradient><linearGradient id="b" gradientUnits="userSpaceOnUse" x1="13.61" x2="107.151" y1="120.028" y2="26.487"><stop offset="0" stop-color="#349bd5"/><stop offset="1" stop-color="#4ab5e5"/></linearGradient><circle cx="154.532" cy="155.999" fill="#5b8047" r="74.739"/><circle cx="154.532" cy="153.297" fill="#7dbb4d" r="74.739"/><path d="m166.472 79.519-85.779 85.375a74.22 74.22 0 0 0 9.577 26.561l102.666-102.278a74.257 74.257 0 0 0 -26.464-9.658zm32.458 13.66-104.676 104.291a75 75 0 0 0 8.012 9.23l105.853-105.476a75.146 75.146 0 0 0 -9.189-8.045z" fill="url(#a)"/><path d="m157.576 210.007c-.932.045-1.869.071-2.812.071a56.788 56.788 0 1 1 56.787-56.787c0 1.663-.087 3.307-.228 4.935l1.8.1c.142-1.66.231-3.336.231-5.033a58.589 58.589 0 1 0 -58.588 58.588q1.466 0 2.914-.074z" fill="#5b8047"/><path d="m123.533 172.987 21.872-21.1 15.625-3.78 16.61-18.101v10.632 32.349z" fill="#5b8047"/><path d="m175.537 204.9-2.04.66a1.838 1.838 0 0 0 -2.355-.915 1.734 1.734 0 0 0 -1.1.967c-.253.565-.21 1.1.43 3.08s.92 2.454 1.456 2.765a1.728 1.728 0 0 0 1.456.126 1.959 1.959 0 0 0 1.254-1.05 2.093 2.093 0 0 0 .02-1.533l-.122-.38-1.91.615-.548-1.7 3.919-1.265.49 1.515a4.349 4.349 0 0 1 .028 3.482 4.048 4.048 0 0 1 -2.548 2.126 3.937 3.937 0 0 1 -3.122-.2c-1.369-.7-1.759-1.864-2.4-3.845s-1-3.152-.3-4.522a4.192 4.192 0 0 1 7.394.076z" fill="#fff"/><path d="m183.673 200.718a2.919 2.919 0 0 1 -.452 3.457l4.322 3.058-2.189 1.132-3.89-2.885-1.359.7 2 3.863-1.891.978-5.014-9.681 3.8-1.963a3.287 3.287 0 0 1 4.673 1.341zm-4.391 3.875 1.795-.93a1.435 1.435 0 1 0 -1.315-2.543l-1.8.929z" fill="#fff"/><path d="m188.816 194.119c1.512.2 2.269 1.187 3.519 2.851s1.982 2.666 1.757 4.175a4.3 4.3 0 0 1 -4.676 3.512c-1.523-.217-2.27-1.187-3.52-2.853s-1.973-2.653-1.757-4.175a4.3 4.3 0 0 1 4.677-3.51zm-2.628 3.639c-.054.615.16 1.1 1.41 2.77s1.65 1.994 2.257 2.114a1.852 1.852 0 0 0 2.179-1.636c.055-.616-.151-1.094-1.4-2.759s-1.66-2.006-2.266-2.127a1.888 1.888 0 0 0 -2.179 1.638z" fill="#fff"/><path d="m203.357 193.277-6.287-2.837 3.654 5.846-1.169 1.335-10.131-4.98 1.462-1.67 6.272 3.251-3.842-6.028 1.04-1.187 6.483 3.009-4.053-5.786 1.462-1.671 6.289 9.37z" fill="#fff"/><path d="m202.511 178.3 7.9 4.319-1.02 1.867-7.9-4.32-1.365 2.5-1.665-.911 3.753-6.86 1.666.911z" fill="#fff"/><path d="m214.994 171.417-4.331-1.435-1.163 3.518 4.331 1.436-.67 2.019-10.348-3.431.67-2.021 4.215 1.4 1.167-3.518-4.216-1.4.67-2.021 10.348 3.43z" fill="#fff"/><circle cx="76.468" cy="77.703" fill="#2261a3" r="74.739"/><circle cx="76.468" cy="75.001" fill="#349bd5" r="74.739"/><path d="m98.593 3.594-93.629 93.19a74.492 74.492 0 0 0 12.321 23.836l105.024-104.626a74.506 74.506 0 0 0 -23.716-12.4zm29.1 17.011-105.812 105.421a75.149 75.149 0 0 0 9.036 8.211l104.951-104.577a75.1 75.1 0 0 0 -8.176-9.055z" fill="url(#b)"/><path d="m79.885 149.654a74.736 74.736 0 0 0 71.23-71.009 74.735 74.735 0 0 0 -71.23 71.009z" fill="#008993"/><path d="m96.518 147c.633-.175 1.26-.362 1.886-.554a56.882 56.882 0 0 1 49.512-49.516q.288-.937.55-1.885a58.691 58.691 0 0 0 -51.948 51.955z" fill="#007f7c"/><path d="m20.546 53.292a2.919 2.919 0 0 1 2.139 2.753l5.213-.922-.735 2.354-4.786.735-.456 1.46 4.15 1.3-.634 2.028-10.4-3.251 1.274-4.077a3.287 3.287 0 0 1 4.235-2.38zm-.335 5.846.6-1.929a1.434 1.434 0 1 0 -2.732-.854l-.6 1.929z" fill="#fff"/><path d="m21.348 48.215 2.273 1.17 1.979-3.839 1.688.868-1.975 3.839 2.355 1.212 2.311-4.492 1.687.869-3.285 6.384-9.691-4.988 3.285-6.383 1.688.867z" fill="#fff"/><path d="m28.85 35.231.258 1.878a2.826 2.826 0 0 0 -1.941 1.338 1.444 1.444 0 0 0 .092 2.174 1.03 1.03 0 0 0 .818.211 1.768 1.768 0 0 0 .928-.549l.94-.921a3.446 3.446 0 0 1 1.935-1.152 2.992 2.992 0 0 1 2.342.7c1.69 1.266 1.6 3.38.223 5.217a5.118 5.118 0 0 1 -3.54 2.323l-.275-1.929a3.55 3.55 0 0 0 2.305-1.545c.761-1.016.774-1.85.075-2.372a1.225 1.225 0 0 0 -.925-.273 1.641 1.641 0 0 0 -.881.564l-.94.922a3.733 3.733 0 0 1 -1.99 1.149 2.851 2.851 0 0 1 -2.183-.661c-1.556-1.166-1.783-3.134-.37-5.021a4.672 4.672 0 0 1 3.129-2.053z" fill="#fff"/><path d="m32.945 31.946 1.777 1.839 3.1-3 1.32 1.365-3.105 3 1.841 1.9 3.632-3.512 1.319 1.367-5.158 4.995-7.571-7.841 5.163-4.989 1.319 1.365z" fill="#fff"/><path d="m46.067 23.426a2.922 2.922 0 0 1 -.033 3.487l4.658 2.517-2.038 1.388-4.207-2.4-1.266.861 2.447 3.6-1.759 1.2-6.136-9.013 3.531-2.405a3.288 3.288 0 0 1 4.803.765zm-3.9 4.376 1.672-1.138a1.436 1.436 0 1 0 -1.607-2.364l-1.671 1.137z" fill="#fff"/><path d="m53.688 28.091-7.827-8.391 2-.921 4.966 5.514-.99-7.346 2.017-.928 1.291 11.4z" fill="#fff"/><path d="m58.656 16.541.684 2.465 4.16-1.153.507 1.829-4.161 1.153.707 2.554 4.87-1.349.508 1.829-6.921 1.919-2.91-10.509 6.923-1.917.507 1.83z" fill="#fff"/><path d="m75.715 88.9-16 11.676a1.277 1.277 0 0 1 -1.965-1.426l6.161-18.823a1.278 1.278 0 0 0 -.465-1.433l-16.046-11.606a1.278 1.278 0 0 1 .752-2.313l19.8.043a1.279 1.279 0 0 0 1.219-.885l6.079-18.85a1.278 1.278 0 0 1 2.432 0l6.079 18.85a1.279 1.279 0 0 0 1.219.885l19.805-.043a1.278 1.278 0 0 1 .752 2.313l-16.047 11.606a1.278 1.278 0 0 0 -.465 1.433l6.161 18.823a1.277 1.277 0 0 1 -1.967 1.429l-16-11.676a1.275 1.275 0 0 0 -1.504-.003z" fill="#2261a3"/><path d="m76.468 16.413c-1.2 0-2.378.047-3.554.118l.1 1.8c1.143-.069 2.292-.115 3.452-.115a56.788 56.788 0 1 1 -56.786 56.784c0-1.042.033-2.077.089-3.105l-1.8-.1c-.057 1.061-.091 2.129-.091 3.2a58.589 58.589 0 1 0 58.59-58.582z" fill="#2261a3"/><circle cx="115.5" cy="117.869" fill="#242a2d" r="85.5"/><circle cx="115.5" cy="113.131" fill="#3f4b51" r="85.5"/><circle cx="115.5" cy="113.131" fill="#e09b6c" r="80"/><path d="m139.744 36.881-100.494 100.494a79.982 79.982 0 0 0 20.566 33.168l113.1-113.1a79.982 79.982 0 0 0 -33.172-20.562z" fill="#f4be9a"/><path d="m35.528 114.231a80.243 80.243 0 0 0 1.372 13.743l93.446-93.446a80.233 80.233 0 0 0 -13.746-1.369z" fill="#f4be9a"/><circle cx="115.5" cy="113.131" fill="#5a6c77" r="75.5"/><path d="m115.5 39.631a75.488 75.488 0 0 1 75.475 74.5c0-.334.025-.665.025-1a75.5 75.5 0 0 0 -151 0c0 .335.021.666.025 1a75.488 75.488 0 0 1 75.475-74.5z" fill="#3f4b51"/><circle cx="115.5" cy="116.131" fill="#3f4b51" r="50.5"/><circle cx="115.5" cy="113.131" fill="#e09b6c" r="50.5"/><g fill="#fff"><path d="m64.6 87.442-12.973-2.166 1.173-2.234 8.36 1.545-6.022-5.987 1.183-2.25 9.131 9.458z"/><path d="m68.208 81.276-10.2-7.2 1.406-1.991 10.2 7.2z"/><path d="m70.936 64.681a3.349 3.349 0 0 1 .82 3.91l5.83 1.668-1.938 2.053-5.3-1.646-1.2 1.276 3.623 3.419-1.671 1.773-9.082-8.572 3.356-3.562a3.766 3.766 0 0 1 5.562-.319zm-3.281 5.852 1.59-1.683a1.644 1.644 0 1 0 -2.386-2.25l-1.589 1.682z"/><path d="m76.234 58.436 6.173 8.264-1.953 1.46-6.173-8.26-2.614 1.952-1.3-1.743 7.181-5.364 1.3 1.742z"/><path d="m90.335 62.09a4.327 4.327 0 0 1 -6.047-1.906l-3.635-7.363 2.187-1.079 3.6 7.283a2.063 2.063 0 0 0 2.937 1.114 2.089 2.089 0 0 0 .933-3.024l-3.6-7.284 2.19-1.079 3.635 7.362a4.348 4.348 0 0 1 -2.2 5.976z"/><path d="m103.381 57.344-1.289-1.94-4.264 1.158-.149 2.33-2.471.67 1.129-13.243 1.845-.5 7.67 10.855zm-2.481-3.744-2.658-3.967-.3 4.77z"/><path d="m114.838 53.79.188 2.166-8.072.7-1.076-12.439 2.429-.21.888 10.273z"/><path d="m128.925 57.672-.779-7.86-3.709 6.967-2-.4-.851-12.9 2.493.5.361 8.08 3.784-7.256 1.771.352.722 8.152 3.423-7.329 2.493.5-5.7 11.594z"/><path d="m140.37 61.743.181-2.323-4.072-1.72-1.555 1.743-2.359-1 9.058-9.731 1.761.743-.655 13.278zm.349-4.479.353-4.763-3.181 3.569z"/><path d="m151.585 66.013-1.188 1.82-6.781-4.428 6.822-10.451 2.041 1.332-5.635 8.631z"/><path d="m159.024 72.785-1.477 1.6-5.947-5.51 8.485-9.159 1.788 1.657-7.007 7.564z"/><path d="m168.248 71.282-2.332 1.775 3 3.936-1.731 1.318-3-3.938-2.415 1.837 3.5 4.607-1.731 1.318-4.981-6.548 9.941-7.562 4.98 6.548-1.731 1.317z"/><path d="m175.887 83.335-9.16 4.737-1.12-2.166 9.161-4.737-1.5-2.9 1.932-1 4.117 7.961-1.932 1z"/></g><path d="m99.708 65.164a50.605 50.605 0 0 0 -32.175 32.174z" fill="#f4be9a"/><path d="m115.5 62.631c-.518 0-1.03.023-1.545.039l-48.916 48.916c-.015.515-.039 1.027-.039 1.545a50.341 50.341 0 0 0 15.675 36.552l71.377-71.377a50.341 50.341 0 0 0 -36.552-15.675z" fill="#f4be9a"/><path d="m142.977 86.956s-28.5-10.811-29.483-10.811h-13.759l-8.845 4.914-6.88 11.794-3.931 12.776-.979 16.707v5.9l3.931 2.949s30.467 12.776 30.467 13.759 6.879 3.931 7.862 3.931 5.9-2.949 5.9-2.949l1.965 2.949h2.949l3.931-5.9s7.862-23.587 7.862-24.57 2.949-21.621 2.949-21.621l-.983-6.88z" fill="#f58025"/><path d="m146.986 86.572.076-.057c-.071-.039-.235-.127-.463-.253a2.149 2.149 0 0 0 -.176-.139 4.546 4.546 0 0 0 -.864-.41c-6.359-3.3-31.153-15.428-47.426-10.644-12.779 3.753-18.086 23.781-19.776 32.218-.172.852-4.107 20.793.545 24.564 4.095 3.323 38.92 16.782 45.555 19.417a.65.65 0 0 0 .092.034c.283.117.527.21.691.283l-.045-.133a2.689 2.689 0 0 0 .95-.048c.532-.139.937-.268 1.773-2.078 1.379 1.391 3.358 2.909 5.483 2.686a4.305 4.305 0 0 0 3.489-2.753c11.164-24.396 16.27-56.846 10.096-62.687zm-24.379 59.928c-14.52-5.953-37.512-15.772-40.669-18.149-.411-.708-.659-2.6-.659-5.31a84.083 84.083 0 0 1 4.894-26.7c2.44-6.621 6.714-14.917 13.263-16.848 13.151-3.861 33.138 4.248 41.04 7.871a14.789 14.789 0 0 0 -1.231 1.317c-8.374 10.184-16.737 45.637-16.638 57.819zm10.106.777c-.67-.325 1.755-21.408 10.207-48.286 0 0-4.619 4.268-14.633 39.11 2.694-14.06 8.66-39.348 14.527-46.484a6.638 6.638 0 0 1 1.3-1.286c.628.946.99 3.169.99 6.461.003 10.447-3.467 30.96-12.391 50.488z" fill="#3f4b51"/></svg>