<svg height="220" viewBox="0 0 220 220" width="220" xmlns="http://www.w3.org/2000/svg"><circle cx="124.502" cy="102.31" fill="#fee7c3" r="85.5"/><circle cx="104.672" cy="109.35" fill="#dbf2f7" r="90.57"/><circle cx="104.672" cy="109.35" fill="none" r="90.57"/><path d="m51.872 159.95h127.927c9.75-14.448 15.443-31.859 15.443-50.6 0-18.902-5.794-36.45-15.698-50.97h-127.672z" fill="#fff"/><path d="m50.215 161.607h128.436c.77-1.087 1.516-2.192 2.238-3.314h-127.36v-98.256h127.117c-.73-1.122-1.481-2.228-2.258-3.314h-128.173v104.885z" fill="#f58025"/><g fill="#003e5b"><path d="m65.638 101.337h122.196v1.396h-122.196z"/><path d="m112.336 116.853h82.59c.038-.464.069-.93.1-1.396h-82.69z"/><path d="m192.828 130.177h-63.657v1.396h63.307c.117-.465.24-.928.35-1.396z"/><path d="m137.502 144.39c.23.43.35 1.01.35 1.76 0 .7-.1 1.29-.31 1.75-.3.66-.8.99-1.49.99-.62 0-1.09-.27-1.39-.81-.25-.45-.38-1.06-.38-1.82 0-.59.08-1.09.23-1.52.28-.79.8-1.18 1.54-1.18.66.01 1.15.28 1.45.83zm-.65 3.46c.2-.3.3-.86.3-1.67 0-.59-.07-1.07-.22-1.45s-.43-.57-.85-.57c-.38 0-.67.18-.84.54-.18.36-.27.89-.26 1.59 0 .53.06.95.17 1.27.17.49.47.73.89.73.34.01.61-.14.81-.44z"/><path d="m141.622 144.39c.23.43.35 1.01.35 1.76 0 .7-.1 1.29-.31 1.75-.3.66-.8.99-1.49.99-.62 0-1.09-.27-1.39-.81-.25-.45-.38-1.06-.38-1.82 0-.59.08-1.09.23-1.52.28-.79.8-1.18 1.54-1.18.67 0 1.15.28 1.45.83zm-.65 3.46c.2-.3.3-.86.3-1.67 0-.59-.07-1.07-.22-1.45s-.43-.57-.85-.57c-.38 0-.67.18-.84.54-.18.36-.27.89-.26 1.59 0 .53.06.95.17 1.27.17.49.47.73.89.73.34 0 .61-.15.81-.44z"/><path d="m145.742 144.39c.23.43.35 1.01.35 1.76 0 .7-.1 1.29-.31 1.75-.3.66-.8.99-1.49.99-.62 0-1.09-.27-1.39-.81-.25-.45-.38-1.06-.38-1.82 0-.59.08-1.09.23-1.52.28-.79.8-1.18 1.54-1.18.67 0 1.15.28 1.45.83zm-.65 3.45c.2-.3.3-.86.3-1.67 0-.59-.07-1.07-.22-1.45s-.43-.57-.85-.57c-.38 0-.67.18-.84.54-.18.36-.27.89-.27 1.59 0 .53.06.95.17 1.27.17.49.47.73.89.73.35.01.62-.14.82-.44z"/><path d="m149.862 144.39c.23.43.35 1.01.35 1.76 0 .7-.1 1.29-.31 1.75-.3.66-.8.99-1.49.99-.62 0-1.09-.27-1.39-.81-.25-.45-.38-1.06-.38-1.82 0-.59.08-1.09.23-1.52.28-.79.8-1.18 1.54-1.18.67 0 1.15.27 1.45.83zm-.65 3.45c.2-.3.3-.86.3-1.67 0-.59-.07-1.07-.22-1.45s-.43-.57-.85-.57c-.38 0-.67.18-.84.54-.18.36-.27.89-.27 1.59 0 .53.06.95.17 1.27.17.49.47.73.89.73.35.01.62-.14.82-.44z"/><path d="m153.992 144.38c.23.43.35 1.01.35 1.76 0 .7-.1 1.29-.31 1.75-.3.66-.8.99-1.49.99-.62 0-1.09-.27-1.39-.81-.25-.45-.38-1.06-.38-1.82 0-.59.08-1.09.23-1.52.28-.79.8-1.18 1.54-1.18.66 0 1.15.28 1.45.83zm-.66 3.46c.2-.3.3-.86.3-1.67 0-.59-.07-1.07-.22-1.45s-.43-.57-.85-.57c-.38 0-.67.18-.84.54-.18.36-.27.89-.27 1.59 0 .53.06.95.17 1.27.17.49.47.73.89.73.35 0 .62-.15.82-.44z"/><path d="m158.112 144.38c.23.43.35 1.01.35 1.76 0 .7-.1 1.29-.31 1.75-.3.66-.8.99-1.49.99-.62 0-1.09-.27-1.39-.81-.25-.45-.38-1.06-.38-1.82 0-.59.08-1.09.23-1.52.28-.79.8-1.18 1.54-1.18.66 0 1.15.28 1.45.83zm-.65 3.45c.2-.3.3-.86.3-1.67 0-.59-.07-1.07-.22-1.45s-.43-.57-.85-.57c-.38 0-.67.18-.84.54-.18.36-.27.89-.27 1.59 0 .53.06.95.17 1.27.17.49.47.73.89.73.35.01.61-.14.82-.44z"/><path d="m162.232 144.38c.23.43.35 1.01.35 1.76 0 .7-.1 1.29-.31 1.75-.3.66-.8.99-1.49.99-.62 0-1.09-.27-1.39-.81-.25-.45-.38-1.06-.38-1.82 0-.59.08-1.09.23-1.52.28-.79.8-1.18 1.54-1.18.66 0 1.15.27 1.45.83zm-.65 3.45c.2-.3.3-.86.3-1.67 0-.59-.07-1.07-.22-1.45s-.43-.57-.85-.57c-.38 0-.67.18-.84.54-.18.36-.27.89-.27 1.59 0 .53.06.95.17 1.27.17.49.47.73.89.73.35.01.62-.14.82-.44z"/><path d="m165.262 146.33h1.82v.67h-1.82z"/><path d="m172.942 144.37c.23.43.35 1.01.35 1.76 0 .7-.1 1.29-.31 1.75-.3.66-.8.99-1.49.99-.62 0-1.09-.27-1.39-.81-.25-.45-.38-1.06-.38-1.82 0-.59.08-1.09.23-1.52.28-.79.8-1.18 1.54-1.18.66 0 1.15.28 1.45.83zm-.66 3.45c.2-.3.3-.86.3-1.67 0-.59-.07-1.07-.22-1.45s-.43-.57-.85-.57c-.38 0-.66.18-.84.54s-.27.89-.26 1.59c0 .53.06.95.17 1.27.17.49.47.73.89.73.35.01.61-.14.81-.44z"/><path d="m177.062 144.36c.23.43.35 1.01.35 1.76 0 .7-.1 1.29-.31 1.75-.3.66-.8.99-1.49.99-.62 0-1.09-.27-1.39-.81-.25-.45-.38-1.06-.38-1.82 0-.59.08-1.09.23-1.52.28-.79.8-1.18 1.54-1.18.66.01 1.15.28 1.45.83zm-.65 3.46c.2-.3.3-.86.3-1.67 0-.59-.07-1.07-.22-1.45s-.43-.57-.85-.57c-.38 0-.66.18-.84.54s-.27.89-.26 1.59c0 .53.06.95.17 1.27.17.49.47.73.89.73.34.01.61-.14.81-.44z"/><path d="m181.182 144.36c.23.43.35 1.01.35 1.76 0 .7-.1 1.29-.31 1.75-.3.66-.8.99-1.49.99-.62 0-1.09-.27-1.39-.81-.25-.45-.38-1.06-.38-1.82 0-.59.08-1.09.23-1.52.28-.79.8-1.18 1.54-1.18.67 0 1.15.28 1.45.83zm-.65 3.45c.2-.3.3-.86.3-1.67 0-.59-.07-1.07-.22-1.45s-.43-.57-.85-.57c-.38 0-.66.18-.84.54s-.27.89-.26 1.59c0 .53.06.95.17 1.27.17.49.47.73.89.73.34.01.61-.14.81-.44z"/><path d="m185.302 144.36c.23.43.35 1.01.35 1.76 0 .7-.1 1.29-.31 1.75-.3.66-.8.99-1.49.99-.62 0-1.09-.27-1.39-.81-.25-.45-.38-1.06-.38-1.82 0-.59.08-1.09.23-1.52.28-.79.8-1.18 1.54-1.18.67 0 1.15.28 1.45.83zm-.65 3.45c.2-.3.3-.86.3-1.67 0-.59-.07-1.07-.22-1.45s-.43-.57-.85-.57c-.38 0-.66.18-.84.54s-.27.89-.26 1.59c0 .53.06.95.17 1.27.17.49.47.73.89.73.34.01.61-.14.81-.44z"/></g><path d="m74.432 80.39c-.37 0-.66-.3-.67-.67 0-.37.3-.66.66-.66s.66.3.66.66c.01.37-.29.67-.65.67zm0-1.48c-.45 0-.82.36-.82.82 0 .45.36.82.82.82.45 0 .81-.37.81-.82 0-.46-.36-.82-.81-.82zm-.1.89h.05c.17 0 .15.1.15.21 0 .06 0 .13.03.18h.21c-.02-.04-.02-.22-.02-.28 0-.17-.14-.18-.19-.18.14-.02.19-.11.19-.23 0-.16-.09-.25-.24-.25h-.4v.95h.22zm0-.4h.1c.07 0 .11.03.11.12 0 .06-.03.14-.11.14h-.1z" fill="#f58025"/><path d="m82.332 69.66h-4.2v.41l.08.01c1.46.18 1.61.37 1.61 1.12l.01 7.78h1.67v-4.04h.67c1.58 0 4.88 0 4.88-2.63-.01-2.66-3.07-2.65-4.72-2.65zm-.2 4.55h-.64v-3.02c0-.71 0-.82 1.35-.82 1.52 0 2.36.68 2.36 1.92 0 1.69-1.55 1.92-3.07 1.92z" fill="#f58025"/><path d="m96.462 69.65h-.98s.01 6.8.01 7.26c-.26-.36-5.22-7.26-5.22-7.26h-3.54v.41l.08.01c1.43.19 1.61.25 1.61 1.28l.01 7.62h1.07s-.01-7.35-.01-7.81c.26.36 5.62 7.8 5.62 7.8h1.43l-.01-9.31z" fill="#f58025"/><path d="m97.842 74c0 2.54 1.56 5.11 5.02 5.1 1.65 0 2.46-.18 3.21-.39l.07-.02v-.76l-.13.04c-.8.22-1.59.33-2.21.33-2.77 0-4.12-1.52-4.12-4.66 0-2.1.99-3.35 2.66-3.35 1.12 0 1.78.44 1.95 1.31l.02.08h1.84l-.01-.11c-.06-.49-.51-2.07-3.69-2.07-3.06 0-4.61 1.51-4.61 4.5z" fill="#f58025"/><path d="m72.952 75.11h-1.31c.07-.18.04-.39-.09-.6l-2.14-3.71c-.31-.54-.63-.97-.93-1.29.01 0 .01.01.02.01.86.47 2.57 1.43 5.85 3.36l.19.11c.61.35.97.9.86 1.3-.14.52-1.03.82-2.45.82m-4.27 3.7-.19.11c-.61.35-1.26.39-1.55.1-.38-.38-.2-1.3.51-2.53l.66-1.14c.13.15.32.23.56.23h4.28c.62 0 1.15-.06 1.58-.16-.01 0-.01.01-.02.01-.83.5-2.52 1.5-5.83 3.38zm-2.3-7.88v-.21c0-.7.29-1.29.69-1.39.52-.14 1.23.48 1.93 1.7l.66 1.14c-.19.03-.35.16-.48.38l-2.14 3.71c-.31.54-.53 1.03-.65 1.45v-.02c-.01-.98-.04-2.95-.01-6.76zm3.42-3.08c-3.51 0-6.36 2.85-6.36 6.37s2.85 6.36 6.37 6.36 6.36-2.85 6.36-6.37c-.01-3.52-2.86-6.37-6.37-6.36z" fill="#f58025"/><path d="m66.595 95.977-.004-5.263h1.984c.35 0 .616.015.801.048.258.043.475.125.65.246.174.121.314.289.422.507.106.218.16.457.16.719 0 .447-.142.826-.426 1.137-.285.31-.799.465-1.544.466h-1.35v2.141h-.694zm.693-2.761h1.361c.449-.002.77-.086.957-.253.189-.168.284-.403.283-.707 0-.221-.055-.409-.167-.565-.11-.157-.258-.261-.439-.311-.117-.031-.334-.046-.649-.046h-1.347v1.882z" fill="#003e5b"/><path d="m70.374 95.974 2.018-5.264h.75l2.158 5.26h-.793l-.615-1.592h-2.201l-.576 1.596h-.74zm1.518-2.162h1.784l-.551-1.459c-.167-.442-.292-.806-.374-1.091-.066.339-.16.674-.283 1.006z" fill="#003e5b"/><path d="m76.793 95.969v-2.229l-2.032-3.031h.848l1.038 1.585c.192.297.37.593.536.89.157-.274.349-.585.573-.931l1.019-1.547h.811l-2.098 3.034.002 2.229h-.696z" fill="#003e5b"/><path d="m83.331 95.964-.004-4.642h-1.734v-.62l4.172-.003v.621h-1.741l.003 4.643h-.695z" fill="#003e5b"/><path d="m86.136 93.398c0-.873.232-1.558.701-2.053.471-.494 1.074-.742 1.816-.742.486 0 .924.115 1.314.348.391.231.688.555.893.97s.309.887.309 1.413c0 .533-.107 1.011-.322 1.433-.215.421-.52.739-.914.957-.395.217-.82.325-1.277.326-.496 0-.939-.119-1.33-.358s-.686-.565-.887-.979-.303-.853-.303-1.314zm.719.01c0 .635.17 1.134.512 1.499s.77.547 1.283.547c.525 0 .957-.186 1.295-.554.338-.37.508-.893.506-1.57 0-.429-.072-.803-.217-1.121-.146-.319-.357-.567-.637-.743s-.592-.264-.939-.263c-.492 0-.916.171-1.271.509-.355.339-.533.904-.531 1.696z" fill="#003e5b"/><path d="m95.317 95.954-.004-4.642-1.734.002v-.621l4.172-.003v.621h-1.742l.004 4.643h-.695z" fill="#003e5b"/><path d="m98.491 95.952-.004-5.263h.695l.002 2.16 2.736-.002-.002-2.161h.695l.004 5.263h-.695l-.002-2.48-2.736.002.002 2.48h-.695z" fill="#003e5b"/><path d="m103.794 95.948-.004-5.263 3.805-.003v.621l-3.109.002.002 1.611 2.912-.002v.618l-2.912.002.002 1.791 3.23-.002v.621l-3.926.003z" fill="#003e5b"/><path d="m110.511 93.379c0-.873.234-1.558.701-2.052.471-.495 1.076-.742 1.818-.743.484 0 .924.116 1.312.348.391.232.689.556.895.971.203.414.307.886.307 1.412 0 .533-.105 1.011-.322 1.434-.215.421-.52.739-.914.956-.395.218-.82.326-1.277.326-.496 0-.939-.119-1.328-.358-.391-.238-.688-.564-.889-.979s-.303-.853-.303-1.314zm.719.011c0 .635.172 1.134.512 1.498.342.365.77.548 1.285.547.523 0 .955-.185 1.293-.554s.508-.892.508-1.569c0-.429-.074-.803-.219-1.122s-.357-.567-.637-.742c-.279-.176-.592-.264-.939-.264-.492 0-.916.171-1.271.509-.355.34-.533.905-.531 1.697z" fill="#003e5b"/><path d="m116.454 95.938-.004-5.263 2.334-.002c.469 0 .826.046 1.07.141s.438.262.584.5c.146.239.221.504.221.793 0 .374-.121.688-.361.945-.242.256-.615.419-1.121.488.186.089.324.176.42.262.205.188.398.421.58.7l.916 1.432h-.877l-.697-1.094c-.203-.316-.371-.558-.502-.725-.133-.167-.25-.284-.355-.352-.104-.067-.209-.113-.316-.14-.08-.018-.209-.025-.389-.025h-.807l.002 2.338h-.697zm.695-2.94h1.496c.318 0 .568-.034.748-.101.178-.065.314-.171.408-.315.092-.146.139-.303.139-.473 0-.249-.09-.453-.271-.613s-.467-.241-.855-.24h-1.666l.002 1.742z" fill="#003e5b"/><path d="m121.753 95.934-.004-5.263h1.812c.41 0 .723.023.938.073.303.069.559.195.771.377.277.233.486.533.625.898.137.365.207.782.207 1.251 0 .399-.047.754-.139 1.062-.094.309-.213.564-.359.767-.145.202-.305.362-.479.479s-.383.204-.629.264c-.244.06-.527.091-.846.091h-1.898zm.697-.62h1.123c.348 0 .619-.034.816-.099s.354-.155.471-.273c.166-.165.295-.387.387-.666s.137-.617.137-1.015c0-.551-.09-.973-.271-1.269-.182-.295-.4-.493-.66-.594-.186-.071-.486-.106-.9-.106h-1.105l.004 4.021z" fill="#003e5b"/><path d="m127.077 95.93-.004-5.263 3.805-.003v.621l-3.107.003.002 1.611 2.91-.003v.618l-2.91.003.002 1.791 3.23-.003v.621l-3.928.003z" fill="#003e5b"/><path d="m131.977 95.926-.004-5.263 2.334-.002c.469 0 .826.047 1.07.141.244.095.438.262.584.501s.221.504.221.793c0 .374-.121.688-.361.944-.242.256-.615.42-1.121.489.186.089.324.176.42.262.205.188.398.42.58.699l.916 1.432h-.877l-.697-1.093c-.203-.316-.371-.558-.502-.726-.133-.167-.25-.284-.355-.352-.104-.067-.209-.112-.316-.139-.08-.018-.209-.025-.389-.025h-.807l.002 2.338h-.697zm.695-2.94 1.496-.002c.318 0 .568-.032.748-.099.178-.065.314-.171.408-.315.092-.146.139-.304.139-.474 0-.249-.09-.453-.271-.612-.182-.16-.467-.241-.855-.241l-1.666.002.002 1.741z" fill="#003e5b"/><path d="m139.104 93.356c0-.873.234-1.558.701-2.052.471-.494 1.076-.742 1.818-.743.484 0 .924.116 1.312.348.391.232.689.556.895.971.203.415.307.886.307 1.412 0 .533-.105 1.012-.322 1.434-.215.421-.52.739-.914.956-.395.218-.82.326-1.277.326-.496 0-.939-.119-1.328-.357-.391-.239-.688-.565-.889-.979s-.303-.853-.303-1.314zm.719.011c0 .635.172 1.134.512 1.499.342.364.77.547 1.285.546.523 0 .955-.185 1.293-.554s.508-.892.508-1.569c0-.429-.074-.803-.219-1.122s-.357-.567-.637-.742c-.279-.176-.592-.264-.939-.264-.492 0-.916.171-1.271.509-.355.34-.533.905-.531 1.697z" fill="#003e5b"/><path d="m145.073 95.916-.004-5.263 3.551-.003v.621l-2.854.002.002 1.63 2.469-.002v.621l-2.469.002.002 2.391h-.697z" fill="#003e5b"/><path d="m12.472 111.479h107.279v51.8h-107.279z" fill="#0069aa" transform="matrix(.9942055 -.10749616 .10749616 .9942055 -14.385 7.903)"/><path d="m115.282 146.41c-3.25.35-5.6 3.27-5.25 6.52l-83.5 9.03c-.35-3.25-3.27-5.6-6.52-5.24l-3.07-28.36c3.25-.35 5.6-3.27 5.25-6.52l83.5-9.03c.35 3.25 3.27 5.6 6.52 5.25z" fill="#f2f2f2"/><path d="m26.362 120.419h107.279v51.8h-107.279z" fill="#0069aa" transform="matrix(.9942055 -.10749616 .10749616 .9942055 -15.266 9.448)"/><path d="m129.172 155.35c-3.25.35-5.6 3.27-5.25 6.52l-83.5 9.03c-.35-3.25-3.27-5.6-6.52-5.24l-3.07-28.36c3.25-.35 5.6-3.27 5.25-6.52l83.5-9.03c.35 3.25 3.27 5.6 6.52 5.25z" fill="#f2f2f2"/><circle cx="79.287" cy="147.052" fill="#fff" r="13.62"/><path d="m81.102 163.435c-9.09.98-17.29-5.61-18.27-14.71-.98-9.09 5.61-17.29 14.7-18.27s17.29 5.61 18.27 14.71c.99 9.1-5.61 17.29-14.7 18.27zm-3.15-29.21c-7.01.76-12.1 7.08-11.35 14.1.76 7.01 7.08 12.11 14.1 11.35s12.11-7.09 11.35-14.1c-.76-7.02-7.09-12.11-14.1-11.35z" fill="#003e5b"/><path d="m101.862 141.589h10.31v3.62h-10.31z" fill="#003e5b" transform="matrix(.9942055 -.10749616 .10749616 .9942055 -14.795 12.335)"/><path d="m47.312 147.489h10.32v3.62h-10.32z" fill="#003e5b" transform="matrix(.9942055 -.10749616 .10749616 .9942055 -15.746 6.506)"/><path d="m83.545 140.752-1.568 1.925c-.728-.566-1.713-.723-2.558-.691l.376 3.471c2.169.089 2.877.295 3.603.842.835.636 1.307 1.635 1.442 2.892.264 2.434-1.37 4.124-3.852 4.695l.241 2.233-2.034.22-.232-2.154c-1.922.147-3.472-.189-4.891-1.367l1.601-1.99c.931.767 2.101.943 3.321.852l-.391-3.611c-1.688.062-2.82-.319-3.549-.907-.75-.585-1.19-1.485-1.318-2.663-.25-2.313 1.108-4.135 3.669-4.716l-.194-1.795 2.034-.22.192 1.775c1.646-.076 2.917.29 4.107 1.211zm-7.146 3.356c.041.378.2.725.529.972.35.244.81.396 1.396.414l-.36-3.331c-1.159.286-1.66 1.067-1.565 1.945zm5.715 5.437c-.052-.479-.237-.883-.566-1.13-.418-.317-.844-.333-1.471-.346l.369 3.411c1.18-.288 1.773-.958 1.668-1.936z" fill="#0069aa"/></svg>