<svg height="50" viewBox="0 0 50 50" width="50" xmlns="http://www.w3.org/2000/svg"><path d="m21.517 32.319h5.556v5.556h-5.556zm28.483-5.291-1.675 1.675h-2.646v13.933h-41.534v-13.933h-2.47l-1.675-1.675 14.374-13.404h9.788l6.261-6.261 8.466 8.466v-1.675h5.556v7.231l5.556 5.644zm-35.185 2.028h-8.554v11.552h8.642v-11.552zm28.836-2.381-13.404-13.228-.088.088-5.82 5.644-7.496 7.496v13.845h14.55v-10.317h7.407v10.317h4.85v-13.845zm-13.404-6.878c-1.675 0-3.086 1.411-3.086 3.086s1.411 3.086 3.086 3.086 3.086-1.411 3.086-3.086c0-1.764-1.411-3.086-3.086-3.086z" fill="#ef6a00"/></svg>