<?xml version="1.0" encoding="UTF-8"?>
<svg id="Layer_1" data-name="Layer 1" xmlns="http://www.w3.org/2000/svg" width="50" height="50" viewBox="0 0 50 50">
  <defs>
    <style>
      .cls-1 {
        fill: #ef6a00;
      }
    </style>
  </defs>
  <path class="cls-1" d="m43.2,8.606c-.528-.977-1.549-1.586-2.66-1.586H1.211C.543,7.019,0,7.561,0,8.229c0,.202.05.401.147.579l6.69,12.35v17.719c0,2.264,1.836,4.1,4.1,4.1h34.963c2.264,0,4.1-1.836,4.1-4.1v-17.719l-6.8-12.552Zm3.742,30.794H9.894v-17.393h37.048v17.393Zm-24.742-1.625h11.026v-1.762h-11.026v1.762Zm12.672,0h11.028v-1.762h-11.024l-.004,1.762Zm-23.243,0h8.441v-1.762h-8.437l-.004,1.762Zm6.494-13.793h-6.575v1.762h6.579l-.004-1.762Zm18.781,4.011H11.548v1.762h25.36l-.004-1.762Zm8.643-4.011h-9.157v1.762h9.161l-.004-1.762Zm-8.639,8.018H11.548v1.762h25.36v-1.762Z"/>
</svg>