<svg height="180" viewBox="0 0 180 180" width="180" xmlns="http://www.w3.org/2000/svg" xmlns:xlink="http://www.w3.org/1999/xlink"><clipPath id="a"><rect height="103.242" rx="8.234" width="160" x="9.93" y="38.379"/></clipPath><radialGradient id="b" cx="21.986" cy="88.254" gradientUnits="userSpaceOnUse" r="68.027"><stop offset=".315" stop-color="#5b6570"/><stop offset="1" stop-color="#081321"/></radialGradient><circle cx="90" cy="90" fill="#b4e5fa" opacity=".6" r="85"/><rect fill="#081321" height="103.242" rx="8.234" width="160" x="9.93" y="38.379"/><g clip-path="url(#a)"><circle cx="21.986" cy="88.254" fill="url(#b)" r="70.4"/><path d="m10 132.73v.658c0 4.547 3.686 8.234 8.234 8.234h26.761c21.734-7.07 37.466-27.493 37.466-51.572s-15.871-44.689-37.756-51.67h-26.471c-4.547 0-8.234 3.686-8.234 8.234v86.117z" fill="#081321"/><path d="m68.704 79.778-1.558-.935c-27.832-16.409-42.371-24.613-49.641-28.559-.104 0-.104-.104-.208-.104 2.596 2.7 5.193 6.439 7.893 11.008l18.174 31.467c1.039 1.765 1.35 3.531.727 5.089h11.112c12.047 0 19.524-2.492 20.77-6.958.935-3.427-2.077-7.997-7.269-11.008zm-49.849 21.913c-2.077 0-3.739-.623-4.777-1.869l-5.608 9.658c-6.023 10.385-7.581 18.278-4.362 21.497 2.492 2.492 7.997 2.181 13.189-.831l1.558-.935c28.144-15.993 42.579-24.509 49.745-28.767l.104-.104c-3.739.935-8.204 1.35-13.501 1.35h-36.348zm-13.708 5.608 18.174-31.467c1.039-1.869 2.389-2.908 4.05-3.219l-5.608-9.658c-6.023-10.385-11.943-15.578-16.408-14.435-3.427.935-5.92 5.92-5.92 11.839v1.869c-.312 32.402-.104 49.122.208 57.222v.208c1.038-3.635 2.804-7.789 5.504-12.358z" fill="#333d48"/></g><g fill="#bac4ce"><rect height="16.265" rx="2.391" width="21.787" x="26.601" y="73.725"/><path d="m75.284 60.814h.082c.061 0 .102.031.102.112 0 .051-.02.123-.102.123h-.082zm0 .348h.051c.143 0 .133.082.133.184 0 .051 0 .112.02.164h.184c-.02-.031-.02-.194-.02-.245 0-.153-.123-.164-.164-.164.123-.02.164-.102.164-.204 0-.143-.082-.215-.215-.215h-.348v.838h.194v-.358zm.092-.787c-.399 0-.715.317-.715.715s.317.726.715.726.715-.327.715-.726-.317-.715-.715-.715m0 1.308c-.327 0-.583-.266-.583-.583 0-.327.256-.583.583-.583.317 0 .583.256.583.583 0 .317-.266.583-.583.583"/><path d="m73.454 57.216h-1.094c.061-.153.031-.327-.072-.501l-1.789-3.097c-.266-.45-.521-.818-.777-1.083.01 0 .01.01.02.01.715.388 2.146 1.196 4.886 2.811l.153.092c.511.296.807.746.715 1.083-.123.439-.859.685-2.044.685m-3.577 3.097-.153.092c-.511.296-1.053.327-1.298.082-.317-.317-.164-1.094.429-2.116l.552-.951c.102.123.266.184.47.184h3.577c.521 0 .961-.041 1.329-.133l-.01.01c-.705.419-2.126 1.257-4.896 2.831m-1.911-6.592v-.184c0-.583.245-1.073.583-1.165.439-.112 1.022.399 1.615 1.421l.552.951c-.164.031-.296.133-.399.317l-1.789 3.097c-.266.45-.439.859-.542 1.216v-.02c-.031-.797-.051-2.443-.02-5.632m2.862-2.576c-2.933 0-5.315 2.381-5.315 5.315s2.381 5.315 5.315 5.315 5.315-2.381 5.315-5.315-2.381-5.315-5.315-5.315"/><path d="m81.662 52.586h-3.567v.348l.072.01c1.247.153 1.37.317 1.37.951v6.603h1.41v-3.434h.572c1.339 0 4.139 0 4.139-2.228 0-2.249-2.596-2.249-3.996-2.249m-.174 3.863h-.542v-2.565c0-.603 0-.695 1.145-.695 1.288 0 2.003.583 2.003 1.635 0 1.431-1.318 1.625-2.606 1.625"/><path d="m93.651 52.596h-.828v6.163c-.215-.307-4.415-6.163-4.415-6.163h-2.995v.348l.072.01c1.216.153 1.37.215 1.37 1.083v6.46h.91v-6.623c.225.307 4.763 6.623 4.763 6.623h1.216v-7.901h-.092z"/><path d="m94.816 56.286c0 2.157 1.318 4.334 4.252 4.334 1.4 0 2.085-.153 2.719-.327l.061-.02v-.644l-.112.031c-.675.184-1.349.286-1.881.286-2.351 0-3.495-1.298-3.485-3.955 0-1.778.848-2.841 2.259-2.841.951 0 1.513.368 1.656 1.104l.01.061h1.554l-.01-.092c-.051-.409-.429-1.758-3.128-1.758-2.586.01-3.894 1.288-3.894 3.823"/><path d="m108.747 56.286c.695-.225 1.349-.767 1.349-1.748 0-1.932-2.3-1.932-3.056-1.932h-4.088v.348l.317.061c.838.164 1.298.245 1.298.991v6.511h2.381c.981 0 3.598 0 3.598-2.167.01-1.094-.613-1.799-1.799-2.065m-2.862-2.3c0-.705 0-.777.879-.777 1.257 0 1.87.46 1.87 1.41 0 1.257-1.247 1.4-2.187 1.4h-.562v-2.034zm1.022 5.897q-1.022 0-1.022-.859v-2.392h.562c.797 0 2.647 0 2.647 1.697.01 1.032-.736 1.554-2.187 1.554"/><path d="m115.002 52.596h-2.402v.337l.061.01c.675.143.961.235.961.46 0 .164-.092.378-.184.562l-.01.02-2.79 6.5h1.012s1.002-2.473 1.043-2.576h3.23c.041.092 1.114 2.576 1.114 2.576h1.462l-3.496-7.89zm-2.054 4.722c.082-.194 1.257-2.923 1.39-3.22.123.296 1.288 3.025 1.37 3.22z"/><path d="m127.767 60.487h1.308v-3.7c.235.235 3.69 3.7 3.69 3.7l1.37-.01-4.242-4.201 4.211-3.669h-1.41s-3.383 2.913-3.608 3.117v-3.107h-2.606v.327l.133.02c1.073.153 1.165.184 1.165.991l-.01 6.531z" fillRule="evenodd"/><path d="m125.948 52.555h-.828v6.173c-.215-.307-4.415-6.173-4.415-6.173h-2.995v.358l.072.01c1.216.164 1.37.215 1.37 1.083v6.47h.91v-6.633c.225.307 4.763 6.633 4.763 6.633h1.216v-7.921h-.092z"/></g></svg>